{"glyphs":{"0":{"ha":625,"x_min":63,"x_max":563,"o":"m 310 -11 q 170 33 225 -11 q 89 169 115 76 q 63 411 63 263 q 123 724 63 614 q 324 833 183 833 q 511 731 460 833 q 563 411 563 628 q 537 181 563 275 q 456 38 511 86 q 310 -11 400 -11 m 307 22 q 439 69 390 22 q 508 203 488 115 q 529 417 529 292 q 485 706 529 613 q 325 800 442 800 q 149 697 203 800 q 96 399 96 593 q 119 183 96 267 q 190 61 143 100 q 307 22 238 22 z "},"1":{"ha":625,"x_min":63,"x_max":563,"o":"m 63 0 q 63 17 63 0 q 63 33 63 33 q 87 33 63 33 q 147 33 111 33 q 220 33 183 33 q 281 33 257 33 q 306 33 306 33 l 328 796 q 307 792 328 796 q 256 781 286 788 q 194 769 225 775 q 142 758 163 763 q 121 754 121 754 q 119 767 121 754 q 117 788 117 781 q 140 792 117 788 q 198 804 164 797 q 266 818 232 811 q 324 830 300 825 q 347 835 347 835 q 357 833 353 835 q 361 831 361 831 l 343 33 l 490 33 q 542 35 522 33 q 563 36 563 36 q 563 18 563 36 q 563 0 563 0 l 63 0 z "},"2":{"ha":625,"x_min":63,"x_max":561,"o":"m 67 0 q 65 6 67 0 q 63 21 63 11 q 71 42 63 35 q 93 72 79 50 q 184 190 132 133 q 290 303 236 247 q 389 415 343 358 q 463 534 435 472 q 492 664 492 596 q 481 735 492 704 q 438 783 469 765 q 340 800 406 800 q 233 792 279 800 q 153 769 186 783 q 99 740 121 756 q 96 754 97 749 q 94 768 94 760 q 122 792 94 776 q 203 820 150 807 q 332 833 256 833 q 456 813 414 833 q 511 753 497 792 q 525 658 525 714 q 496 522 525 586 q 419 397 467 457 q 316 278 372 336 q 205 159 260 219 q 106 33 150 99 l 446 33 q 463 33 446 33 q 503 33 481 33 q 544 33 526 33 q 561 33 561 33 q 561 17 561 33 q 561 0 561 0 l 67 0 z "},"3":{"ha":625,"x_min":75,"x_max":546,"o":"m 235 -139 q 115 -117 154 -139 q 75 -85 75 -96 q 77 -67 75 -74 q 81 -56 79 -61 q 148 -93 113 -81 q 240 -106 183 -106 q 383 -62 322 -106 q 478 56 444 -18 q 513 219 513 129 q 492 310 513 276 q 439 361 472 344 q 363 385 406 378 q 276 396 321 392 l 274 425 q 422 545 364 482 q 481 679 481 608 q 469 728 481 700 q 426 778 458 757 q 329 800 394 800 q 182 783 236 800 q 88 738 128 767 q 84 751 85 743 q 83 764 83 760 q 145 808 83 782 q 321 833 207 833 q 444 810 403 833 q 500 750 486 786 q 514 675 514 714 q 487 578 514 624 q 418 494 460 532 q 332 424 376 456 q 435 399 386 419 q 515 335 483 379 q 546 214 546 292 q 509 38 546 118 q 403 -91 472 -43 q 235 -139 333 -139 z "},"4":{"ha":625,"x_min":69,"x_max":569,"o":"m 397 0 l 397 253 l 74 253 q 72 256 74 253 q 69 264 69 258 q 81 329 69 289 q 115 419 93 369 q 167 524 138 469 q 234 634 197 579 q 313 740 271 689 q 399 831 354 790 q 411 837 406 836 q 419 838 417 838 q 431 835 426 838 q 435 832 435 832 l 431 286 q 526 286 483 286 q 568 286 568 286 q 569 283 568 286 q 569 269 569 281 q 567 258 569 264 q 558 253 565 253 l 431 253 l 431 19 q 430 6 431 10 q 423 1 429 1 q 397 0 417 0 m 104 286 l 397 286 l 404 792 q 320 695 365 750 q 233 574 275 640 q 156 435 190 508 q 104 286 122 363 z "},"5":{"ha":625,"x_min":63,"x_max":549,"o":"m 229 -139 q 106 -119 149 -139 q 63 -85 63 -99 q 64 -71 63 -78 q 68 -56 65 -64 q 136 -92 96 -79 q 235 -106 176 -106 q 404 -57 343 -106 q 490 78 465 -8 q 515 275 515 164 q 485 396 515 350 q 409 465 454 442 q 316 495 364 488 q 235 503 268 503 q 123 490 168 503 q 78 478 78 478 l 114 833 l 539 833 q 538 810 539 818 q 531 801 536 803 q 514 800 525 800 q 488 800 514 800 q 419 800 461 800 q 329 800 376 800 q 240 800 282 800 q 171 800 197 800 q 144 800 144 800 l 114 524 q 142 529 114 524 q 232 535 169 535 q 331 528 276 536 q 434 492 385 519 q 516 412 483 465 q 549 269 549 358 q 521 55 549 147 q 424 -88 493 -37 q 229 -139 354 -139 z "},"6":{"ha":625,"x_min":65,"x_max":565,"o":"m 299 -12 q 179 17 225 -12 q 108 102 133 47 q 74 231 83 157 q 65 393 65 306 q 91 660 65 550 q 162 840 117 771 q 265 940 207 908 q 388 972 324 972 q 464 968 429 972 q 519 956 499 964 q 540 939 540 949 q 539 922 540 929 q 538 914 538 914 q 476 933 507 926 q 376 939 444 939 q 242 881 306 939 q 138 706 178 824 q 97 408 97 589 q 103 267 97 336 q 129 143 110 199 q 190 54 149 88 q 299 21 231 21 q 427 58 375 21 q 506 163 479 94 q 532 326 532 232 q 481 514 532 456 q 338 572 429 572 q 186 515 254 572 q 85 350 118 457 l 85 403 q 183 555 113 504 q 343 606 253 606 q 502 542 439 606 q 565 336 565 478 q 502 81 565 174 q 299 -12 439 -12 z "},"7":{"ha":625,"x_min":83,"x_max":583,"o":"m 156 -112 q 147 -112 156 -112 q 131 -110 139 -112 q 122 -106 122 -108 q 192 143 154 28 q 272 357 231 258 q 355 538 313 456 q 439 685 397 619 q 518 800 481 750 q 460 800 518 800 q 306 800 401 800 q 97 800 210 800 q 90 803 93 800 q 85 815 86 807 q 83 833 83 822 l 583 833 q 426 594 506 732 q 276 279 346 456 q 156 -112 207 103 z "},"8":{"ha":625,"x_min":68,"x_max":568,"o":"m 326 -12 q 183 20 240 -12 q 97 112 125 53 q 68 249 68 171 q 100 376 68 318 q 183 476 132 435 q 289 535 233 517 l 314 535 q 414 586 367 554 q 492 661 461 618 q 522 756 522 704 q 502 859 522 821 q 451 917 482 897 q 385 942 419 936 q 319 947 350 947 q 217 927 265 947 q 140 865 169 907 q 110 753 110 822 q 133 665 110 706 q 211 589 156 625 q 281 557 236 574 q 376 517 325 540 q 468 460 426 494 q 540 378 511 425 q 568 250 568 331 q 541 107 568 165 q 460 18 514 49 q 326 -12 407 -12 m 326 19 q 484 83 431 19 q 538 249 538 147 q 507 365 538 321 q 435 443 476 410 q 354 491 401 471 q 260 530 307 511 q 176 571 213 549 q 101 651 125 603 q 78 751 78 700 q 113 882 78 832 q 202 956 147 932 q 319 981 257 981 q 394 973 353 981 q 471 942 435 965 q 531 875 507 919 q 554 757 554 831 q 522 646 554 693 q 444 567 490 599 q 354 514 397 535 l 328 513 q 217 460 268 499 q 133 366 165 421 q 101 247 101 311 q 157 85 101 151 q 326 19 213 19 z "},"9":{"ha":625,"x_min":63,"x_max":563,"o":"m 210 -143 q 135 -138 168 -143 q 101 -124 101 -133 q 103 -106 101 -114 q 104 -99 104 -99 q 159 -108 135 -107 q 210 -110 183 -110 q 347 -76 288 -110 q 447 24 406 -43 q 510 194 489 92 q 531 435 531 297 q 524 574 531 507 q 499 696 518 642 q 439 782 479 750 q 329 814 399 814 q 156 736 215 814 q 96 503 96 658 q 153 316 96 374 q 296 258 210 258 q 438 315 374 258 q 543 465 501 371 l 543 418 q 448 277 513 329 q 290 225 383 225 q 176 253 228 225 q 94 340 125 281 q 63 493 63 399 q 126 756 63 664 q 329 847 190 847 q 449 820 403 847 q 519 740 494 793 q 553 611 544 688 q 563 436 563 535 q 471 -2 563 139 q 210 -143 379 -143 z "},"A":{"ha":606,"x_min":14,"x_max":593,"o":"m 33 -1 q 26 -1 32 -1 q 14 0 21 -1 l 292 976 q 299 979 292 979 q 306 978 303 979 q 311 976 310 978 l 590 14 q 590 2 593 6 q 579 -1 588 -1 q 569 -1 575 -1 q 557 0 563 -1 l 372 653 q 340 774 356 717 q 313 874 324 832 q 301 929 303 915 q 290 874 300 915 q 264 774 279 832 q 231 653 249 717 l 53 8 q 46 0 51 1 q 33 -1 40 -1 m 128 294 l 128 328 l 493 328 l 493 294 l 128 294 z "},"Á":{"ha":606,"x_min":14,"x_max":593,"o":"m 33 -1 q 26 -1 32 -1 q 14 0 21 -1 l 292 976 q 299 979 292 979 q 306 978 303 979 q 311 976 310 978 l 590 14 q 590 2 593 6 q 579 -1 588 -1 q 569 -1 575 -1 q 557 0 563 -1 l 372 653 q 340 774 356 717 q 313 874 324 832 q 301 929 303 915 q 290 874 300 915 q 264 774 279 832 q 231 653 249 717 l 53 8 q 46 0 51 1 q 33 -1 40 -1 m 128 294 l 128 328 l 493 328 l 493 294 l 128 294 m 211 1082 q 208 1088 211 1082 q 201 1099 204 1093 q 197 1104 197 1104 q 266 1165 232 1136 q 328 1217 300 1194 q 374 1253 357 1240 q 390 1267 390 1267 q 403 1251 399 1267 q 408 1235 408 1235 q 392 1222 408 1235 q 349 1186 376 1208 q 287 1137 322 1164 q 211 1082 251 1110 z "},"Ă":{"ha":606,"x_min":14,"x_max":593,"o":"m 33 -1 q 26 -1 32 -1 q 14 0 21 -1 l 292 976 q 299 979 292 979 q 306 978 303 979 q 311 976 310 978 l 590 14 q 590 2 593 6 q 579 -1 588 -1 q 569 -1 575 -1 q 557 0 563 -1 l 372 653 q 340 774 356 717 q 313 874 324 832 q 301 929 303 915 q 290 874 300 915 q 264 774 279 832 q 231 653 249 717 l 53 8 q 46 0 51 1 q 33 -1 40 -1 m 128 294 l 128 328 l 493 328 l 493 294 l 128 294 m 303 1090 q 233 1110 263 1090 q 183 1156 203 1129 q 154 1208 164 1183 q 144 1242 144 1232 q 153 1256 144 1253 q 171 1260 161 1258 q 194 1203 179 1235 q 237 1147 210 1171 q 304 1124 264 1124 q 367 1143 343 1124 q 404 1191 390 1163 q 428 1246 418 1219 q 440 1257 432 1256 q 454 1253 447 1258 q 463 1240 461 1249 q 436 1177 454 1213 q 386 1116 418 1142 q 303 1090 354 1090 z "},"Ắ":{"ha":606,"x_min":14,"x_max":593,"o":"m 33 -1 q 26 -1 32 -1 q 14 0 21 -1 l 292 976 q 299 979 292 979 q 306 978 303 979 q 311 976 310 978 l 590 14 q 590 2 593 6 q 579 -1 588 -1 q 569 -1 575 -1 q 557 0 563 -1 l 372 653 q 340 774 356 717 q 313 874 324 832 q 301 929 303 915 q 290 874 300 915 q 264 774 279 832 q 231 653 249 717 l 53 8 q 46 0 51 1 q 33 -1 40 -1 m 128 294 l 128 328 l 493 328 l 493 294 l 128 294 m 301 1090 q 231 1110 261 1090 q 182 1156 201 1129 q 153 1208 163 1183 q 143 1242 143 1232 q 151 1256 143 1253 q 169 1260 160 1258 q 193 1203 178 1235 q 235 1147 208 1171 q 303 1124 263 1124 q 365 1143 342 1124 q 403 1191 389 1163 q 426 1246 417 1219 q 438 1257 431 1256 q 453 1253 446 1258 q 461 1240 460 1249 q 435 1177 453 1213 q 385 1116 417 1142 q 301 1090 353 1090 m 300 1292 q 297 1297 300 1292 q 290 1308 293 1303 q 286 1314 286 1314 q 355 1375 321 1346 q 417 1427 389 1404 q 463 1463 446 1450 q 479 1476 479 1476 q 492 1460 488 1476 q 497 1444 497 1444 q 481 1431 497 1444 q 438 1396 465 1418 q 376 1347 411 1374 q 300 1292 340 1319 z "},"Ặ":{"ha":606,"x_min":14,"x_max":593,"o":"m 33 -1 q 26 -1 32 -1 q 14 0 21 -1 l 292 976 q 299 979 292 979 q 306 978 303 979 q 311 976 310 978 l 590 14 q 590 2 593 6 q 579 -1 588 -1 q 569 -1 575 -1 q 557 0 563 -1 l 372 653 q 340 774 356 717 q 313 874 324 832 q 301 929 303 915 q 290 874 300 915 q 264 774 279 832 q 231 653 249 717 l 53 8 q 46 0 51 1 q 33 -1 40 -1 m 128 294 l 128 328 l 493 328 l 493 294 l 128 294 m 303 1090 q 233 1110 263 1090 q 183 1156 203 1129 q 154 1208 164 1183 q 144 1242 144 1232 q 153 1256 144 1253 q 171 1260 161 1258 q 194 1203 179 1235 q 237 1147 210 1171 q 304 1124 264 1124 q 367 1143 343 1124 q 404 1191 390 1163 q 428 1246 418 1219 q 440 1257 432 1256 q 454 1253 447 1258 q 463 1240 461 1249 q 436 1177 454 1213 q 386 1116 418 1142 q 303 1090 354 1090 z "},"Ằ":{"ha":606,"x_min":14,"x_max":593,"o":"m 33 -1 q 26 -1 32 -1 q 14 0 21 -1 l 292 976 q 299 979 292 979 q 306 978 303 979 q 311 976 310 978 l 590 14 q 590 2 593 6 q 579 -1 588 -1 q 569 -1 575 -1 q 557 0 563 -1 l 372 653 q 340 774 356 717 q 313 874 324 832 q 301 929 303 915 q 290 874 300 915 q 264 774 279 832 q 231 653 249 717 l 53 8 q 46 0 51 1 q 33 -1 40 -1 m 128 294 l 128 328 l 493 328 l 493 294 l 128 294 m 301 1090 q 231 1110 261 1090 q 182 1156 201 1129 q 153 1208 163 1183 q 143 1242 143 1232 q 151 1256 143 1253 q 169 1260 160 1258 q 193 1203 178 1235 q 235 1147 208 1171 q 303 1124 263 1124 q 365 1143 342 1124 q 403 1191 389 1163 q 426 1246 417 1219 q 438 1257 431 1256 q 453 1253 446 1258 q 461 1240 460 1249 q 435 1177 453 1213 q 385 1116 417 1142 q 301 1090 353 1090 m 319 1281 q 244 1335 281 1308 q 181 1385 208 1363 q 138 1420 154 1407 q 122 1433 122 1433 q 127 1449 122 1433 q 140 1465 132 1465 q 157 1452 140 1465 q 202 1416 174 1439 q 265 1364 231 1393 q 333 1303 299 1335 q 330 1297 333 1303 q 323 1286 326 1292 q 319 1281 319 1281 z "},"Ẳ":{"ha":606,"x_min":14,"x_max":593,"o":"m 33 -1 q 26 -1 32 -1 q 14 0 21 -1 l 292 976 q 299 979 292 979 q 306 978 303 979 q 311 976 310 978 l 590 14 q 590 2 593 6 q 579 -1 588 -1 q 569 -1 575 -1 q 557 0 563 -1 l 372 653 q 340 774 356 717 q 313 874 324 832 q 301 929 303 915 q 290 874 300 915 q 264 774 279 832 q 231 653 249 717 l 53 8 q 46 0 51 1 q 33 -1 40 -1 m 128 294 l 128 328 l 493 328 l 493 294 l 128 294 m 301 1090 q 231 1110 261 1090 q 182 1156 201 1129 q 153 1208 163 1183 q 143 1242 143 1232 q 151 1256 143 1253 q 169 1260 160 1258 q 193 1203 178 1235 q 235 1147 208 1171 q 303 1124 263 1124 q 365 1143 342 1124 q 403 1191 389 1163 q 426 1246 417 1219 q 438 1257 431 1256 q 453 1253 446 1258 q 461 1240 460 1249 q 435 1177 453 1213 q 385 1116 417 1142 q 301 1090 353 1090 m 281 1268 q 279 1279 281 1268 q 283 1303 278 1290 q 304 1326 292 1319 q 327 1343 317 1333 q 338 1378 338 1353 q 327 1418 338 1406 q 303 1433 317 1431 q 282 1436 290 1436 q 228 1419 251 1436 q 228 1426 228 1419 q 228 1442 228 1433 q 228 1453 228 1450 q 243 1465 228 1458 q 281 1472 258 1472 q 331 1463 310 1472 q 365 1433 353 1454 q 376 1378 376 1413 q 365 1336 376 1351 q 340 1313 354 1321 q 317 1297 325 1304 q 308 1281 310 1292 q 307 1269 307 1269 q 301 1267 307 1268 q 289 1267 294 1267 q 281 1268 283 1268 z "},"Ẵ":{"ha":606,"x_min":14,"x_max":593,"o":"m 33 -1 q 26 -1 32 -1 q 14 0 21 -1 l 292 976 q 299 979 292 979 q 306 978 303 979 q 311 976 310 978 l 590 14 q 590 2 593 6 q 579 -1 588 -1 q 569 -1 575 -1 q 557 0 563 -1 l 372 653 q 340 774 356 717 q 313 874 324 832 q 301 929 303 915 q 290 874 300 915 q 264 774 279 832 q 231 653 249 717 l 53 8 q 46 0 51 1 q 33 -1 40 -1 m 128 294 l 128 328 l 493 328 l 493 294 l 128 294 m 301 1090 q 231 1110 261 1090 q 182 1156 201 1129 q 153 1208 163 1183 q 143 1242 143 1232 q 151 1256 143 1253 q 169 1260 160 1258 q 193 1203 178 1235 q 235 1147 208 1171 q 303 1124 263 1124 q 365 1143 342 1124 q 403 1191 389 1163 q 426 1246 417 1219 q 438 1257 431 1256 q 453 1253 446 1258 q 461 1240 460 1249 q 435 1177 453 1213 q 385 1116 417 1142 q 301 1090 353 1090 m 369 1307 q 318 1319 338 1307 q 285 1348 299 1332 q 258 1376 271 1364 q 228 1389 246 1389 q 180 1371 199 1389 q 151 1334 161 1353 q 133 1315 140 1315 q 124 1320 129 1315 q 115 1330 118 1325 q 111 1335 111 1335 q 172 1403 143 1388 q 236 1418 200 1418 q 276 1406 261 1418 q 303 1380 292 1394 q 331 1353 315 1365 q 369 1342 346 1342 q 428 1360 408 1342 q 458 1396 449 1378 q 474 1414 468 1414 q 485 1409 481 1414 q 492 1399 489 1404 q 494 1393 494 1393 q 478 1364 488 1379 q 454 1335 468 1349 q 419 1315 440 1322 q 369 1307 399 1307 z "},"Â":{"ha":606,"x_min":14,"x_max":593,"o":"m 33 -1 q 26 -1 32 -1 q 14 0 21 -1 l 292 976 q 299 979 292 979 q 306 978 303 979 q 311 976 310 978 l 590 14 q 590 2 593 6 q 579 -1 588 -1 q 569 -1 575 -1 q 557 0 563 -1 l 372 653 q 340 774 356 717 q 313 874 324 832 q 301 929 303 915 q 290 874 300 915 q 264 774 279 832 q 231 653 249 717 l 53 8 q 46 0 51 1 q 33 -1 40 -1 m 128 294 l 128 328 l 493 328 l 493 294 l 128 294 m 431 1083 q 412 1103 431 1083 q 369 1149 393 1124 q 326 1195 344 1175 q 307 1215 307 1215 q 288 1196 307 1215 q 242 1150 268 1176 q 195 1104 217 1124 q 171 1085 174 1085 q 151 1094 157 1085 q 144 1103 144 1103 l 297 1246 q 308 1249 300 1249 q 317 1247 313 1249 q 328 1239 322 1244 q 348 1219 328 1239 q 394 1172 368 1199 q 441 1126 421 1146 q 461 1106 461 1106 q 452 1094 461 1106 q 431 1083 443 1083 z "},"Ấ":{"ha":606,"x_min":14,"x_max":665,"o":"m 33 -1 q 26 -1 32 -1 q 14 0 21 -1 l 292 976 q 299 979 292 979 q 306 978 303 979 q 311 976 310 978 l 590 14 q 590 2 593 6 q 579 -1 588 -1 q 569 -1 575 -1 q 557 0 563 -1 l 372 653 q 340 774 356 717 q 313 874 324 832 q 301 929 303 915 q 290 874 300 915 q 264 774 279 832 q 231 653 249 717 l 53 8 q 46 0 51 1 q 33 -1 40 -1 m 128 294 l 128 328 l 493 328 l 493 294 l 128 294 m 431 1083 q 412 1103 431 1083 q 369 1149 393 1124 q 326 1195 344 1175 q 307 1215 307 1215 q 288 1196 307 1215 q 242 1150 268 1176 q 195 1104 217 1124 q 171 1085 174 1085 q 151 1094 157 1085 q 144 1103 144 1103 l 297 1246 q 308 1249 300 1249 q 328 1239 318 1249 q 348 1219 328 1239 q 394 1172 368 1199 q 441 1126 421 1146 q 461 1106 461 1106 q 452 1094 461 1106 q 431 1083 443 1083 m 468 1200 q 465 1206 468 1200 q 458 1217 461 1211 q 454 1222 454 1222 q 523 1283 489 1254 q 585 1335 557 1313 q 631 1372 614 1358 q 647 1385 647 1385 q 660 1369 656 1385 q 665 1353 665 1353 q 649 1340 665 1353 q 606 1304 633 1326 q 544 1255 579 1282 q 468 1200 508 1228 z "},"Ậ":{"ha":606,"x_min":14,"x_max":593,"o":"m 33 -1 q 26 -1 32 -1 q 14 0 21 -1 l 292 976 q 299 979 292 979 q 306 978 303 979 q 311 976 310 978 l 590 14 q 590 2 593 6 q 579 -1 588 -1 q 569 -1 575 -1 q 557 0 563 -1 l 372 653 q 340 774 356 717 q 313 874 324 832 q 301 929 303 915 q 290 874 300 915 q 264 774 279 832 q 231 653 249 717 l 53 8 q 46 0 51 1 q 33 -1 40 -1 m 128 294 l 128 328 l 493 328 l 493 294 l 128 294 m 431 1083 q 412 1103 431 1083 q 369 1149 393 1124 q 326 1195 344 1175 q 307 1215 307 1215 q 288 1196 307 1215 q 242 1150 268 1176 q 195 1104 217 1124 q 171 1085 174 1085 q 151 1094 157 1085 q 144 1103 144 1103 l 297 1246 q 308 1249 300 1249 q 317 1247 313 1249 q 328 1239 322 1244 q 348 1219 328 1239 q 394 1172 368 1199 q 441 1126 421 1146 q 461 1106 461 1106 q 452 1094 461 1106 q 431 1083 443 1083 z "},"Ầ":{"ha":606,"x_min":14,"x_max":593,"o":"m 33 -1 q 26 -1 32 -1 q 14 0 21 -1 l 292 976 q 299 979 292 979 q 306 978 303 979 q 311 976 310 978 l 590 14 q 590 2 593 6 q 579 -1 588 -1 q 569 -1 575 -1 q 557 0 563 -1 l 372 653 q 340 774 356 717 q 313 874 324 832 q 301 929 303 915 q 290 874 300 915 q 264 774 279 832 q 231 653 249 717 l 53 8 q 46 0 51 1 q 33 -1 40 -1 m 128 294 l 128 328 l 493 328 l 493 294 l 128 294 m 431 1083 q 412 1103 431 1083 q 369 1149 393 1124 q 326 1195 344 1175 q 307 1215 307 1215 q 288 1196 307 1215 q 242 1150 268 1176 q 195 1104 217 1124 q 171 1085 174 1085 q 151 1094 157 1085 q 144 1103 144 1103 l 297 1246 q 308 1249 300 1249 q 328 1239 318 1249 q 348 1219 328 1239 q 394 1172 368 1199 q 441 1126 421 1146 q 461 1106 461 1106 q 452 1094 461 1106 q 431 1083 443 1083 m 429 1251 q 354 1306 390 1279 q 291 1356 318 1333 q 248 1391 264 1378 q 232 1404 232 1404 q 237 1420 232 1404 q 250 1436 242 1436 q 267 1423 250 1436 q 312 1387 283 1410 q 374 1335 340 1364 q 443 1274 408 1306 q 440 1268 443 1274 q 433 1257 436 1263 q 429 1251 429 1251 z "},"Ẩ":{"ha":606,"x_min":14,"x_max":593,"o":"m 33 -1 q 26 -1 32 -1 q 14 0 21 -1 l 292 976 q 299 979 292 979 q 306 978 303 979 q 311 976 310 978 l 590 14 q 590 2 593 6 q 579 -1 588 -1 q 569 -1 575 -1 q 557 0 563 -1 l 372 653 q 340 774 356 717 q 313 874 324 832 q 301 929 303 915 q 290 874 300 915 q 264 774 279 832 q 231 653 249 717 l 53 8 q 46 0 51 1 q 33 -1 40 -1 m 128 294 l 128 328 l 493 328 l 493 294 l 128 294 m 431 1083 q 412 1103 431 1083 q 369 1149 393 1124 q 326 1195 344 1175 q 307 1215 307 1215 q 288 1196 307 1215 q 242 1150 268 1176 q 195 1104 217 1124 q 171 1085 174 1085 q 151 1094 157 1085 q 144 1103 144 1103 l 297 1246 q 308 1249 300 1249 q 328 1239 318 1249 q 348 1219 328 1239 q 394 1172 368 1199 q 441 1126 421 1146 q 461 1106 461 1106 q 452 1094 461 1106 q 431 1083 443 1083 m 449 1214 q 447 1225 449 1214 q 451 1249 446 1236 q 473 1272 460 1265 q 496 1289 486 1279 q 506 1324 506 1299 q 495 1364 506 1351 q 472 1379 485 1376 q 450 1382 458 1382 q 396 1365 419 1382 q 396 1372 396 1365 q 396 1388 396 1379 q 396 1399 396 1396 q 411 1411 396 1404 q 449 1418 426 1418 q 499 1409 478 1418 q 533 1379 521 1400 q 544 1324 544 1358 q 533 1282 544 1297 q 508 1258 522 1267 q 485 1243 493 1250 q 476 1226 478 1238 q 475 1215 475 1215 q 469 1213 475 1214 q 457 1213 463 1213 q 449 1214 451 1214 z "},"Ẫ":{"ha":606,"x_min":14,"x_max":593,"o":"m 33 -1 q 26 -1 32 -1 q 14 0 21 -1 l 292 976 q 299 979 292 979 q 306 978 303 979 q 311 976 310 978 l 590 14 q 590 2 593 6 q 579 -1 588 -1 q 569 -1 575 -1 q 557 0 563 -1 l 372 653 q 340 774 356 717 q 313 874 324 832 q 301 929 303 915 q 290 874 300 915 q 264 774 279 832 q 231 653 249 717 l 53 8 q 46 0 51 1 q 33 -1 40 -1 m 128 294 l 128 328 l 493 328 l 493 294 l 128 294 m 431 1083 q 412 1103 431 1083 q 369 1149 393 1124 q 326 1195 344 1175 q 307 1215 307 1215 q 288 1196 307 1215 q 242 1150 268 1176 q 195 1104 217 1124 q 171 1085 174 1085 q 151 1094 157 1085 q 144 1103 144 1103 l 297 1246 q 308 1249 300 1249 q 328 1239 318 1249 q 348 1219 328 1239 q 394 1172 368 1199 q 441 1126 421 1146 q 461 1106 461 1106 q 452 1094 461 1106 q 431 1083 443 1083 m 390 1283 q 339 1296 358 1283 q 306 1324 319 1308 q 279 1353 292 1340 q 249 1365 267 1365 q 201 1347 219 1365 q 172 1310 182 1329 q 154 1292 161 1292 q 144 1297 150 1292 q 135 1306 139 1301 q 132 1311 132 1311 q 192 1379 164 1364 q 257 1394 221 1394 q 297 1383 282 1394 q 324 1356 313 1371 q 351 1330 336 1342 q 390 1318 367 1318 q 449 1336 429 1318 q 479 1372 469 1354 q 494 1390 489 1390 q 506 1385 501 1390 q 513 1375 510 1381 q 515 1369 515 1369 q 499 1340 508 1356 q 475 1312 489 1325 q 440 1291 461 1299 q 390 1283 419 1283 z "},"Ä":{"ha":606,"x_min":14,"x_max":593,"o":"m 33 -1 q 26 -1 32 -1 q 14 0 21 -1 l 292 976 q 299 979 292 979 q 306 978 303 979 q 311 976 310 978 l 590 14 q 590 2 593 6 q 579 -1 588 -1 q 569 -1 575 -1 q 557 0 563 -1 l 372 653 q 340 774 356 717 q 313 874 324 832 q 301 929 303 915 q 290 874 300 915 q 264 774 279 832 q 231 653 249 717 l 53 8 q 46 0 51 1 q 33 -1 40 -1 m 128 294 l 128 328 l 493 328 l 493 294 l 128 294 m 232 1131 q 213 1142 218 1132 q 208 1169 207 1151 q 216 1199 210 1189 q 235 1208 222 1208 q 255 1197 249 1208 q 260 1167 261 1186 q 253 1140 258 1149 q 232 1131 247 1131 m 371 1131 q 351 1142 357 1132 q 347 1169 346 1151 q 355 1199 349 1189 q 374 1208 361 1208 q 394 1197 388 1208 q 399 1167 400 1186 q 392 1140 397 1149 q 371 1131 386 1131 z "},"Ạ":{"ha":606,"x_min":14,"x_max":593,"o":"m 33 -1 q 26 -1 32 -1 q 14 0 21 -1 l 292 976 q 299 979 292 979 q 306 978 303 979 q 311 976 310 978 l 590 14 q 590 2 593 6 q 579 -1 588 -1 q 569 -1 575 -1 q 557 0 563 -1 l 372 653 q 340 774 356 717 q 313 874 324 832 q 301 929 303 915 q 290 874 300 915 q 264 774 279 832 q 231 653 249 717 l 53 8 q 46 0 51 1 q 33 -1 40 -1 m 128 294 l 128 328 l 493 328 l 493 294 l 128 294 z "},"À":{"ha":606,"x_min":14,"x_max":593,"o":"m 33 -1 q 26 -1 32 -1 q 14 0 21 -1 l 292 976 q 299 979 292 979 q 306 978 303 979 q 311 976 310 978 l 590 14 q 590 2 593 6 q 579 -1 588 -1 q 569 -1 575 -1 q 557 0 563 -1 l 372 653 q 340 774 356 717 q 313 874 324 832 q 301 929 303 915 q 290 874 300 915 q 264 774 279 832 q 231 653 249 717 l 53 8 q 46 0 51 1 q 33 -1 40 -1 m 128 294 l 128 328 l 493 328 l 493 294 l 128 294 m 394 1082 q 319 1137 356 1110 q 256 1186 283 1164 q 213 1222 229 1208 q 197 1235 197 1235 q 202 1251 197 1235 q 215 1267 207 1267 q 232 1253 215 1267 q 277 1217 249 1240 q 340 1165 306 1194 q 408 1104 374 1136 q 405 1099 408 1104 q 398 1088 401 1093 q 394 1082 394 1082 z "},"Ả":{"ha":606,"x_min":14,"x_max":593,"o":"m 33 -1 q 26 -1 32 -1 q 14 0 21 -1 l 292 976 q 299 979 292 979 q 306 978 303 979 q 311 976 310 978 l 590 14 q 590 2 593 6 q 579 -1 588 -1 q 569 -1 575 -1 q 557 0 563 -1 l 372 653 q 340 774 356 717 q 313 874 324 832 q 301 929 303 915 q 290 874 300 915 q 264 774 279 832 q 231 653 249 717 l 53 8 q 46 0 51 1 q 33 -1 40 -1 m 128 294 l 128 328 l 493 328 l 493 294 l 128 294 m 281 1049 q 279 1060 281 1049 q 283 1083 278 1071 q 305 1107 292 1100 q 328 1124 318 1114 q 338 1158 338 1133 q 327 1199 338 1186 q 303 1214 317 1211 q 282 1217 290 1217 q 228 1200 251 1217 q 228 1204 228 1200 q 228 1215 228 1208 q 228 1226 228 1221 q 228 1233 228 1232 q 243 1246 228 1239 q 281 1253 258 1253 q 331 1244 310 1253 q 365 1214 353 1235 q 376 1158 376 1193 q 365 1117 376 1132 q 340 1093 354 1101 q 317 1078 325 1085 q 308 1061 310 1072 q 307 1050 307 1050 q 301 1048 307 1049 q 289 1048 294 1047 q 281 1049 283 1049 z "},"Ā":{"ha":606,"x_min":14,"x_max":593,"o":"m 33 -1 q 26 -1 32 -1 q 14 0 21 -1 l 292 976 q 299 979 292 979 q 306 978 303 979 q 311 976 310 978 l 590 14 q 590 2 593 6 q 579 -1 588 -1 q 569 -1 575 -1 q 557 0 563 -1 l 372 653 q 340 774 356 717 q 313 874 324 832 q 301 929 303 915 q 290 874 300 915 q 264 774 279 832 q 231 653 249 717 l 53 8 q 46 0 51 1 q 33 -1 40 -1 m 128 294 l 128 328 l 493 328 l 493 294 l 128 294 m 136 1143 q 135 1153 135 1149 q 135 1161 135 1157 q 140 1174 136 1169 q 150 1178 143 1178 l 469 1178 q 471 1168 471 1172 q 471 1160 471 1164 q 466 1147 469 1151 q 456 1143 463 1143 l 136 1143 z "},"Ą":{"ha":606,"x_min":14,"x_max":593,"o":"m 532 -271 q 460 -243 486 -271 q 435 -164 435 -215 q 453 -91 435 -125 q 499 -30 471 -57 q 553 15 526 -3 l 474 294 l 132 294 l 53 8 q 46 0 51 1 q 33 -1 40 -1 q 26 -1 32 -1 q 14 0 21 -1 l 292 976 q 299 979 292 979 q 306 978 303 979 q 311 976 310 978 l 590 15 q 591 6 593 10 q 583 0 589 3 q 503 -70 539 -26 q 468 -162 468 -114 q 483 -219 468 -199 q 533 -239 499 -239 q 561 -235 550 -239 q 581 -225 572 -231 q 586 -235 583 -231 q 589 -247 589 -240 q 571 -265 589 -260 q 532 -271 553 -271 m 140 328 l 464 328 l 372 653 q 340 774 356 717 q 313 874 324 832 q 301 929 303 915 q 290 874 300 915 q 264 774 279 832 q 231 653 249 717 l 140 328 z "},"Å":{"ha":606,"x_min":14,"x_max":593,"o":"m 33 -1 q 26 -1 32 -1 q 14 0 21 -1 l 292 976 q 299 979 292 979 q 306 978 303 979 q 311 976 310 978 l 590 14 q 590 2 593 6 q 579 -1 588 -1 q 569 -1 575 -1 q 557 0 563 -1 l 372 653 q 340 774 356 717 q 313 874 324 832 q 301 929 303 915 q 290 874 300 915 q 264 774 279 832 q 231 653 249 717 l 53 8 q 46 0 51 1 q 33 -1 40 -1 m 128 294 l 128 328 l 493 328 l 493 294 l 128 294 m 299 1065 q 219 1091 250 1065 q 189 1181 189 1117 q 222 1269 189 1240 q 308 1297 254 1297 q 390 1272 363 1297 q 417 1181 417 1246 q 385 1095 417 1125 q 299 1065 354 1065 m 299 1099 q 361 1119 339 1099 q 383 1182 383 1139 q 365 1247 383 1229 q 310 1264 346 1264 q 245 1245 268 1264 q 222 1176 222 1226 q 242 1119 222 1140 q 299 1099 261 1099 z "},"Ã":{"ha":606,"x_min":14,"x_max":593,"o":"m 33 -1 q 26 -1 32 -1 q 14 0 21 -1 l 292 976 q 299 979 292 979 q 306 978 303 979 q 311 976 310 978 l 590 14 q 590 2 593 6 q 579 -1 588 -1 q 569 -1 575 -1 q 557 0 563 -1 l 372 653 q 340 774 356 717 q 313 874 324 832 q 301 929 303 915 q 290 874 300 915 q 264 774 279 832 q 231 653 249 717 l 53 8 q 46 0 51 1 q 33 -1 40 -1 m 128 294 l 128 328 l 493 328 l 493 294 l 128 294 m 369 1103 q 318 1115 338 1103 q 285 1144 299 1128 q 258 1172 271 1160 q 228 1185 246 1185 q 180 1167 199 1185 q 151 1130 161 1149 q 133 1111 140 1111 q 124 1116 129 1111 q 115 1126 118 1121 q 111 1131 111 1131 q 172 1199 143 1183 q 236 1214 200 1214 q 276 1202 261 1214 q 303 1176 292 1190 q 331 1149 315 1161 q 369 1138 346 1138 q 428 1156 408 1138 q 458 1192 449 1174 q 474 1210 468 1210 q 485 1205 481 1210 q 492 1194 489 1200 q 494 1189 494 1189 q 478 1160 488 1175 q 454 1131 468 1144 q 419 1110 440 1118 q 369 1103 399 1103 z "},"Æ":{"ha":938,"x_min":26,"x_max":889,"o":"m 46 -1 q 39 -1 44 -1 q 26 0 33 -1 l 539 964 q 544 969 540 967 q 550 972 547 972 l 569 972 q 547 924 564 960 q 506 841 529 889 q 456 742 482 793 q 406 647 429 692 l 65 8 q 58 1 63 3 q 46 -1 53 -1 m 204 294 l 218 328 l 556 328 l 556 294 l 204 294 m 540 0 l 540 958 q 542 965 540 958 q 554 972 544 972 l 886 972 q 886 951 886 958 q 884 942 886 944 q 878 939 882 939 l 574 939 l 574 33 l 889 33 q 888 12 889 19 q 885 2 888 4 q 878 0 883 0 l 540 0 m 563 517 l 563 550 l 858 550 q 857 523 858 529 q 847 517 856 517 l 563 517 z "},"B":{"ha":569,"x_min":94,"x_max":528,"o":"m 94 0 l 94 950 q 101 966 94 960 q 128 972 107 972 l 268 972 q 346 964 306 972 q 421 934 386 956 q 477 872 456 913 q 499 764 499 831 q 474 629 499 676 q 417 562 450 582 q 357 538 385 542 q 406 529 378 538 q 463 499 435 521 q 509 438 490 478 q 528 332 528 397 q 506 172 528 235 q 451 74 485 110 q 379 23 417 39 q 309 3 342 7 q 257 0 276 0 l 94 0 m 128 33 l 256 33 q 342 46 300 33 q 419 91 385 58 q 474 181 454 124 q 494 329 494 239 q 476 433 494 396 q 424 489 457 471 q 348 511 392 507 q 254 515 304 515 l 128 515 l 128 33 m 128 549 l 274 549 q 369 567 326 549 q 439 631 413 585 q 465 763 465 678 q 435 873 465 835 q 359 926 406 911 q 261 940 313 940 l 128 940 l 128 549 z "},"C":{"ha":513,"x_min":67,"x_max":471,"o":"m 296 -12 q 239 -8 269 -12 q 178 19 208 -3 q 122 88 147 40 q 82 218 97 135 q 67 432 67 301 q 82 685 67 585 q 124 847 97 786 q 185 937 151 907 q 258 976 219 967 q 332 985 296 985 q 399 974 371 985 q 444 947 428 963 q 460 921 460 932 q 457 908 460 915 q 450 899 454 901 q 429 917 446 904 q 386 941 413 929 q 328 953 360 953 q 264 944 296 953 q 203 906 232 935 q 151 819 174 876 q 115 665 128 761 q 101 425 101 569 q 119 210 101 290 q 166 89 138 129 q 229 35 194 49 q 297 22 264 22 q 399 51 353 22 q 461 106 444 79 q 467 94 464 100 q 471 81 471 88 q 447 43 471 65 q 384 4 424 21 q 296 -12 344 -12 z "},"Ć":{"ha":513,"x_min":67,"x_max":471,"o":"m 296 -12 q 239 -8 269 -12 q 178 19 208 -3 q 122 88 147 40 q 82 218 97 135 q 67 432 67 301 q 82 685 67 585 q 124 847 97 786 q 185 937 151 907 q 258 976 219 967 q 332 985 296 985 q 399 974 371 985 q 444 947 428 963 q 460 921 460 932 q 457 908 460 915 q 450 899 454 901 q 429 917 446 904 q 386 941 413 929 q 328 953 360 953 q 264 944 296 953 q 203 906 232 935 q 151 819 174 876 q 115 665 128 761 q 101 425 101 569 q 119 210 101 290 q 166 89 138 129 q 229 35 194 49 q 297 22 264 22 q 399 51 353 22 q 461 106 444 79 q 467 94 464 100 q 471 81 471 88 q 447 43 471 65 q 384 4 424 21 q 296 -12 344 -12 m 207 1082 q 203 1088 207 1082 q 197 1099 200 1093 q 193 1104 193 1104 q 262 1165 228 1136 q 324 1217 296 1194 q 369 1253 353 1240 q 386 1267 386 1267 q 399 1251 394 1267 q 404 1235 404 1235 q 388 1222 404 1235 q 345 1186 372 1208 q 283 1137 318 1164 q 207 1082 247 1110 z "},"Č":{"ha":513,"x_min":67,"x_max":471,"o":"m 296 -12 q 239 -8 269 -12 q 178 19 208 -3 q 122 88 147 40 q 82 218 97 135 q 67 432 67 301 q 82 685 67 585 q 124 847 97 786 q 185 937 151 907 q 258 976 219 967 q 332 985 296 985 q 399 974 371 985 q 444 947 428 963 q 460 921 460 932 q 457 908 460 915 q 450 899 454 901 q 429 917 446 904 q 386 941 413 929 q 328 953 360 953 q 264 944 296 953 q 203 906 232 935 q 151 819 174 876 q 115 665 128 761 q 101 425 101 569 q 119 210 101 290 q 166 89 138 129 q 229 35 194 49 q 297 22 264 22 q 399 51 353 22 q 461 106 444 79 q 467 94 464 100 q 471 81 471 88 q 447 43 471 65 q 384 4 424 21 q 296 -12 344 -12 m 310 1092 q 285 1108 304 1092 q 242 1148 267 1124 q 193 1197 217 1172 q 154 1237 169 1221 q 139 1253 139 1253 q 146 1263 139 1253 q 163 1272 153 1272 q 181 1258 165 1272 q 219 1222 197 1243 q 260 1178 240 1200 q 294 1141 281 1156 q 308 1126 308 1126 q 369 1198 338 1163 q 421 1257 400 1233 q 442 1281 442 1281 q 453 1270 449 1275 q 458 1258 458 1265 q 444 1238 458 1256 q 410 1195 431 1219 q 369 1147 390 1171 q 331 1108 347 1124 q 310 1092 314 1092 z "},"Ç":{"ha":513,"x_min":67,"x_max":471,"o":"m 296 -12 q 239 -8 269 -12 q 178 19 208 -3 q 122 88 147 40 q 82 218 97 135 q 67 432 67 301 q 82 685 67 585 q 124 847 97 786 q 185 937 151 907 q 258 976 219 967 q 332 985 296 985 q 399 974 371 985 q 444 947 428 963 q 460 921 460 932 q 457 908 460 915 q 450 899 454 901 q 429 917 446 904 q 386 941 413 929 q 328 953 360 953 q 264 944 296 953 q 203 906 232 935 q 151 819 174 876 q 115 665 128 761 q 101 425 101 569 q 119 210 101 290 q 166 89 138 129 q 229 35 194 49 q 297 22 264 22 q 399 51 353 22 q 461 106 444 79 q 467 94 464 100 q 471 81 471 88 q 447 43 471 65 q 384 4 424 21 q 296 -12 344 -12 m 311 -246 q 264 -242 285 -246 q 243 -237 243 -237 q 244 -231 243 -237 q 247 -217 244 -225 q 253 -206 249 -210 q 276 -206 260 -199 q 311 -214 292 -214 q 347 -203 331 -214 q 364 -161 364 -192 q 348 -119 364 -128 q 313 -111 332 -111 q 280 -115 296 -111 q 264 -118 264 -118 l 290 4 l 325 4 l 306 -85 q 313 -83 306 -85 q 332 -82 319 -82 q 376 -98 356 -82 q 397 -153 397 -114 q 383 -212 397 -192 q 349 -239 369 -232 q 311 -246 329 -246 z "},"D":{"ha":607,"x_min":97,"x_max":540,"o":"m 97 0 l 97 950 q 103 966 97 960 q 131 972 110 972 l 271 972 q 387 947 336 972 q 472 869 438 922 q 523 735 506 817 q 540 539 540 653 q 517 254 540 361 q 453 92 493 147 q 363 19 413 38 q 260 0 313 0 l 97 0 m 131 33 l 258 33 q 350 51 306 33 q 430 120 394 68 q 486 272 465 172 q 507 539 507 372 q 493 717 507 642 q 449 841 479 792 q 374 915 419 890 q 264 939 328 939 l 131 939 l 131 33 z "},"Ð":{"ha":607,"x_min":28,"x_max":540,"o":"m 97 0 l 97 950 q 103 966 97 960 q 131 972 110 972 l 271 972 q 387 947 336 972 q 472 869 438 922 q 523 735 506 817 q 540 539 540 653 q 517 254 540 361 q 453 92 493 147 q 363 19 413 38 q 260 0 313 0 l 97 0 m 28 499 q 30 528 28 522 q 42 533 32 533 l 315 533 q 314 505 315 511 q 301 499 313 499 l 28 499 m 131 33 l 258 33 q 350 51 306 33 q 430 120 394 68 q 486 272 465 172 q 507 539 507 372 q 493 717 507 642 q 449 841 479 792 q 374 915 419 890 q 264 939 328 939 l 131 939 l 131 33 z "},"Ď":{"ha":607,"x_min":97,"x_max":540,"o":"m 97 0 l 97 950 q 103 966 97 960 q 131 972 110 972 l 271 972 q 387 947 336 972 q 472 869 438 922 q 523 735 506 817 q 540 539 540 653 q 517 254 540 361 q 453 92 493 147 q 363 19 413 38 q 260 0 313 0 l 97 0 m 131 33 l 258 33 q 350 51 306 33 q 430 120 394 68 q 486 272 465 172 q 507 539 507 372 q 493 717 507 642 q 449 841 479 792 q 374 915 419 890 q 264 939 328 939 l 131 939 l 131 33 m 275 1092 q 251 1108 269 1092 q 207 1148 232 1124 q 158 1197 182 1172 q 119 1237 135 1221 q 104 1253 104 1253 q 111 1263 104 1253 q 128 1272 118 1272 q 147 1258 131 1272 q 184 1222 163 1243 q 226 1178 206 1200 q 260 1141 246 1156 q 274 1126 274 1126 q 334 1198 303 1163 q 386 1257 365 1233 q 407 1281 407 1281 q 419 1270 414 1275 q 424 1258 424 1265 q 410 1238 424 1256 q 376 1195 396 1219 q 334 1147 356 1171 q 296 1108 313 1124 q 275 1092 279 1092 z "},"Đ":{"ha":607,"x_min":-18,"x_max":540,"o":"m 97 0 l 97 950 q 103 966 97 960 q 131 972 110 972 l 271 972 q 387 947 336 972 q 472 869 438 922 q 523 735 506 817 q 540 539 540 653 q 517 254 540 361 q 453 92 493 147 q 363 19 413 38 q 260 0 313 0 l 97 0 m 131 33 l 258 33 q 350 51 306 33 q 430 120 394 68 q 486 272 465 172 q 507 539 507 372 q 493 717 507 642 q 449 841 479 792 q 374 915 419 890 q 264 939 328 939 l 131 939 l 131 33 m -17 451 q -18 461 -18 457 q -18 469 -18 465 q -13 482 -17 478 q -3 486 -10 486 l 317 486 q 318 476 318 481 q 318 468 318 472 q 313 456 317 460 q 303 451 310 451 l -17 451 z "},"E":{"ha":496,"x_min":99,"x_max":447,"o":"m 99 0 l 99 958 q 101 965 99 958 q 113 972 103 972 l 444 972 q 444 951 444 958 q 442 942 444 944 q 436 939 440 939 l 132 939 l 132 33 l 447 33 q 447 12 447 19 q 444 2 446 4 q 436 0 442 0 l 99 0 m 121 517 l 121 550 l 417 550 q 415 523 417 529 q 406 517 414 517 l 121 517 z "},"É":{"ha":496,"x_min":99,"x_max":447,"o":"m 99 0 l 99 958 q 101 965 99 958 q 113 972 103 972 l 444 972 q 444 951 444 958 q 442 942 444 944 q 436 939 440 939 l 132 939 l 132 33 l 447 33 q 447 12 447 19 q 444 2 446 4 q 436 0 442 0 l 99 0 m 121 517 l 121 550 l 417 550 q 415 523 417 529 q 406 517 414 517 l 121 517 m 182 1082 q 178 1088 182 1082 q 172 1099 175 1093 q 168 1104 168 1104 q 237 1165 203 1136 q 299 1217 271 1194 q 344 1253 328 1240 q 361 1267 361 1267 q 374 1251 369 1267 q 379 1235 379 1235 q 363 1222 379 1235 q 320 1186 347 1208 q 258 1137 293 1164 q 182 1082 222 1110 z "},"Ě":{"ha":496,"x_min":99,"x_max":447,"o":"m 99 0 l 99 958 q 101 965 99 958 q 113 972 103 972 l 444 972 q 444 951 444 958 q 442 942 444 944 q 436 939 440 939 l 132 939 l 132 33 l 447 33 q 447 12 447 19 q 444 2 446 4 q 436 0 442 0 l 99 0 m 121 517 l 121 550 l 417 550 q 415 523 417 529 q 406 517 414 517 l 121 517 m 285 1092 q 260 1108 279 1092 q 217 1148 242 1124 q 168 1197 192 1172 q 129 1237 144 1221 q 114 1253 114 1253 q 121 1263 114 1253 q 138 1272 128 1272 q 156 1258 140 1272 q 194 1222 172 1243 q 235 1178 215 1200 q 269 1141 256 1156 q 283 1126 283 1126 q 344 1198 313 1163 q 396 1257 375 1233 q 417 1281 417 1281 q 428 1270 424 1275 q 433 1258 433 1265 q 419 1238 433 1256 q 385 1195 406 1219 q 344 1147 365 1171 q 306 1108 322 1124 q 285 1092 289 1092 z "},"Ê":{"ha":496,"x_min":99,"x_max":447,"o":"m 99 0 l 99 958 q 101 965 99 958 q 113 972 103 972 l 444 972 q 444 951 444 958 q 442 942 444 944 q 436 939 440 939 l 132 939 l 132 33 l 447 33 q 447 12 447 19 q 444 2 446 4 q 436 0 442 0 l 99 0 m 121 517 l 121 550 l 417 550 q 415 523 417 529 q 406 517 414 517 l 121 517 m 401 1083 q 383 1103 401 1083 q 340 1149 364 1124 q 297 1195 315 1175 q 278 1215 278 1215 q 258 1196 278 1215 q 213 1150 239 1176 q 166 1104 188 1124 q 142 1085 144 1085 q 122 1094 128 1085 q 115 1103 115 1103 l 268 1246 q 279 1249 271 1249 q 288 1247 283 1249 q 299 1239 293 1244 q 319 1219 299 1239 q 365 1172 339 1199 q 412 1126 392 1146 q 432 1106 432 1106 q 423 1094 432 1106 q 401 1083 414 1083 z "},"Ế":{"ha":496,"x_min":99,"x_max":636,"o":"m 99 0 l 99 958 q 101 965 99 958 q 113 972 103 972 l 444 972 q 444 951 444 958 q 442 942 444 944 q 436 939 440 939 l 132 939 l 132 33 l 447 33 q 447 12 447 19 q 444 2 446 4 q 436 0 442 0 l 99 0 m 121 517 l 121 550 l 417 550 q 415 523 417 529 q 406 517 414 517 l 121 517 m 401 1083 q 383 1103 401 1083 q 340 1149 364 1124 q 297 1195 315 1175 q 278 1215 278 1215 q 258 1196 278 1215 q 213 1150 239 1176 q 166 1104 188 1124 q 142 1085 144 1085 q 122 1094 128 1085 q 115 1103 115 1103 l 268 1246 q 279 1249 271 1249 q 299 1239 289 1249 q 319 1219 299 1239 q 365 1172 339 1199 q 412 1126 392 1146 q 432 1106 432 1106 q 423 1094 432 1106 q 401 1083 414 1083 m 439 1200 q 435 1206 439 1200 q 428 1217 432 1211 q 425 1222 425 1222 q 494 1283 460 1254 q 556 1335 528 1313 q 601 1372 585 1358 q 618 1385 618 1385 q 631 1369 626 1385 q 636 1353 636 1353 q 620 1340 636 1353 q 577 1304 604 1326 q 515 1255 550 1282 q 439 1200 479 1228 z "},"Ệ":{"ha":496,"x_min":99,"x_max":447,"o":"m 99 0 l 99 958 q 101 965 99 958 q 113 972 103 972 l 444 972 q 444 951 444 958 q 442 942 444 944 q 436 939 440 939 l 132 939 l 132 33 l 447 33 q 447 12 447 19 q 444 2 446 4 q 436 0 442 0 l 99 0 m 121 517 l 121 550 l 417 550 q 415 523 417 529 q 406 517 414 517 l 121 517 m 401 1083 q 383 1103 401 1083 q 340 1149 364 1124 q 297 1195 315 1175 q 278 1215 278 1215 q 258 1196 278 1215 q 213 1150 239 1176 q 166 1104 188 1124 q 142 1085 144 1085 q 122 1094 128 1085 q 115 1103 115 1103 l 268 1246 q 279 1249 271 1249 q 288 1247 283 1249 q 299 1239 293 1244 q 319 1219 299 1239 q 365 1172 339 1199 q 412 1126 392 1146 q 432 1106 432 1106 q 423 1094 432 1106 q 401 1083 414 1083 z "},"Ề":{"ha":496,"x_min":99,"x_max":447,"o":"m 99 0 l 99 958 q 101 965 99 958 q 113 972 103 972 l 444 972 q 444 951 444 958 q 442 942 444 944 q 436 939 440 939 l 132 939 l 132 33 l 447 33 q 447 12 447 19 q 444 2 446 4 q 436 0 442 0 l 99 0 m 121 517 l 121 550 l 417 550 q 415 523 417 529 q 406 517 414 517 l 121 517 m 401 1083 q 383 1103 401 1083 q 340 1149 364 1124 q 297 1195 315 1175 q 278 1215 278 1215 q 258 1196 278 1215 q 213 1150 239 1176 q 166 1104 188 1124 q 142 1085 144 1085 q 122 1094 128 1085 q 115 1103 115 1103 l 268 1246 q 279 1249 271 1249 q 299 1239 289 1249 q 319 1219 299 1239 q 365 1172 339 1199 q 412 1126 392 1146 q 432 1106 432 1106 q 423 1094 432 1106 q 401 1083 414 1083 m 400 1251 q 325 1306 361 1279 q 262 1356 289 1333 q 219 1391 235 1378 q 203 1404 203 1404 q 208 1420 203 1404 q 221 1436 213 1436 q 238 1423 221 1436 q 283 1387 254 1410 q 345 1335 311 1364 q 414 1274 379 1306 q 410 1268 414 1274 q 403 1257 407 1263 q 400 1251 400 1251 z "},"Ể":{"ha":496,"x_min":99,"x_max":515,"o":"m 99 0 l 99 958 q 101 965 99 958 q 113 972 103 972 l 444 972 q 444 951 444 958 q 442 942 444 944 q 436 939 440 939 l 132 939 l 132 33 l 447 33 q 447 12 447 19 q 444 2 446 4 q 436 0 442 0 l 99 0 m 121 517 l 121 550 l 417 550 q 415 523 417 529 q 406 517 414 517 l 121 517 m 401 1083 q 383 1103 401 1083 q 340 1149 364 1124 q 297 1195 315 1175 q 278 1215 278 1215 q 258 1196 278 1215 q 213 1150 239 1176 q 166 1104 188 1124 q 142 1085 144 1085 q 122 1094 128 1085 q 115 1103 115 1103 l 268 1246 q 279 1249 271 1249 q 299 1239 289 1249 q 319 1219 299 1239 q 365 1172 339 1199 q 412 1126 392 1146 q 432 1106 432 1106 q 423 1094 432 1106 q 401 1083 414 1083 m 419 1214 q 418 1225 419 1214 q 422 1249 417 1236 q 444 1272 431 1265 q 467 1289 457 1279 q 476 1324 476 1299 q 466 1364 476 1351 q 442 1379 456 1376 q 421 1382 429 1382 q 367 1365 390 1382 q 367 1372 367 1365 q 367 1388 367 1379 q 367 1399 367 1396 q 382 1411 367 1404 q 419 1418 397 1418 q 470 1409 449 1418 q 503 1379 492 1400 q 515 1324 515 1358 q 504 1282 515 1297 q 478 1258 493 1267 q 456 1243 464 1250 q 447 1226 449 1238 q 446 1215 446 1215 q 440 1213 446 1214 q 428 1213 433 1213 q 419 1214 422 1214 z "},"Ễ":{"ha":496,"x_min":99,"x_max":486,"o":"m 99 0 l 99 958 q 101 965 99 958 q 113 972 103 972 l 444 972 q 444 951 444 958 q 442 942 444 944 q 436 939 440 939 l 132 939 l 132 33 l 447 33 q 447 12 447 19 q 444 2 446 4 q 436 0 442 0 l 99 0 m 121 517 l 121 550 l 417 550 q 415 523 417 529 q 406 517 414 517 l 121 517 m 401 1083 q 383 1103 401 1083 q 340 1149 364 1124 q 297 1195 315 1175 q 278 1215 278 1215 q 258 1196 278 1215 q 213 1150 239 1176 q 166 1104 188 1124 q 142 1085 144 1085 q 122 1094 128 1085 q 115 1103 115 1103 l 268 1246 q 279 1249 271 1249 q 299 1239 289 1249 q 319 1219 299 1239 q 365 1172 339 1199 q 412 1126 392 1146 q 432 1106 432 1106 q 423 1094 432 1106 q 401 1083 414 1083 m 361 1283 q 310 1296 329 1283 q 276 1324 290 1308 q 250 1353 263 1340 q 219 1365 238 1365 q 172 1347 190 1365 q 142 1310 153 1329 q 125 1292 132 1292 q 115 1297 121 1292 q 106 1306 110 1301 q 103 1311 103 1311 q 163 1379 135 1364 q 228 1394 192 1394 q 268 1383 253 1394 q 295 1356 283 1371 q 322 1330 307 1342 q 361 1318 338 1318 q 420 1336 400 1318 q 450 1372 440 1354 q 465 1390 460 1390 q 476 1385 472 1390 q 483 1375 481 1381 q 486 1369 486 1369 q 469 1340 479 1356 q 446 1312 460 1325 q 411 1291 432 1299 q 361 1283 390 1283 z "},"Ë":{"ha":496,"x_min":99,"x_max":447,"o":"m 99 0 l 99 958 q 101 965 99 958 q 113 972 103 972 l 444 972 q 444 951 444 958 q 442 942 444 944 q 436 939 440 939 l 132 939 l 132 33 l 447 33 q 447 12 447 19 q 444 2 446 4 q 436 0 442 0 l 99 0 m 121 517 l 121 550 l 417 550 q 415 523 417 529 q 406 517 414 517 l 121 517 m 203 1131 q 183 1142 189 1132 q 179 1169 178 1151 q 187 1199 181 1189 q 206 1208 193 1208 q 226 1197 219 1208 q 231 1167 232 1186 q 224 1140 229 1149 q 203 1131 218 1131 m 342 1131 q 322 1142 328 1132 q 318 1169 317 1151 q 326 1199 319 1189 q 344 1208 332 1208 q 365 1197 358 1208 q 369 1167 371 1186 q 363 1140 368 1149 q 342 1131 357 1131 z "},"Ė":{"ha":496,"x_min":99,"x_max":447,"o":"m 99 0 l 99 958 q 101 965 99 958 q 113 972 103 972 l 444 972 q 444 951 444 958 q 442 942 444 944 q 436 939 440 939 l 132 939 l 132 33 l 447 33 q 447 12 447 19 q 444 2 446 4 q 436 0 442 0 l 99 0 m 121 517 l 121 550 l 417 550 q 415 523 417 529 q 406 517 414 517 l 121 517 m 272 1131 q 253 1142 258 1132 q 249 1169 247 1151 q 256 1199 250 1189 q 275 1208 263 1208 q 295 1197 289 1208 q 300 1167 301 1186 q 293 1140 299 1149 q 272 1131 288 1131 z "},"Ẹ":{"ha":496,"x_min":99,"x_max":447,"o":"m 99 0 l 99 958 q 101 965 99 958 q 113 972 103 972 l 444 972 q 444 951 444 958 q 442 942 444 944 q 436 939 440 939 l 132 939 l 132 33 l 447 33 q 447 12 447 19 q 444 2 446 4 q 436 0 442 0 l 99 0 m 121 517 l 121 550 l 417 550 q 415 523 417 529 q 406 517 414 517 l 121 517 z "},"È":{"ha":496,"x_min":99,"x_max":447,"o":"m 99 0 l 99 958 q 101 965 99 958 q 113 972 103 972 l 444 972 q 444 951 444 958 q 442 942 444 944 q 436 939 440 939 l 132 939 l 132 33 l 447 33 q 447 12 447 19 q 444 2 446 4 q 436 0 442 0 l 99 0 m 121 517 l 121 550 l 417 550 q 415 523 417 529 q 406 517 414 517 l 121 517 m 365 1082 q 290 1137 326 1110 q 227 1186 254 1164 q 184 1222 200 1208 q 168 1235 168 1235 q 173 1251 168 1235 q 186 1267 178 1267 q 203 1253 186 1267 q 248 1217 219 1240 q 310 1165 276 1194 q 379 1104 344 1136 q 376 1099 379 1104 q 369 1088 372 1093 q 365 1082 365 1082 z "},"Ẻ":{"ha":496,"x_min":99,"x_max":447,"o":"m 99 0 l 99 958 q 101 965 99 958 q 113 972 103 972 l 444 972 q 444 951 444 958 q 442 942 444 944 q 436 939 440 939 l 132 939 l 132 33 l 447 33 q 447 12 447 19 q 444 2 446 4 q 436 0 442 0 l 99 0 m 121 517 l 121 550 l 417 550 q 415 523 417 529 q 406 517 414 517 l 121 517 m 251 1049 q 250 1060 251 1049 q 254 1083 249 1071 q 276 1107 263 1100 q 299 1124 289 1114 q 308 1158 308 1133 q 298 1199 308 1186 q 274 1214 288 1211 q 253 1217 261 1217 q 199 1200 222 1217 q 199 1204 199 1200 q 199 1215 199 1208 q 199 1226 199 1221 q 199 1233 199 1232 q 214 1246 199 1239 q 251 1253 229 1253 q 302 1244 281 1253 q 335 1214 324 1235 q 347 1158 347 1193 q 336 1117 347 1132 q 310 1093 325 1101 q 288 1078 296 1085 q 279 1061 281 1072 q 278 1050 278 1050 q 272 1048 278 1049 q 260 1048 265 1047 q 251 1049 254 1049 z "},"Ē":{"ha":496,"x_min":99,"x_max":447,"o":"m 99 0 l 99 958 q 101 965 99 958 q 113 972 103 972 l 444 972 q 444 951 444 958 q 442 942 444 944 q 436 939 440 939 l 132 939 l 132 33 l 447 33 q 447 12 447 19 q 444 2 446 4 q 436 0 442 0 l 99 0 m 121 517 l 121 550 l 417 550 q 415 523 417 529 q 406 517 414 517 l 121 517 m 107 1143 q 106 1153 106 1149 q 106 1161 106 1157 q 110 1174 107 1169 q 121 1178 114 1178 l 440 1178 q 442 1168 442 1172 q 442 1160 442 1164 q 437 1147 440 1151 q 426 1143 433 1143 l 107 1143 z "},"Ę":{"ha":496,"x_min":99,"x_max":447,"o":"m 386 -271 q 317 -244 343 -271 q 290 -165 290 -217 q 319 -72 290 -117 q 388 0 349 -28 l 99 0 l 99 958 q 101 965 99 958 q 113 972 103 972 l 444 972 q 444 951 444 958 q 442 942 444 944 q 436 939 440 939 l 132 939 l 132 550 l 417 550 q 415 523 417 529 q 406 517 414 517 l 132 517 l 132 33 l 447 33 q 447 15 447 21 q 443 5 446 8 q 433 -3 440 1 q 357 -74 390 -31 q 324 -165 324 -117 q 388 -239 324 -239 q 436 -225 413 -239 q 442 -235 439 -231 q 444 -247 444 -240 q 426 -265 444 -260 q 386 -271 408 -271 z "},"Ẽ":{"ha":496,"x_min":82,"x_max":465,"o":"m 99 0 l 99 958 q 101 965 99 958 q 113 972 103 972 l 444 972 q 444 951 444 958 q 442 942 444 944 q 436 939 440 939 l 132 939 l 132 33 l 447 33 q 447 12 447 19 q 444 2 446 4 q 436 0 442 0 l 99 0 m 121 517 l 121 550 l 417 550 q 415 523 417 529 q 406 517 414 517 l 121 517 m 340 1103 q 289 1115 308 1103 q 256 1144 269 1128 q 229 1172 242 1160 q 199 1185 217 1185 q 151 1167 169 1185 q 122 1130 132 1149 q 104 1111 111 1111 q 94 1116 100 1111 q 85 1126 89 1121 q 82 1131 82 1131 q 142 1199 114 1183 q 207 1214 171 1214 q 247 1202 232 1214 q 274 1176 263 1190 q 301 1149 286 1161 q 340 1138 317 1138 q 399 1156 379 1138 q 429 1192 419 1174 q 444 1210 439 1210 q 456 1205 451 1210 q 463 1194 460 1200 q 465 1189 465 1189 q 449 1160 458 1175 q 425 1131 439 1144 q 390 1110 411 1118 q 340 1103 369 1103 z "},"F":{"ha":478,"x_min":99,"x_max":444,"o":"m 99 0 l 99 958 q 101 965 99 958 q 113 972 103 972 l 444 972 q 444 951 444 958 q 442 942 444 944 q 436 939 440 939 l 132 939 l 132 14 q 131 7 132 14 q 118 0 129 0 l 99 0 m 121 518 l 121 551 l 417 551 q 415 524 417 531 q 406 518 414 518 l 121 518 z "},"G":{"ha":576,"x_min":67,"x_max":510,"o":"m 324 -14 q 224 5 271 -14 q 142 75 178 24 q 87 224 107 126 q 67 481 67 322 q 88 735 67 636 q 147 888 108 833 q 237 965 185 943 q 351 986 289 986 q 452 969 410 986 q 494 932 494 953 q 493 922 494 926 q 488 910 492 917 q 433 941 464 929 q 356 953 403 953 q 255 933 301 953 q 174 863 208 914 q 119 720 139 813 q 100 481 100 628 q 118 233 100 325 q 168 94 136 140 q 241 34 200 49 q 326 19 282 19 q 402 33 371 19 q 453 64 433 46 q 476 93 472 82 l 476 500 l 303 500 l 303 519 q 317 533 303 533 l 510 533 l 510 83 q 486 49 506 72 q 428 6 467 25 q 324 -14 389 -14 z "},"Ğ":{"ha":576,"x_min":67,"x_max":510,"o":"m 324 -14 q 224 5 271 -14 q 142 75 178 24 q 87 224 107 126 q 67 481 67 322 q 88 735 67 636 q 147 888 108 833 q 237 965 185 943 q 351 986 289 986 q 452 969 410 986 q 494 932 494 953 q 493 922 494 926 q 488 910 492 917 q 433 941 464 929 q 356 953 403 953 q 255 933 301 953 q 174 863 208 914 q 119 720 139 813 q 100 481 100 628 q 118 233 100 325 q 168 94 136 140 q 241 34 200 49 q 326 19 282 19 q 402 33 371 19 q 453 64 433 46 q 476 93 472 82 l 476 500 l 303 500 l 303 519 q 317 533 303 533 l 510 533 l 510 83 q 486 49 506 72 q 428 6 467 25 q 324 -14 389 -14 m 317 1090 q 247 1110 276 1090 q 197 1156 217 1129 q 168 1208 178 1183 q 158 1242 158 1232 q 167 1256 158 1253 q 185 1260 175 1258 q 208 1203 193 1235 q 251 1147 224 1171 q 318 1124 278 1124 q 381 1143 357 1124 q 418 1191 404 1163 q 442 1246 432 1219 q 453 1257 446 1256 q 468 1253 461 1258 q 476 1240 475 1249 q 450 1177 468 1213 q 400 1116 432 1142 q 317 1090 368 1090 z "},"Ģ":{"ha":576,"x_min":67,"x_max":510,"o":"m 324 -14 q 224 5 271 -14 q 142 75 178 24 q 87 224 107 126 q 67 481 67 322 q 88 735 67 636 q 147 888 108 833 q 237 965 185 943 q 351 986 289 986 q 452 969 410 986 q 494 932 494 953 q 493 922 494 926 q 488 910 492 917 q 433 941 464 929 q 356 953 403 953 q 255 933 301 953 q 174 863 208 914 q 119 720 139 813 q 100 481 100 628 q 118 233 100 325 q 168 94 136 140 q 241 34 200 49 q 326 19 282 19 q 402 33 371 19 q 453 64 433 46 q 476 93 472 82 l 476 500 l 303 500 l 303 519 q 317 533 303 533 l 510 533 l 510 83 q 486 49 506 72 q 428 6 467 25 q 324 -14 389 -14 z "},"H":{"ha":638,"x_min":94,"x_max":543,"o":"m 510 0 l 510 958 q 511 968 510 965 q 519 972 513 971 q 543 972 526 972 l 543 14 q 542 4 543 7 q 533 1 540 1 q 510 0 526 0 m 94 0 l 94 958 q 96 968 94 965 q 105 972 97 971 q 128 972 113 972 l 128 14 q 126 4 128 7 q 118 1 125 1 q 94 0 111 0 m 117 518 l 117 551 l 526 551 l 526 518 l 117 518 z "},"I":{"ha":224,"x_min":94,"x_max":129,"o":"m 94 0 l 94 950 q 96 966 94 961 q 105 972 97 971 q 129 972 113 972 l 129 14 q 127 4 129 7 q 118 1 125 1 q 94 0 111 0 z "},"Ĳ":{"ha":636,"x_min":94,"x_max":542,"o":"m 94 0 l 94 950 q 96 966 94 961 q 105 972 97 971 q 129 972 113 972 l 129 14 q 127 4 129 7 q 118 1 125 1 q 94 0 111 0 m 385 -14 q 317 -4 347 -14 q 270 20 288 6 q 253 49 253 35 q 256 63 253 56 q 264 75 260 71 q 313 35 283 51 q 383 19 343 19 q 471 55 444 19 q 503 144 497 90 q 508 256 508 199 l 508 951 q 510 967 508 963 q 518 972 511 971 q 542 972 525 972 l 542 239 q 538 156 542 200 q 521 74 535 113 q 475 10 507 35 q 385 -14 443 -14 z "},"Í":{"ha":224,"x_min":7,"x_max":218,"o":"m 94 0 l 94 950 q 96 966 94 961 q 105 972 97 971 q 129 972 113 972 l 129 14 q 127 4 129 7 q 118 1 125 1 q 94 0 111 0 m 21 1082 q 17 1088 21 1082 q 10 1099 14 1093 q 7 1104 7 1104 q 76 1165 42 1136 q 138 1217 110 1194 q 183 1253 167 1240 q 200 1267 200 1267 q 213 1251 208 1267 q 218 1235 218 1235 q 202 1222 218 1235 q 159 1186 186 1208 q 97 1137 132 1164 q 21 1082 61 1110 z "},"Î":{"ha":224,"x_min":-46,"x_max":271,"o":"m 94 0 l 94 950 q 96 966 94 961 q 105 972 97 971 q 129 972 113 972 l 129 14 q 127 4 129 7 q 118 1 125 1 q 94 0 111 0 m 240 1083 q 222 1103 240 1083 q 178 1149 203 1124 q 135 1195 154 1175 q 117 1215 117 1215 q 97 1196 117 1215 q 52 1150 78 1176 q 5 1104 26 1124 q -19 1085 -17 1085 q -40 1094 -33 1085 q -46 1103 -46 1103 l 107 1246 q 118 1249 110 1249 q 127 1247 122 1249 q 138 1239 132 1244 q 158 1219 138 1239 q 204 1172 178 1199 q 251 1126 231 1146 q 271 1106 271 1106 q 262 1094 271 1106 q 240 1083 253 1083 z "},"Ï":{"ha":224,"x_min":17,"x_max":210,"o":"m 94 0 l 94 950 q 96 966 94 961 q 105 972 97 971 q 129 972 113 972 l 129 14 q 127 4 129 7 q 118 1 125 1 q 94 0 111 0 m 42 1131 q 22 1142 28 1132 q 18 1169 17 1151 q 26 1199 19 1189 q 44 1208 32 1208 q 65 1197 58 1208 q 69 1167 71 1186 q 63 1140 68 1149 q 42 1131 57 1131 m 181 1131 q 161 1142 167 1132 q 157 1169 156 1151 q 165 1199 158 1189 q 183 1208 171 1208 q 203 1197 197 1208 q 208 1167 210 1186 q 201 1140 207 1149 q 181 1131 196 1131 z "},"İ":{"ha":224,"x_min":86,"x_max":140,"o":"m 94 0 l 94 950 q 96 966 94 961 q 105 972 97 971 q 129 972 113 972 l 129 14 q 127 4 129 7 q 118 1 125 1 q 94 0 111 0 m 111 1131 q 92 1142 97 1132 q 88 1169 86 1151 q 95 1199 89 1189 q 114 1208 101 1208 q 134 1197 128 1208 q 139 1167 140 1186 q 132 1140 138 1149 q 111 1131 126 1131 z "},"Ị":{"ha":224,"x_min":86,"x_max":140,"o":"m 94 0 l 94 950 q 96 966 94 961 q 105 972 97 971 q 129 972 113 972 l 129 14 q 127 4 129 7 q 118 1 125 1 q 94 0 111 0 z "},"Ì":{"ha":224,"x_min":7,"x_max":218,"o":"m 94 0 l 94 950 q 96 966 94 961 q 105 972 97 971 q 129 972 113 972 l 129 14 q 127 4 129 7 q 118 1 125 1 q 94 0 111 0 m 204 1082 q 129 1137 165 1110 q 66 1186 93 1164 q 23 1222 39 1208 q 7 1235 7 1235 q 12 1251 7 1235 q 25 1267 17 1267 q 42 1253 25 1267 q 87 1217 58 1240 q 149 1165 115 1194 q 218 1104 183 1136 q 215 1099 218 1104 q 208 1088 211 1093 q 204 1082 204 1082 z "},"Ỉ":{"ha":224,"x_min":38,"x_max":186,"o":"m 94 0 l 94 950 q 96 966 94 961 q 105 972 97 971 q 129 972 113 972 l 129 14 q 127 4 129 7 q 118 1 125 1 q 94 0 111 0 m 90 1049 q 89 1060 90 1049 q 93 1083 88 1071 q 115 1107 101 1100 q 138 1124 128 1114 q 147 1158 147 1133 q 137 1199 147 1186 q 113 1214 126 1211 q 92 1217 100 1217 q 38 1200 61 1217 q 38 1204 38 1200 q 38 1215 38 1208 q 38 1226 38 1221 q 38 1233 38 1232 q 53 1246 38 1239 q 90 1253 68 1253 q 141 1244 119 1253 q 174 1214 163 1235 q 186 1158 186 1193 q 175 1117 186 1132 q 149 1093 164 1101 q 126 1078 135 1085 q 118 1061 119 1072 q 117 1050 117 1050 q 110 1048 117 1049 q 99 1048 104 1047 q 90 1049 93 1049 z "},"Ī":{"ha":224,"x_min":-56,"x_max":281,"o":"m 94 0 l 94 950 q 96 966 94 961 q 105 972 97 971 q 129 972 113 972 l 129 14 q 127 4 129 7 q 118 1 125 1 q 94 0 111 0 m -54 1143 q -56 1153 -56 1149 q -56 1161 -56 1157 q -51 1174 -54 1169 q -40 1178 -47 1178 l 279 1178 q 281 1168 281 1172 q 281 1160 281 1164 q 276 1147 279 1151 q 265 1143 272 1143 l -54 1143 z "},"Į":{"ha":222,"x_min":-10,"x_max":146,"o":"m 89 -271 q 15 -243 40 -271 q -10 -168 -10 -215 q 22 -63 -10 -108 q 94 17 54 -18 l 94 950 q 96 966 94 961 q 105 972 97 971 q 128 972 113 972 l 128 14 q 122 1 128 6 q 110 -8 117 -3 q 51 -76 79 -33 q 24 -169 24 -119 q 89 -237 24 -237 q 114 -234 104 -237 q 136 -225 124 -231 q 142 -235 139 -228 q 144 -246 144 -242 q 130 -264 146 -257 q 89 -271 114 -271 z "},"Ĩ":{"ha":224,"x_min":-79,"x_max":304,"o":"m 94 0 l 94 950 q 96 966 94 961 q 105 972 97 971 q 129 972 113 972 l 129 14 q 127 4 129 7 q 118 1 125 1 q 94 0 111 0 m 179 1103 q 128 1115 147 1103 q 94 1144 108 1128 q 68 1172 81 1160 q 38 1185 56 1185 q -10 1167 8 1185 q -40 1130 -29 1149 q -57 1111 -50 1111 q -67 1116 -61 1111 q -76 1126 -72 1121 q -79 1131 -79 1131 q -19 1199 -47 1183 q 46 1214 10 1214 q 86 1202 71 1214 q 113 1176 101 1190 q 140 1149 125 1161 q 179 1138 156 1138 q 238 1156 218 1138 q 268 1192 258 1174 q 283 1210 278 1210 q 294 1205 290 1210 q 301 1194 299 1200 q 304 1189 304 1189 q 288 1160 297 1175 q 264 1131 278 1144 q 229 1110 250 1118 q 179 1103 208 1103 z "},"J":{"ha":413,"x_min":29,"x_max":318,"o":"m 161 -14 q 94 -4 124 -14 q 47 20 64 6 q 29 49 29 35 q 33 63 29 56 q 40 75 36 71 q 90 35 60 51 q 160 19 119 19 q 247 55 221 19 q 279 144 274 90 q 285 256 285 199 l 285 951 q 286 967 285 963 q 294 972 288 971 q 318 972 301 972 l 318 239 q 315 156 318 200 q 297 74 311 113 q 251 10 283 35 q 161 -14 219 -14 z "},"K":{"ha":544,"x_min":94,"x_max":522,"o":"m 504 -1 q 495 -1 500 -1 q 486 0 490 -1 q 406 192 443 114 q 334 322 368 269 q 269 408 300 374 q 210 471 239 443 q 165 504 189 492 q 117 526 142 517 l 117 540 l 475 971 q 485 972 481 972 q 496 972 490 972 q 504 951 522 972 l 160 544 q 346 371 254 497 q 514 18 438 244 q 515 3 518 8 q 504 -1 511 -1 m 94 0 l 94 958 q 96 968 94 965 q 104 972 97 971 q 128 972 111 972 l 128 14 q 126 4 128 7 q 118 1 125 1 q 94 0 111 0 z "},"Ķ":{"ha":544,"x_min":94,"x_max":522,"o":"m 504 -1 q 495 -1 500 -1 q 486 0 490 -1 q 406 192 443 114 q 334 322 368 269 q 269 408 300 374 q 210 471 239 443 q 165 504 189 492 q 117 526 142 517 l 117 540 l 475 971 q 485 972 481 972 q 496 972 490 972 q 504 951 522 972 l 160 544 q 346 371 254 497 q 514 18 438 244 q 515 3 518 8 q 504 -1 511 -1 m 94 0 l 94 958 q 96 968 94 965 q 104 972 97 971 q 128 972 111 972 l 128 14 q 126 4 128 7 q 118 1 125 1 q 94 0 111 0 z "},"L":{"ha":476,"x_min":94,"x_max":449,"o":"m 94 0 l 94 951 q 96 967 94 963 q 105 972 97 971 q 131 972 113 972 l 131 32 l 449 32 l 449 14 q 445 2 449 4 q 435 0 442 0 l 94 0 z "},"Ĺ":{"ha":476,"x_min":94,"x_max":449,"o":"m 94 0 l 94 951 q 96 967 94 963 q 105 972 97 971 q 131 972 113 972 l 131 32 l 449 32 l 449 14 q 445 2 449 4 q 435 0 442 0 l 94 0 m 147 1082 q 144 1088 147 1082 q 137 1099 140 1093 q 133 1104 133 1104 q 202 1165 168 1136 q 265 1217 236 1194 q 310 1253 293 1240 q 326 1267 326 1267 q 340 1251 335 1267 q 344 1235 344 1235 q 328 1222 344 1235 q 285 1186 313 1208 q 223 1137 258 1164 q 147 1082 188 1110 z "},"Ľ":{"ha":490,"x_min":94,"x_max":449,"o":"m 94 0 l 94 951 q 96 967 94 963 q 105 972 97 971 q 131 972 113 972 l 131 32 l 449 32 l 449 14 q 445 2 449 4 q 435 0 442 0 l 94 0 m 294 696 q 283 701 289 696 q 276 713 278 707 q 303 814 303 775 q 297 881 304 853 q 289 939 289 910 q 297 968 289 957 q 321 979 304 979 q 346 968 336 979 q 356 931 356 957 q 349 863 356 903 q 332 785 342 824 q 312 722 322 747 q 294 696 301 696 z "},"Ļ":{"ha":476,"x_min":94,"x_max":449,"o":"m 94 0 l 94 951 q 96 967 94 963 q 105 972 97 971 q 131 972 113 972 l 131 32 l 449 32 l 449 14 q 445 2 449 4 q 435 0 442 0 l 94 0 z "},"Ŀ":{"ha":490,"x_min":94,"x_max":449,"o":"m 94 0 l 94 951 q 96 967 94 963 q 105 972 97 971 q 131 972 113 972 l 131 32 l 449 32 l 449 14 q 445 2 449 4 q 435 0 442 0 l 94 0 m 318 406 q 290 418 300 406 q 281 449 281 431 q 290 478 281 465 q 318 490 300 490 q 347 478 336 490 q 358 449 358 465 q 347 418 358 431 q 318 406 336 406 z "},"Ł":{"ha":476,"x_min":14,"x_max":449,"o":"m 94 0 l 94 951 q 96 967 94 963 q 105 972 97 971 q 131 972 113 972 l 131 32 l 449 32 l 449 14 q 447 7 449 14 q 435 0 446 0 l 94 0 m 24 456 q 15 483 15 476 q 24 493 14 489 l 278 596 q 287 568 286 574 q 278 558 288 563 l 24 456 z "},"M":{"ha":708,"x_min":94,"x_max":614,"o":"m 335 179 l 250 456 q 240 487 250 456 q 215 567 231 518 q 181 670 199 615 q 148 774 164 725 q 122 853 132 822 q 113 885 113 885 l 124 972 l 297 407 q 306 380 297 407 q 325 317 314 353 q 344 253 336 281 q 353 226 353 226 q 361 253 353 226 q 380 314 369 279 q 399 375 390 349 q 407 401 407 401 l 581 958 l 590 875 q 581 844 590 875 q 556 767 571 814 q 524 665 542 719 q 492 564 507 611 q 468 486 478 517 q 458 456 458 456 l 371 193 q 356 179 367 179 l 335 179 m 94 0 l 94 958 q 99 969 94 965 q 108 972 103 972 l 124 972 l 128 953 l 128 876 q 128 849 128 876 q 128 776 128 821 q 128 683 128 732 q 128 589 128 633 q 128 517 128 544 q 128 489 128 489 l 128 14 q 126 4 128 7 q 118 1 125 1 q 94 0 111 0 m 581 0 l 581 475 q 581 506 581 475 q 581 585 581 536 q 581 687 581 633 q 581 789 581 740 q 581 868 581 838 q 581 899 581 899 l 581 915 l 581 958 q 583 965 581 958 q 594 972 586 972 q 608 972 604 972 q 613 972 613 972 q 614 972 614 972 l 614 14 q 613 4 614 7 q 604 1 611 1 q 581 0 597 0 z "},"N":{"ha":653,"x_min":94,"x_max":558,"o":"m 528 0 l 346 400 q 329 438 346 400 q 285 535 313 475 q 228 661 258 594 q 172 788 199 728 q 128 885 144 847 q 111 922 111 922 l 99 949 l 108 972 l 125 972 l 303 579 q 319 542 303 579 q 363 447 336 506 q 418 324 389 389 q 474 201 447 260 q 517 106 500 143 q 533 69 533 69 l 554 24 l 544 0 l 528 0 m 94 0 l 94 958 q 108 972 94 972 l 128 958 l 128 929 q 128 888 128 929 q 128 781 128 846 q 128 643 128 717 q 128 505 128 569 q 128 399 128 440 q 128 357 128 357 l 128 14 q 126 4 128 7 q 118 1 125 1 q 94 0 111 0 m 544 0 l 525 14 l 525 51 q 525 93 525 51 q 525 200 525 135 q 525 338 525 265 q 525 476 525 411 q 525 583 525 542 q 525 625 525 625 l 525 958 q 526 968 525 965 q 535 972 528 971 q 558 972 542 972 l 558 14 q 544 0 558 0 z "},"Ń":{"ha":653,"x_min":94,"x_max":558,"o":"m 528 0 l 346 400 q 329 438 346 400 q 285 535 313 475 q 228 661 258 594 q 172 788 199 728 q 128 885 144 847 q 111 922 111 922 l 99 949 l 108 972 l 125 972 l 303 579 q 319 542 303 579 q 363 447 336 506 q 418 324 389 389 q 474 201 447 260 q 517 106 500 143 q 533 69 533 69 l 554 24 l 544 0 l 528 0 m 94 0 l 94 958 q 108 972 94 972 l 128 958 l 128 929 q 128 888 128 929 q 128 781 128 846 q 128 643 128 717 q 128 505 128 569 q 128 399 128 440 q 128 357 128 357 l 128 14 q 126 4 128 7 q 118 1 125 1 q 94 0 111 0 m 544 0 l 525 14 l 525 51 q 525 93 525 51 q 525 200 525 135 q 525 338 525 265 q 525 476 525 411 q 525 583 525 542 q 525 625 525 625 l 525 958 q 526 968 525 965 q 535 972 528 971 q 558 972 542 972 l 558 14 q 544 0 558 0 m 235 1082 q 231 1088 235 1082 q 224 1099 228 1093 q 221 1104 221 1104 q 290 1165 256 1136 q 352 1217 324 1194 q 397 1253 381 1240 q 414 1267 414 1267 q 427 1251 422 1267 q 432 1235 432 1235 q 416 1222 432 1235 q 373 1186 400 1208 q 310 1137 346 1164 q 235 1082 275 1110 z "},"Ň":{"ha":653,"x_min":94,"x_max":558,"o":"m 528 0 l 346 400 q 329 438 346 400 q 285 535 313 475 q 228 661 258 594 q 172 788 199 728 q 128 885 144 847 q 111 922 111 922 l 99 949 l 108 972 l 125 972 l 303 579 q 319 542 303 579 q 363 447 336 506 q 418 324 389 389 q 474 201 447 260 q 517 106 500 143 q 533 69 533 69 l 554 24 l 544 0 l 528 0 m 94 0 l 94 958 q 108 972 94 972 l 128 958 l 128 929 q 128 888 128 929 q 128 781 128 846 q 128 643 128 717 q 128 505 128 569 q 128 399 128 440 q 128 357 128 357 l 128 14 q 126 4 128 7 q 118 1 125 1 q 94 0 111 0 m 544 0 l 525 14 l 525 51 q 525 93 525 51 q 525 200 525 135 q 525 338 525 265 q 525 476 525 411 q 525 583 525 542 q 525 625 525 625 l 525 958 q 526 968 525 965 q 535 972 528 971 q 558 972 542 972 l 558 14 q 544 0 558 0 m 338 1092 q 313 1108 332 1092 q 269 1148 294 1124 q 221 1197 244 1172 q 182 1237 197 1221 q 167 1253 167 1253 q 174 1263 167 1253 q 190 1272 181 1272 q 209 1258 193 1272 q 247 1222 225 1243 q 288 1178 268 1200 q 322 1141 308 1156 q 336 1126 336 1126 q 397 1198 365 1163 q 449 1257 428 1233 q 469 1281 469 1281 q 481 1270 476 1275 q 486 1258 486 1265 q 472 1238 486 1256 q 438 1195 458 1219 q 397 1147 418 1171 q 358 1108 375 1124 q 338 1092 342 1092 z "},"Ņ":{"ha":653,"x_min":94,"x_max":558,"o":"m 528 0 l 346 400 q 329 438 346 400 q 285 535 313 475 q 228 661 258 594 q 172 788 199 728 q 128 885 144 847 q 111 922 111 922 l 99 949 l 108 972 l 125 972 l 303 579 q 319 542 303 579 q 363 447 336 506 q 418 324 389 389 q 474 201 447 260 q 517 106 500 143 q 533 69 533 69 l 554 24 l 544 0 l 528 0 m 94 0 l 94 958 q 108 972 94 972 l 128 958 l 128 929 q 128 888 128 929 q 128 781 128 846 q 128 643 128 717 q 128 505 128 569 q 128 399 128 440 q 128 357 128 357 l 128 14 q 126 4 128 7 q 118 1 125 1 q 94 0 111 0 m 544 0 l 525 14 l 525 51 q 525 93 525 51 q 525 200 525 135 q 525 338 525 265 q 525 476 525 411 q 525 583 525 542 q 525 625 525 625 l 525 958 q 526 968 525 965 q 535 972 528 971 q 558 972 542 972 l 558 14 q 544 0 558 0 z "},"Ñ":{"ha":653,"x_min":94,"x_max":558,"o":"m 528 0 l 346 400 q 329 438 346 400 q 285 535 313 475 q 228 661 258 594 q 172 788 199 728 q 128 885 144 847 q 111 922 111 922 l 99 949 l 108 972 l 125 972 l 303 579 q 319 542 303 579 q 363 447 336 506 q 418 324 389 389 q 474 201 447 260 q 517 106 500 143 q 533 69 533 69 l 554 24 l 544 0 l 528 0 m 94 0 l 94 958 q 108 972 94 972 l 128 958 l 128 929 q 128 888 128 929 q 128 781 128 846 q 128 643 128 717 q 128 505 128 569 q 128 399 128 440 q 128 357 128 357 l 128 14 q 126 4 128 7 q 118 1 125 1 q 94 0 111 0 m 544 0 l 525 14 l 525 51 q 525 93 525 51 q 525 200 525 135 q 525 338 525 265 q 525 476 525 411 q 525 583 525 542 q 525 625 525 625 l 525 958 q 526 968 525 965 q 535 972 528 971 q 558 972 542 972 l 558 14 q 544 0 558 0 m 393 1103 q 342 1115 361 1103 q 308 1144 322 1128 q 282 1172 294 1160 q 251 1185 269 1185 q 203 1167 222 1185 q 174 1130 185 1149 q 157 1111 164 1111 q 147 1116 153 1111 q 138 1126 142 1121 q 135 1131 135 1131 q 195 1199 167 1183 q 260 1214 224 1214 q 300 1202 285 1214 q 327 1176 315 1190 q 354 1149 339 1161 q 393 1138 369 1138 q 452 1156 432 1138 q 482 1192 472 1174 q 497 1210 492 1210 q 508 1205 504 1210 q 515 1194 513 1200 q 518 1189 518 1189 q 501 1160 511 1175 q 478 1131 492 1144 q 443 1110 464 1118 q 393 1103 422 1103 z "},"O":{"ha":647,"x_min":67,"x_max":581,"o":"m 319 -14 q 206 12 253 -14 q 127 97 158 38 q 81 253 96 156 q 67 493 67 350 q 96 778 67 669 q 185 936 125 886 q 335 986 244 986 q 449 960 401 986 q 525 875 496 933 q 567 723 554 817 q 581 493 581 629 q 553 199 581 310 q 469 37 526 88 q 319 -14 411 -14 m 318 19 q 449 65 399 19 q 523 216 499 111 q 547 497 547 321 q 525 769 547 669 q 456 910 503 868 q 333 953 408 953 q 203 907 256 953 q 126 757 151 861 q 100 476 100 653 q 123 208 100 308 q 194 64 146 108 q 318 19 243 19 z "},"Ó":{"ha":647,"x_min":67,"x_max":581,"o":"m 319 -14 q 206 12 253 -14 q 127 97 158 38 q 81 253 96 156 q 67 493 67 350 q 96 778 67 669 q 185 936 125 886 q 335 986 244 986 q 449 960 401 986 q 525 875 496 933 q 567 723 554 817 q 581 493 581 629 q 553 199 581 310 q 469 37 526 88 q 319 -14 411 -14 m 318 19 q 449 65 399 19 q 523 216 499 111 q 547 497 547 321 q 525 769 547 669 q 456 910 503 868 q 333 953 408 953 q 203 907 256 953 q 126 757 151 861 q 100 476 100 653 q 123 208 100 308 q 194 64 146 108 q 318 19 243 19 m 232 1082 q 228 1088 232 1082 q 222 1099 225 1093 q 218 1104 218 1104 q 287 1165 253 1136 q 349 1217 321 1194 q 394 1253 378 1240 q 411 1267 411 1267 q 424 1251 419 1267 q 429 1235 429 1235 q 413 1222 429 1235 q 370 1186 397 1208 q 308 1137 343 1164 q 232 1082 272 1110 z "},"Ô":{"ha":647,"x_min":67,"x_max":581,"o":"m 319 -14 q 206 12 253 -14 q 127 97 158 38 q 81 253 96 156 q 67 493 67 350 q 96 778 67 669 q 185 936 125 886 q 335 986 244 986 q 449 960 401 986 q 525 875 496 933 q 567 723 554 817 q 581 493 581 629 q 553 199 581 310 q 469 37 526 88 q 319 -14 411 -14 m 318 19 q 449 65 399 19 q 523 216 499 111 q 547 497 547 321 q 525 769 547 669 q 456 910 503 868 q 333 953 408 953 q 203 907 256 953 q 126 757 151 861 q 100 476 100 653 q 123 208 100 308 q 194 64 146 108 q 318 19 243 19 m 451 1083 q 433 1103 451 1083 q 390 1149 414 1124 q 347 1195 365 1175 q 328 1215 328 1215 q 308 1196 328 1215 q 263 1150 289 1176 q 216 1104 238 1124 q 192 1085 194 1085 q 172 1094 178 1085 q 165 1103 165 1103 l 318 1246 q 329 1249 321 1249 q 338 1247 333 1249 q 349 1239 343 1244 q 369 1219 349 1239 q 415 1172 389 1199 q 462 1126 442 1146 q 482 1106 482 1106 q 473 1094 482 1106 q 451 1083 464 1083 z "},"Ố":{"ha":647,"x_min":67,"x_max":686,"o":"m 319 -14 q 206 12 253 -14 q 127 97 158 38 q 81 253 96 156 q 67 493 67 350 q 96 778 67 669 q 185 936 125 886 q 335 986 244 986 q 449 960 401 986 q 525 875 496 933 q 567 723 554 817 q 581 493 581 629 q 553 199 581 310 q 469 37 526 88 q 319 -14 411 -14 m 318 19 q 449 65 399 19 q 523 216 499 111 q 547 497 547 321 q 525 769 547 669 q 456 910 503 868 q 333 953 408 953 q 203 907 256 953 q 126 757 151 861 q 100 476 100 653 q 123 208 100 308 q 194 64 146 108 q 318 19 243 19 m 451 1083 q 433 1103 451 1083 q 390 1149 414 1124 q 347 1195 365 1175 q 328 1215 328 1215 q 308 1196 328 1215 q 263 1150 289 1176 q 216 1104 238 1124 q 192 1085 194 1085 q 172 1094 178 1085 q 165 1103 165 1103 l 318 1246 q 329 1249 321 1249 q 349 1239 339 1249 q 369 1219 349 1239 q 415 1172 389 1199 q 462 1126 442 1146 q 482 1106 482 1106 q 473 1094 482 1106 q 451 1083 464 1083 m 489 1200 q 485 1206 489 1200 q 478 1217 482 1211 q 475 1222 475 1222 q 544 1283 510 1254 q 606 1335 578 1313 q 651 1372 635 1358 q 668 1385 668 1385 q 681 1369 676 1385 q 686 1353 686 1353 q 670 1340 686 1353 q 627 1304 654 1326 q 565 1255 600 1282 q 489 1200 529 1228 z "},"Ộ":{"ha":647,"x_min":67,"x_max":581,"o":"m 319 -14 q 206 12 253 -14 q 127 97 158 38 q 81 253 96 156 q 67 493 67 350 q 96 778 67 669 q 185 936 125 886 q 335 986 244 986 q 449 960 401 986 q 525 875 496 933 q 567 723 554 817 q 581 493 581 629 q 553 199 581 310 q 469 37 526 88 q 319 -14 411 -14 m 318 19 q 449 65 399 19 q 523 216 499 111 q 547 497 547 321 q 525 769 547 669 q 456 910 503 868 q 333 953 408 953 q 203 907 256 953 q 126 757 151 861 q 100 476 100 653 q 123 208 100 308 q 194 64 146 108 q 318 19 243 19 m 451 1083 q 433 1103 451 1083 q 390 1149 414 1124 q 347 1195 365 1175 q 328 1215 328 1215 q 308 1196 328 1215 q 263 1150 289 1176 q 216 1104 238 1124 q 192 1085 194 1085 q 172 1094 178 1085 q 165 1103 165 1103 l 318 1246 q 329 1249 321 1249 q 338 1247 333 1249 q 349 1239 343 1244 q 369 1219 349 1239 q 415 1172 389 1199 q 462 1126 442 1146 q 482 1106 482 1106 q 473 1094 482 1106 q 451 1083 464 1083 z "},"Ồ":{"ha":647,"x_min":67,"x_max":581,"o":"m 319 -14 q 206 12 253 -14 q 127 97 158 38 q 81 253 96 156 q 67 493 67 350 q 96 778 67 669 q 185 936 125 886 q 335 986 244 986 q 449 960 401 986 q 525 875 496 933 q 567 723 554 817 q 581 493 581 629 q 553 199 581 310 q 469 37 526 88 q 319 -14 411 -14 m 318 19 q 449 65 399 19 q 523 216 499 111 q 547 497 547 321 q 525 769 547 669 q 456 910 503 868 q 333 953 408 953 q 203 907 256 953 q 126 757 151 861 q 100 476 100 653 q 123 208 100 308 q 194 64 146 108 q 318 19 243 19 m 451 1083 q 433 1103 451 1083 q 390 1149 414 1124 q 347 1195 365 1175 q 328 1215 328 1215 q 308 1196 328 1215 q 263 1150 289 1176 q 216 1104 238 1124 q 192 1085 194 1085 q 172 1094 178 1085 q 165 1103 165 1103 l 318 1246 q 329 1249 321 1249 q 349 1239 339 1249 q 369 1219 349 1239 q 415 1172 389 1199 q 462 1126 442 1146 q 482 1106 482 1106 q 473 1094 482 1106 q 451 1083 464 1083 m 450 1251 q 375 1306 411 1279 q 312 1356 339 1333 q 269 1391 285 1378 q 253 1404 253 1404 q 258 1420 253 1404 q 271 1436 263 1436 q 288 1423 271 1436 q 333 1387 304 1410 q 395 1335 361 1364 q 464 1274 429 1306 q 460 1268 464 1274 q 453 1257 457 1263 q 450 1251 450 1251 z "},"Ổ":{"ha":647,"x_min":67,"x_max":581,"o":"m 319 -14 q 206 12 253 -14 q 127 97 158 38 q 81 253 96 156 q 67 493 67 350 q 96 778 67 669 q 185 936 125 886 q 335 986 244 986 q 449 960 401 986 q 525 875 496 933 q 567 723 554 817 q 581 493 581 629 q 553 199 581 310 q 469 37 526 88 q 319 -14 411 -14 m 318 19 q 449 65 399 19 q 523 216 499 111 q 547 497 547 321 q 525 769 547 669 q 456 910 503 868 q 333 953 408 953 q 203 907 256 953 q 126 757 151 861 q 100 476 100 653 q 123 208 100 308 q 194 64 146 108 q 318 19 243 19 m 451 1083 q 433 1103 451 1083 q 390 1149 414 1124 q 347 1195 365 1175 q 328 1215 328 1215 q 308 1196 328 1215 q 263 1150 289 1176 q 216 1104 238 1124 q 192 1085 194 1085 q 172 1094 178 1085 q 165 1103 165 1103 l 318 1246 q 329 1249 321 1249 q 349 1239 339 1249 q 369 1219 349 1239 q 415 1172 389 1199 q 462 1126 442 1146 q 482 1106 482 1106 q 473 1094 482 1106 q 451 1083 464 1083 m 469 1214 q 468 1225 469 1214 q 472 1249 467 1236 q 494 1272 481 1265 q 517 1289 507 1279 q 526 1324 526 1299 q 516 1364 526 1351 q 492 1379 506 1376 q 471 1382 479 1382 q 417 1365 440 1382 q 417 1372 417 1365 q 417 1388 417 1379 q 417 1399 417 1396 q 432 1411 417 1404 q 469 1418 447 1418 q 520 1409 499 1418 q 553 1379 542 1400 q 565 1324 565 1358 q 554 1282 565 1297 q 528 1258 543 1267 q 506 1243 514 1250 q 497 1226 499 1238 q 496 1215 496 1215 q 490 1213 496 1214 q 478 1213 483 1213 q 469 1214 472 1214 z "},"Ỗ":{"ha":647,"x_min":67,"x_max":581,"o":"m 319 -14 q 206 12 253 -14 q 127 97 158 38 q 81 253 96 156 q 67 493 67 350 q 96 778 67 669 q 185 936 125 886 q 335 986 244 986 q 449 960 401 986 q 525 875 496 933 q 567 723 554 817 q 581 493 581 629 q 553 199 581 310 q 469 37 526 88 q 319 -14 411 -14 m 318 19 q 449 65 399 19 q 523 216 499 111 q 547 497 547 321 q 525 769 547 669 q 456 910 503 868 q 333 953 408 953 q 203 907 256 953 q 126 757 151 861 q 100 476 100 653 q 123 208 100 308 q 194 64 146 108 q 318 19 243 19 m 451 1083 q 433 1103 451 1083 q 390 1149 414 1124 q 347 1195 365 1175 q 328 1215 328 1215 q 308 1196 328 1215 q 263 1150 289 1176 q 216 1104 238 1124 q 192 1085 194 1085 q 172 1094 178 1085 q 165 1103 165 1103 l 318 1246 q 329 1249 321 1249 q 349 1239 339 1249 q 369 1219 349 1239 q 415 1172 389 1199 q 462 1126 442 1146 q 482 1106 482 1106 q 473 1094 482 1106 q 451 1083 464 1083 m 411 1283 q 360 1296 379 1283 q 326 1324 340 1308 q 300 1353 313 1340 q 269 1365 288 1365 q 222 1347 240 1365 q 192 1310 203 1329 q 175 1292 182 1292 q 165 1297 171 1292 q 156 1306 160 1301 q 153 1311 153 1311 q 213 1379 185 1364 q 278 1394 242 1394 q 318 1383 303 1394 q 345 1356 333 1371 q 372 1330 357 1342 q 411 1318 388 1318 q 470 1336 450 1318 q 500 1372 490 1354 q 515 1390 510 1390 q 526 1385 522 1390 q 533 1375 531 1381 q 536 1369 536 1369 q 519 1340 529 1356 q 496 1312 510 1325 q 461 1291 482 1299 q 411 1283 440 1283 z "},"Ö":{"ha":647,"x_min":67,"x_max":581,"o":"m 319 -14 q 206 12 253 -14 q 127 97 158 38 q 81 253 96 156 q 67 493 67 350 q 96 778 67 669 q 185 936 125 886 q 335 986 244 986 q 449 960 401 986 q 525 875 496 933 q 567 723 554 817 q 581 493 581 629 q 553 199 581 310 q 469 37 526 88 q 319 -14 411 -14 m 318 19 q 449 65 399 19 q 523 216 499 111 q 547 497 547 321 q 525 769 547 669 q 456 910 503 868 q 333 953 408 953 q 203 907 256 953 q 126 757 151 861 q 100 476 100 653 q 123 208 100 308 q 194 64 146 108 q 318 19 243 19 m 253 1131 q 233 1142 239 1132 q 229 1169 228 1151 q 237 1199 231 1189 q 256 1208 243 1208 q 276 1197 269 1208 q 281 1167 282 1186 q 274 1140 279 1149 q 253 1131 268 1131 m 392 1131 q 372 1142 378 1132 q 368 1169 367 1151 q 376 1199 369 1189 q 394 1208 382 1208 q 415 1197 408 1208 q 419 1167 421 1186 q 413 1140 418 1149 q 392 1131 407 1131 z "},"Ọ":{"ha":647,"x_min":67,"x_max":581,"o":"m 319 -14 q 206 12 253 -14 q 127 97 158 38 q 81 253 96 156 q 67 493 67 350 q 96 778 67 669 q 185 936 125 886 q 335 986 244 986 q 449 960 401 986 q 525 875 496 933 q 567 723 554 817 q 581 493 581 629 q 553 199 581 310 q 469 37 526 88 q 319 -14 411 -14 m 318 19 q 449 65 399 19 q 523 216 499 111 q 547 497 547 321 q 525 769 547 669 q 456 910 503 868 q 333 953 408 953 q 203 907 256 953 q 126 757 151 861 q 100 476 100 653 q 123 208 100 308 q 194 64 146 108 q 318 19 243 19 z "},"Ò":{"ha":647,"x_min":67,"x_max":581,"o":"m 319 -14 q 206 12 253 -14 q 127 97 158 38 q 81 253 96 156 q 67 493 67 350 q 96 778 67 669 q 185 936 125 886 q 335 986 244 986 q 449 960 401 986 q 525 875 496 933 q 567 723 554 817 q 581 493 581 629 q 553 199 581 310 q 469 37 526 88 q 319 -14 411 -14 m 318 19 q 449 65 399 19 q 523 216 499 111 q 547 497 547 321 q 525 769 547 669 q 456 910 503 868 q 333 953 408 953 q 203 907 256 953 q 126 757 151 861 q 100 476 100 653 q 123 208 100 308 q 194 64 146 108 q 318 19 243 19 m 415 1082 q 340 1137 376 1110 q 277 1186 304 1164 q 234 1222 250 1208 q 218 1235 218 1235 q 223 1251 218 1235 q 236 1267 228 1267 q 253 1253 236 1267 q 298 1217 269 1240 q 360 1165 326 1194 q 429 1104 394 1136 q 426 1099 429 1104 q 419 1088 422 1093 q 415 1082 415 1082 z "},"Ỏ":{"ha":647,"x_min":67,"x_max":581,"o":"m 319 -14 q 206 12 253 -14 q 127 97 158 38 q 81 253 96 156 q 67 493 67 350 q 96 778 67 669 q 185 936 125 886 q 335 986 244 986 q 449 960 401 986 q 525 875 496 933 q 567 723 554 817 q 581 493 581 629 q 553 199 581 310 q 469 37 526 88 q 319 -14 411 -14 m 318 19 q 449 65 399 19 q 523 216 499 111 q 547 497 547 321 q 525 769 547 669 q 456 910 503 868 q 333 953 408 953 q 203 907 256 953 q 126 757 151 861 q 100 476 100 653 q 123 208 100 308 q 194 64 146 108 q 318 19 243 19 m 301 1049 q 300 1060 301 1049 q 304 1083 299 1071 q 326 1107 313 1100 q 349 1124 339 1114 q 358 1158 358 1133 q 348 1199 358 1186 q 324 1214 338 1211 q 303 1217 311 1217 q 249 1200 272 1217 q 249 1204 249 1200 q 249 1215 249 1208 q 249 1226 249 1221 q 249 1233 249 1232 q 264 1246 249 1239 q 301 1253 279 1253 q 352 1244 331 1253 q 385 1214 374 1235 q 397 1158 397 1193 q 386 1117 397 1132 q 360 1093 375 1101 q 338 1078 346 1085 q 329 1061 331 1072 q 328 1050 328 1050 q 322 1048 328 1049 q 310 1048 315 1047 q 301 1049 304 1049 z "},"Ơ":{"ha":647,"x_min":67,"x_max":581,"o":"m 319 -14 q 206 12 253 -14 q 127 97 158 38 q 81 253 96 156 q 67 493 67 350 q 96 778 67 669 q 185 936 125 886 q 335 986 244 986 q 449 960 401 986 q 525 875 496 933 q 567 723 554 817 q 581 493 581 629 q 553 199 581 310 q 469 37 526 88 q 319 -14 411 -14 m 318 19 q 449 65 399 19 q 523 216 499 111 q 547 497 547 321 q 525 769 547 669 q 456 910 503 868 q 333 953 408 953 q 203 907 256 953 q 126 757 151 861 q 100 476 100 653 q 123 208 100 308 q 194 64 146 108 q 318 19 243 19 m 418 938 l 419 971 q 495 997 478 971 q 513 1064 513 1022 q 518 1074 513 1071 q 530 1076 524 1076 q 542 1070 536 1075 q 547 1058 547 1065 q 542 1015 549 1036 q 522 976 536 993 q 481 948 507 958 q 418 938 456 938 z "},"Ớ":{"ha":647,"x_min":67,"x_max":581,"o":"m 319 -14 q 206 12 253 -14 q 127 97 158 38 q 81 253 96 156 q 67 493 67 350 q 96 778 67 669 q 185 936 125 886 q 335 986 244 986 q 449 960 401 986 q 525 875 496 933 q 567 723 554 817 q 581 493 581 629 q 553 199 581 310 q 469 37 526 88 q 319 -14 411 -14 m 318 19 q 449 65 399 19 q 523 216 499 111 q 547 497 547 321 q 525 769 547 669 q 456 910 503 868 q 333 953 408 953 q 203 907 256 953 q 126 757 151 861 q 100 476 100 653 q 123 208 100 308 q 194 64 146 108 q 318 19 243 19 m 418 938 l 419 971 q 495 997 478 971 q 513 1064 513 1022 q 518 1074 513 1071 q 530 1076 524 1076 q 542 1070 536 1075 q 547 1058 547 1065 q 542 1015 549 1036 q 522 976 536 993 q 481 948 507 958 q 418 938 456 938 z "},"Ợ":{"ha":647,"x_min":67,"x_max":581,"o":"m 319 -14 q 206 12 253 -14 q 127 97 158 38 q 81 253 96 156 q 67 493 67 350 q 96 778 67 669 q 185 936 125 886 q 335 986 244 986 q 449 960 401 986 q 525 875 496 933 q 567 723 554 817 q 581 493 581 629 q 553 199 581 310 q 469 37 526 88 q 319 -14 411 -14 m 318 19 q 449 65 399 19 q 523 216 499 111 q 547 497 547 321 q 525 769 547 669 q 456 910 503 868 q 333 953 408 953 q 203 907 256 953 q 126 757 151 861 q 100 476 100 653 q 123 208 100 308 q 194 64 146 108 q 318 19 243 19 m 418 938 l 419 971 q 495 997 478 971 q 513 1064 513 1022 q 518 1074 513 1071 q 530 1076 524 1076 q 542 1070 536 1075 q 547 1058 547 1065 q 542 1015 549 1036 q 522 976 536 993 q 481 948 507 958 q 418 938 456 938 z "},"Ờ":{"ha":647,"x_min":67,"x_max":581,"o":"m 319 -14 q 206 12 253 -14 q 127 97 158 38 q 81 253 96 156 q 67 493 67 350 q 96 778 67 669 q 185 936 125 886 q 335 986 244 986 q 449 960 401 986 q 525 875 496 933 q 567 723 554 817 q 581 493 581 629 q 553 199 581 310 q 469 37 526 88 q 319 -14 411 -14 m 318 19 q 449 65 399 19 q 523 216 499 111 q 547 497 547 321 q 525 769 547 669 q 456 910 503 868 q 333 953 408 953 q 203 907 256 953 q 126 757 151 861 q 100 476 100 653 q 123 208 100 308 q 194 64 146 108 q 318 19 243 19 m 418 938 l 419 971 q 495 997 478 971 q 513 1064 513 1022 q 518 1074 513 1071 q 530 1076 524 1076 q 542 1070 536 1075 q 547 1058 547 1065 q 542 1015 549 1036 q 522 976 536 993 q 481 948 507 958 q 418 938 456 938 z "},"Ở":{"ha":647,"x_min":67,"x_max":581,"o":"m 319 -14 q 206 12 253 -14 q 127 97 158 38 q 81 253 96 156 q 67 493 67 350 q 96 778 67 669 q 185 936 125 886 q 335 986 244 986 q 449 960 401 986 q 525 875 496 933 q 567 723 554 817 q 581 493 581 629 q 553 199 581 310 q 469 37 526 88 q 319 -14 411 -14 m 318 19 q 449 65 399 19 q 523 216 499 111 q 547 497 547 321 q 525 769 547 669 q 456 910 503 868 q 333 953 408 953 q 203 907 256 953 q 126 757 151 861 q 100 476 100 653 q 123 208 100 308 q 194 64 146 108 q 318 19 243 19 m 418 938 l 419 971 q 495 997 478 971 q 513 1064 513 1022 q 518 1074 513 1071 q 530 1076 524 1076 q 542 1070 536 1075 q 547 1058 547 1065 q 542 1015 549 1036 q 522 976 536 993 q 481 948 507 958 q 418 938 456 938 m 301 1049 q 300 1060 301 1049 q 304 1083 299 1071 q 326 1107 313 1100 q 349 1124 339 1114 q 358 1158 358 1133 q 348 1199 358 1186 q 324 1214 338 1211 q 303 1217 311 1217 q 249 1200 272 1217 q 249 1204 249 1200 q 249 1215 249 1208 q 249 1226 249 1221 q 249 1233 249 1232 q 264 1246 249 1239 q 301 1253 279 1253 q 352 1244 331 1253 q 385 1214 374 1235 q 397 1158 397 1193 q 386 1117 397 1132 q 360 1093 375 1101 q 338 1078 346 1085 q 329 1061 331 1072 q 328 1050 328 1050 q 322 1048 328 1049 q 310 1048 315 1047 q 301 1049 304 1049 z "},"Ỡ":{"ha":647,"x_min":67,"x_max":581,"o":"m 319 -14 q 206 12 253 -14 q 127 97 158 38 q 81 253 96 156 q 67 493 67 350 q 96 778 67 669 q 185 936 125 886 q 335 986 244 986 q 449 960 401 986 q 525 875 496 933 q 567 723 554 817 q 581 493 581 629 q 553 199 581 310 q 469 37 526 88 q 319 -14 411 -14 m 318 19 q 449 65 399 19 q 523 216 499 111 q 547 497 547 321 q 525 769 547 669 q 456 910 503 868 q 333 953 408 953 q 203 907 256 953 q 126 757 151 861 q 100 476 100 653 q 123 208 100 308 q 194 64 146 108 q 318 19 243 19 m 418 938 l 419 971 q 495 997 478 971 q 513 1064 513 1022 q 518 1074 513 1071 q 530 1076 524 1076 q 542 1070 536 1075 q 547 1058 547 1065 q 542 1015 549 1036 q 522 976 536 993 q 481 948 507 958 q 418 938 456 938 m 390 1103 q 339 1115 358 1103 q 306 1144 319 1128 q 279 1172 292 1160 q 249 1185 267 1185 q 201 1167 219 1185 q 172 1130 182 1149 q 154 1111 161 1111 q 144 1116 150 1111 q 135 1126 139 1121 q 132 1131 132 1131 q 192 1199 164 1183 q 257 1214 221 1214 q 297 1202 282 1214 q 324 1176 313 1190 q 351 1149 336 1161 q 390 1138 367 1138 q 449 1156 429 1138 q 479 1192 469 1174 q 494 1210 489 1210 q 506 1205 501 1210 q 513 1194 510 1200 q 515 1189 515 1189 q 499 1160 508 1175 q 475 1131 489 1144 q 440 1110 461 1118 q 390 1103 419 1103 z "},"Ő":{"ha":647,"x_min":67,"x_max":581,"o":"m 319 -14 q 206 12 253 -14 q 127 97 158 38 q 81 253 96 156 q 67 493 67 350 q 96 778 67 669 q 185 936 125 886 q 335 986 244 986 q 449 960 401 986 q 525 875 496 933 q 567 723 554 817 q 581 493 581 629 q 553 199 581 310 q 469 37 526 88 q 319 -14 411 -14 m 318 19 q 449 65 399 19 q 523 216 499 111 q 547 497 547 321 q 525 769 547 669 q 456 910 503 868 q 333 953 408 953 q 203 907 256 953 q 126 757 151 861 q 100 476 100 653 q 123 208 100 308 q 194 64 146 108 q 318 19 243 19 m 225 1079 q 221 1084 225 1079 q 212 1093 217 1089 q 207 1097 207 1097 q 255 1165 231 1132 q 299 1223 279 1197 q 332 1263 319 1249 q 344 1278 344 1278 q 360 1266 353 1281 q 368 1251 368 1251 q 357 1237 368 1251 q 326 1197 346 1222 q 281 1142 307 1172 q 225 1079 254 1111 m 364 1079 q 360 1084 364 1079 q 351 1093 356 1089 q 346 1097 346 1097 q 394 1165 369 1132 q 438 1223 418 1197 q 471 1263 458 1249 q 483 1278 483 1278 q 499 1266 492 1281 q 507 1251 507 1251 q 496 1237 507 1251 q 465 1197 485 1222 q 419 1142 446 1172 q 364 1079 393 1111 z "},"Ō":{"ha":647,"x_min":67,"x_max":581,"o":"m 319 -14 q 206 12 253 -14 q 127 97 158 38 q 81 253 96 156 q 67 493 67 350 q 96 778 67 669 q 185 936 125 886 q 335 986 244 986 q 449 960 401 986 q 525 875 496 933 q 567 723 554 817 q 581 493 581 629 q 553 199 581 310 q 469 37 526 88 q 319 -14 411 -14 m 318 19 q 449 65 399 19 q 523 216 499 111 q 547 497 547 321 q 525 769 547 669 q 456 910 503 868 q 333 953 408 953 q 203 907 256 953 q 126 757 151 861 q 100 476 100 653 q 123 208 100 308 q 194 64 146 108 q 318 19 243 19 m 157 1143 q 156 1153 156 1149 q 156 1161 156 1157 q 160 1174 157 1169 q 171 1178 164 1178 l 490 1178 q 492 1168 492 1172 q 492 1160 492 1164 q 487 1147 490 1151 q 476 1143 483 1143 l 157 1143 z "},"Ø":{"ha":647,"x_min":67,"x_max":581,"o":"m 332 986 q 476 938 422 986 q 556 782 531 890 q 581 493 581 674 q 553 199 581 310 q 469 37 526 88 q 319 -14 411 -14 q 206 12 253 -14 q 127 97 158 38 q 81 253 96 156 q 67 493 67 350 q 95 778 67 669 q 183 936 124 886 q 332 986 242 986 m 333 953 q 203 907 256 953 q 126 757 151 861 q 100 476 100 653 q 123 208 100 308 q 194 64 146 108 q 318 19 243 19 q 422 44 378 19 q 493 126 465 69 q 534 274 521 182 q 547 497 547 365 q 525 769 547 669 q 456 910 503 868 q 333 953 408 953 m 140 83 q 147 83 140 83 q 159 79 153 82 q 167 69 165 76 q 161 56 167 69 q 147 23 156 42 q 133 -10 139 4 q 128 -24 128 -24 q 116 -23 128 -24 q 101 -10 104 -22 q 107 4 101 -10 q 121 37 113 18 q 135 69 129 56 q 140 83 140 83 m 144 83 l 476 911 q 483 910 476 911 q 495 907 489 910 q 503 897 501 904 q 485 852 503 897 q 437 733 467 807 q 372 572 407 660 q 302 395 338 483 q 237 233 267 307 q 189 115 207 160 q 171 69 171 69 q 165 69 171 69 q 152 72 158 69 q 144 83 146 75 m 506 894 q 502 894 506 894 q 494 895 499 894 q 485 899 489 896 q 479 908 481 903 q 483 917 479 908 q 492 940 486 926 q 503 967 497 954 q 512 990 508 981 q 515 999 515 999 q 522 998 515 999 q 534 994 528 997 q 542 985 540 992 q 538 976 542 985 q 529 953 535 967 q 518 926 524 940 q 509 903 513 913 q 506 894 506 894 z "},"Õ":{"ha":647,"x_min":67,"x_max":581,"o":"m 319 -14 q 206 12 253 -14 q 127 97 158 38 q 81 253 96 156 q 67 493 67 350 q 96 778 67 669 q 185 936 125 886 q 335 986 244 986 q 449 960 401 986 q 525 875 496 933 q 567 723 554 817 q 581 493 581 629 q 553 199 581 310 q 469 37 526 88 q 319 -14 411 -14 m 318 19 q 449 65 399 19 q 523 216 499 111 q 547 497 547 321 q 525 769 547 669 q 456 910 503 868 q 333 953 408 953 q 203 907 256 953 q 126 757 151 861 q 100 476 100 653 q 123 208 100 308 q 194 64 146 108 q 318 19 243 19 m 390 1103 q 339 1115 358 1103 q 306 1144 319 1128 q 279 1172 292 1160 q 249 1185 267 1185 q 201 1167 219 1185 q 172 1130 182 1149 q 154 1111 161 1111 q 144 1116 150 1111 q 135 1126 139 1121 q 132 1131 132 1131 q 192 1199 164 1183 q 257 1214 221 1214 q 297 1202 282 1214 q 324 1176 313 1190 q 351 1149 336 1161 q 390 1138 367 1138 q 449 1156 429 1138 q 479 1192 469 1174 q 494 1210 489 1210 q 506 1205 501 1210 q 513 1194 510 1200 q 515 1189 515 1189 q 499 1160 508 1175 q 475 1131 489 1144 q 440 1110 461 1118 q 390 1103 419 1103 z "},"Œ":{"ha":931,"x_min":67,"x_max":882,"o":"m 319 -14 q 206 12 253 -14 q 127 97 158 38 q 81 253 96 156 q 67 493 67 350 q 95 778 67 669 q 183 936 124 886 q 332 986 242 986 q 473 938 422 986 q 545 782 524 890 q 567 493 567 674 q 543 199 567 310 q 465 37 519 88 q 319 -14 411 -14 m 318 19 q 445 65 399 19 q 513 216 492 111 q 533 497 533 321 q 515 769 533 669 q 452 910 496 868 q 333 953 408 953 q 203 907 256 953 q 126 757 151 861 q 100 476 100 653 q 123 208 100 308 q 194 64 146 108 q 318 19 243 19 m 533 0 l 533 958 q 535 965 533 958 q 547 972 538 972 l 879 972 q 879 951 879 958 q 877 942 879 944 q 871 939 875 939 l 567 939 l 567 33 l 882 33 q 881 12 882 19 q 878 2 881 4 q 871 0 876 0 l 533 0 m 556 517 l 556 550 l 851 550 q 850 523 851 529 q 840 517 849 517 l 556 517 z "},"P":{"ha":529,"x_min":94,"x_max":488,"o":"m 119 431 q 106 435 101 431 q 111 446 111 440 l 111 950 q 111 966 111 960 q 113 972 111 972 l 260 972 q 397 935 347 972 q 467 841 447 899 q 488 719 488 783 q 472 595 488 649 q 426 505 457 542 q 351 449 396 468 q 249 431 307 431 l 119 431 m 94 0 l 94 958 q 99 969 94 965 q 108 972 103 972 l 114 972 q 126 965 125 972 q 128 958 128 958 l 128 14 q 126 4 128 7 q 118 1 125 1 q 94 0 111 0 m 119 464 l 247 464 q 365 496 319 464 q 432 585 410 528 q 454 719 454 643 q 437 828 454 778 q 376 908 419 878 q 253 939 332 939 l 119 939 l 119 464 z "},"Þ":{"ha":529,"x_min":94,"x_max":488,"o":"m 94 0 l 94 961 q 101 971 94 969 q 118 972 108 972 l 128 972 l 128 776 l 260 776 q 397 740 347 776 q 467 645 447 703 q 488 524 488 588 q 472 399 488 453 q 426 309 457 346 q 351 253 396 272 q 249 235 307 235 l 128 235 l 128 14 q 126 4 128 7 q 118 1 125 1 q 94 0 111 0 m 247 268 q 365 300 319 268 q 432 390 410 332 q 454 524 454 447 q 437 632 454 582 q 376 713 419 682 q 253 743 332 743 q 191 743 222 743 q 128 743 160 743 l 128 268 q 188 268 158 268 q 247 268 217 268 z "},"Q":{"ha":647,"x_min":67,"x_max":581,"o":"m 443 -179 q 360 -138 390 -179 q 313 1 329 -97 l 347 1 q 385 -118 363 -87 q 447 -149 408 -149 q 503 -142 481 -149 q 540 -125 525 -135 q 547 -135 544 -129 q 549 -146 549 -140 q 534 -162 549 -154 q 495 -174 519 -169 q 443 -179 471 -179 m 319 -14 q 206 12 253 -14 q 127 97 158 38 q 81 253 96 156 q 67 493 67 350 q 96 778 67 669 q 185 936 125 886 q 335 986 244 986 q 449 960 401 986 q 525 875 496 933 q 567 723 554 817 q 581 493 581 629 q 553 199 581 310 q 469 37 526 88 q 319 -14 411 -14 m 318 19 q 449 65 399 19 q 523 216 499 111 q 547 497 547 321 q 525 769 547 669 q 456 910 503 868 q 333 953 408 953 q 203 907 256 953 q 126 757 151 861 q 100 476 100 653 q 123 208 100 308 q 194 64 146 108 q 318 19 243 19 z "},"R":{"ha":535,"x_min":94,"x_max":488,"o":"m 119 431 q 106 435 101 431 q 111 446 111 440 l 111 950 q 111 966 111 960 q 113 972 111 972 l 260 972 q 397 935 347 972 q 467 841 447 899 q 488 719 488 783 q 472 595 488 649 q 426 505 457 542 q 351 449 396 468 q 249 431 307 431 l 119 431 m 94 0 l 94 958 q 97 965 94 958 q 108 972 99 972 l 114 972 q 126 965 125 972 q 128 958 128 958 l 128 14 q 126 4 128 7 q 118 1 125 1 q 94 0 111 0 m 458 0 q 451 0 456 0 q 440 0 447 0 q 397 198 424 115 q 342 333 369 281 q 297 411 315 386 q 278 436 278 436 q 276 442 278 436 q 283 453 275 449 l 294 458 q 308 451 303 458 q 328 422 308 451 q 378 337 349 393 q 433 200 407 281 q 472 17 460 119 q 471 4 474 7 q 458 0 468 1 m 119 464 l 247 464 q 365 496 319 464 q 432 585 410 528 q 454 719 454 643 q 437 828 454 778 q 376 908 419 878 q 253 939 332 939 l 119 939 l 119 464 z "},"Ŕ":{"ha":535,"x_min":94,"x_max":488,"o":"m 119 431 q 106 435 101 431 q 111 446 111 440 l 111 950 q 111 966 111 960 q 113 972 111 972 l 260 972 q 397 935 347 972 q 467 841 447 899 q 488 719 488 783 q 472 595 488 649 q 426 505 457 542 q 351 449 396 468 q 249 431 307 431 l 119 431 m 94 0 l 94 958 q 97 965 94 958 q 108 972 99 972 l 114 972 q 126 965 125 972 q 128 958 128 958 l 128 14 q 126 4 128 7 q 118 1 125 1 q 94 0 111 0 m 458 0 q 451 0 456 0 q 440 0 447 0 q 397 198 424 115 q 342 333 369 281 q 297 411 315 386 q 278 436 278 436 q 276 442 278 436 q 283 453 275 449 l 294 458 q 308 451 303 458 q 328 422 308 451 q 378 337 349 393 q 433 200 407 281 q 472 17 460 119 q 471 4 474 7 q 458 0 468 1 m 119 464 l 247 464 q 365 496 319 464 q 432 585 410 528 q 454 719 454 643 q 437 828 454 778 q 376 908 419 878 q 253 939 332 939 l 119 939 l 119 464 m 149 1082 q 145 1088 149 1082 q 138 1099 142 1093 q 135 1104 135 1104 q 203 1165 169 1136 q 266 1217 238 1194 q 311 1253 294 1240 q 328 1267 328 1267 q 341 1251 336 1267 q 346 1235 346 1235 q 330 1222 346 1235 q 287 1186 314 1208 q 224 1137 260 1164 q 149 1082 189 1110 z "},"Ř":{"ha":535,"x_min":81,"x_max":488,"o":"m 119 431 q 106 435 101 431 q 111 446 111 440 l 111 950 q 111 966 111 960 q 113 972 111 972 l 260 972 q 397 935 347 972 q 467 841 447 899 q 488 719 488 783 q 472 595 488 649 q 426 505 457 542 q 351 449 396 468 q 249 431 307 431 l 119 431 m 94 0 l 94 958 q 97 965 94 958 q 108 972 99 972 l 114 972 q 126 965 125 972 q 128 958 128 958 l 128 14 q 126 4 128 7 q 118 1 125 1 q 94 0 111 0 m 458 0 q 451 0 456 0 q 440 0 447 0 q 397 198 424 115 q 342 333 369 281 q 297 411 315 386 q 278 436 278 436 q 276 442 278 436 q 283 453 275 449 l 294 458 q 308 451 303 458 q 328 422 308 451 q 378 337 349 393 q 433 200 407 281 q 472 17 460 119 q 471 4 474 7 q 458 0 468 1 m 119 464 l 247 464 q 365 496 319 464 q 432 585 410 528 q 454 719 454 643 q 437 828 454 778 q 376 908 419 878 q 253 939 332 939 l 119 939 l 119 464 m 251 1092 q 227 1108 246 1092 q 183 1148 208 1124 q 135 1197 158 1172 q 96 1237 111 1221 q 81 1253 81 1253 q 88 1263 81 1253 q 104 1272 94 1272 q 123 1258 107 1272 q 160 1222 139 1243 q 202 1178 182 1200 q 236 1141 222 1156 q 250 1126 250 1126 q 310 1198 279 1163 q 363 1257 342 1233 q 383 1281 383 1281 q 395 1270 390 1275 q 400 1258 400 1265 q 386 1238 400 1256 q 352 1195 372 1219 q 310 1147 332 1171 q 272 1108 289 1124 q 251 1092 256 1092 z "},"Ŗ":{"ha":535,"x_min":94,"x_max":488,"o":"m 119 431 q 106 435 101 431 q 111 446 111 440 l 111 950 q 111 966 111 960 q 113 972 111 972 l 260 972 q 397 935 347 972 q 467 841 447 899 q 488 719 488 783 q 472 595 488 649 q 426 505 457 542 q 351 449 396 468 q 249 431 307 431 l 119 431 m 94 0 l 94 958 q 97 965 94 958 q 108 972 99 972 l 114 972 q 126 965 125 972 q 128 958 128 958 l 128 14 q 126 4 128 7 q 118 1 125 1 q 94 0 111 0 m 458 0 q 451 0 456 0 q 440 0 447 0 q 397 198 424 115 q 342 333 369 281 q 297 411 315 386 q 278 436 278 436 q 276 442 278 436 q 283 453 275 449 l 294 458 q 308 451 303 458 q 328 422 308 451 q 378 337 349 393 q 433 200 407 281 q 472 17 460 119 q 471 4 474 7 q 458 0 468 1 m 119 464 l 247 464 q 365 496 319 464 q 432 585 410 528 q 454 719 454 643 q 437 828 454 778 q 376 908 419 878 q 253 939 332 939 l 119 939 l 119 464 z "},"S":{"ha":532,"x_min":58,"x_max":479,"o":"m 242 -14 q 101 11 144 -14 q 58 50 58 36 q 63 63 58 57 q 75 72 67 69 q 135 35 97 51 q 244 19 172 19 q 399 77 351 19 q 446 224 446 135 q 421 349 446 294 q 331 468 396 404 l 168 618 q 92 710 121 665 q 64 811 64 756 q 124 937 64 888 q 289 986 183 986 q 416 967 375 986 q 457 933 457 949 q 453 921 457 928 q 444 910 450 914 q 385 940 426 925 q 281 954 344 954 q 148 915 199 954 q 97 813 97 875 q 124 725 97 764 q 188 649 150 686 l 369 478 q 456 360 432 415 q 479 231 479 304 q 453 103 479 158 q 376 17 428 47 q 242 -14 324 -14 z "},"Ś":{"ha":532,"x_min":58,"x_max":479,"o":"m 242 -14 q 101 11 144 -14 q 58 50 58 36 q 63 63 58 57 q 75 72 67 69 q 135 35 97 51 q 244 19 172 19 q 399 77 351 19 q 446 224 446 135 q 421 349 446 294 q 331 468 396 404 l 168 618 q 92 710 121 665 q 64 811 64 756 q 124 937 64 888 q 289 986 183 986 q 416 967 375 986 q 457 933 457 949 q 453 921 457 928 q 444 910 450 914 q 385 940 426 925 q 281 954 344 954 q 148 915 199 954 q 97 813 97 875 q 124 725 97 764 q 188 649 150 686 l 369 478 q 456 360 432 415 q 479 231 479 304 q 453 103 479 158 q 376 17 428 47 q 242 -14 324 -14 m 175 1082 q 172 1088 175 1082 q 165 1099 168 1093 q 161 1104 161 1104 q 230 1165 196 1136 q 292 1217 264 1194 q 338 1253 321 1240 q 354 1267 354 1267 q 367 1251 363 1267 q 372 1235 372 1235 q 356 1222 372 1235 q 313 1186 340 1208 q 251 1137 286 1164 q 175 1082 215 1110 z "},"Š":{"ha":532,"x_min":58,"x_max":479,"o":"m 242 -14 q 101 11 144 -14 q 58 50 58 36 q 63 63 58 57 q 75 72 67 69 q 135 35 97 51 q 244 19 172 19 q 399 77 351 19 q 446 224 446 135 q 421 349 446 294 q 331 468 396 404 l 168 618 q 92 710 121 665 q 64 811 64 756 q 124 937 64 888 q 289 986 183 986 q 416 967 375 986 q 457 933 457 949 q 453 921 457 928 q 444 910 450 914 q 385 940 426 925 q 281 954 344 954 q 148 915 199 954 q 97 813 97 875 q 124 725 97 764 q 188 649 150 686 l 369 478 q 456 360 432 415 q 479 231 479 304 q 453 103 479 158 q 376 17 428 47 q 242 -14 324 -14 m 278 1092 q 253 1108 272 1092 q 210 1148 235 1124 q 161 1197 185 1172 q 122 1237 138 1221 q 107 1253 107 1253 q 114 1263 107 1253 q 131 1272 121 1272 q 149 1258 133 1272 q 187 1222 165 1243 q 228 1178 208 1200 q 263 1141 249 1156 q 276 1126 276 1126 q 337 1198 306 1163 q 389 1257 368 1233 q 410 1281 410 1281 q 422 1270 417 1275 q 426 1258 426 1265 q 413 1238 426 1256 q 378 1195 399 1219 q 337 1147 358 1171 q 299 1108 315 1124 q 278 1092 282 1092 z "},"Ş":{"ha":532,"x_min":58,"x_max":479,"o":"m 242 -14 q 101 11 144 -14 q 58 50 58 36 q 63 63 58 57 q 75 72 67 69 q 135 35 97 51 q 244 19 172 19 q 399 77 351 19 q 446 224 446 135 q 421 349 446 294 q 331 468 396 404 l 168 618 q 92 710 121 665 q 64 811 64 756 q 124 937 64 888 q 289 986 183 986 q 416 967 375 986 q 457 933 457 949 q 453 921 457 928 q 444 910 450 914 q 385 940 426 925 q 281 954 344 954 q 148 915 199 954 q 97 813 97 875 q 124 725 97 764 q 188 649 150 686 l 369 478 q 456 360 432 415 q 479 231 479 304 q 453 103 479 158 q 376 17 428 47 q 242 -14 324 -14 m 271 -246 q 224 -242 244 -246 q 203 -237 203 -237 q 203 -231 203 -237 q 206 -217 204 -225 q 213 -206 208 -210 q 235 -206 219 -199 q 271 -214 251 -214 q 307 -203 290 -214 q 324 -161 324 -192 q 308 -119 324 -128 q 272 -111 292 -111 q 240 -115 256 -111 q 224 -118 224 -118 l 250 4 l 285 4 l 265 -85 q 272 -83 265 -85 q 292 -82 279 -82 q 336 -98 315 -82 q 357 -153 357 -114 q 343 -212 357 -192 q 309 -239 329 -232 q 271 -246 289 -246 z "},"Ș":{"ha":532,"x_min":58,"x_max":479,"o":"m 242 -14 q 101 11 144 -14 q 58 50 58 36 q 63 63 58 57 q 75 72 67 69 q 135 35 97 51 q 244 19 172 19 q 399 77 351 19 q 446 224 446 135 q 421 349 446 294 q 331 468 396 404 l 168 618 q 92 710 121 665 q 64 811 64 756 q 124 937 64 888 q 289 986 183 986 q 416 967 375 986 q 457 933 457 949 q 453 921 457 928 q 444 910 450 914 q 385 940 426 925 q 281 954 344 954 q 148 915 199 954 q 97 813 97 875 q 124 725 97 764 q 188 649 150 686 l 369 478 q 456 360 432 415 q 479 231 479 304 q 453 103 479 158 q 376 17 428 47 q 242 -14 324 -14 z "},"T":{"ha":500,"x_min":7,"x_max":493,"o":"m 231 0 l 231 949 q 233 956 231 949 q 244 963 235 963 l 250 963 q 263 956 261 963 q 264 949 264 949 l 264 13 q 263 4 264 7 q 254 1 261 1 q 231 0 247 0 m 7 939 l 7 958 q 21 972 7 972 l 493 972 l 493 953 q 490 943 493 947 q 479 939 488 939 l 7 939 z "},"Ť":{"ha":500,"x_min":7,"x_max":493,"o":"m 231 0 l 231 949 q 233 956 231 949 q 244 963 235 963 l 250 963 q 263 956 261 963 q 264 949 264 949 l 264 13 q 263 4 264 7 q 254 1 261 1 q 231 0 247 0 m 7 939 l 7 958 q 21 972 7 972 l 493 972 l 493 953 q 490 943 493 947 q 479 939 488 939 l 7 939 m 261 1092 q 237 1108 256 1092 q 193 1148 218 1124 q 144 1197 168 1172 q 106 1237 121 1221 q 90 1253 90 1253 q 97 1263 90 1253 q 114 1272 104 1272 q 133 1258 117 1272 q 170 1222 149 1243 q 212 1178 192 1200 q 246 1141 232 1156 q 260 1126 260 1126 q 320 1198 289 1163 q 372 1257 351 1233 q 393 1281 393 1281 q 405 1270 400 1275 q 410 1258 410 1265 q 396 1238 410 1256 q 362 1195 382 1219 q 320 1147 342 1171 q 282 1108 299 1124 q 261 1092 265 1092 z "},"Ţ":{"ha":500,"x_min":7,"x_max":493,"o":"m 231 0 l 231 949 q 233 956 231 949 q 244 963 235 963 l 250 963 q 263 956 261 963 q 264 949 264 949 l 264 13 q 263 4 264 7 q 254 1 261 1 q 231 0 247 0 m 7 939 l 7 958 q 21 972 7 972 l 493 972 l 493 953 q 490 943 493 947 q 479 939 488 939 l 7 939 m 251 -246 q 204 -242 225 -246 q 183 -237 183 -237 q 184 -231 183 -237 q 187 -217 185 -225 q 193 -206 189 -210 q 216 -206 200 -199 q 251 -214 232 -214 q 288 -203 271 -214 q 304 -161 304 -192 q 288 -119 304 -128 q 253 -111 272 -111 q 220 -115 236 -111 q 204 -118 204 -118 l 231 4 l 265 4 l 246 -85 q 253 -83 246 -85 q 272 -82 260 -82 q 317 -98 296 -82 q 338 -153 338 -114 q 324 -212 338 -192 q 290 -239 310 -232 q 251 -246 269 -246 z "},"Ț":{"ha":500,"x_min":7,"x_max":493,"o":"m 231 0 l 231 949 q 233 956 231 949 q 244 963 235 963 l 250 963 q 263 956 261 963 q 264 949 264 949 l 264 13 q 263 4 264 7 q 254 1 261 1 q 231 0 247 0 m 7 939 l 7 958 q 21 972 7 972 l 493 972 l 493 953 q 490 943 493 947 q 479 939 488 939 l 7 939 z "},"U":{"ha":672,"x_min":94,"x_max":578,"o":"m 347 -14 q 209 13 260 -14 q 134 85 158 39 q 102 191 110 132 q 94 315 94 250 l 94 958 q 96 968 94 965 q 104 972 97 971 q 128 972 111 972 l 128 315 q 134 205 128 258 q 163 110 140 151 q 228 44 185 68 q 347 19 272 19 q 463 32 407 19 q 544 57 519 44 l 544 960 q 547 969 544 967 q 556 972 549 971 q 578 972 564 972 l 578 32 q 483 0 550 14 q 347 -14 417 -14 z "},"Ú":{"ha":672,"x_min":94,"x_max":578,"o":"m 347 -14 q 209 13 260 -14 q 134 85 158 39 q 102 191 110 132 q 94 315 94 250 l 94 958 q 96 968 94 965 q 104 972 97 971 q 128 972 111 972 l 128 315 q 134 205 128 258 q 163 110 140 151 q 228 44 185 68 q 347 19 272 19 q 463 32 407 19 q 544 57 519 44 l 544 960 q 547 969 544 967 q 556 972 549 971 q 578 972 564 972 l 578 32 q 483 0 550 14 q 347 -14 417 -14 m 244 1082 q 241 1088 244 1082 q 234 1099 238 1093 q 231 1104 231 1104 q 299 1165 265 1136 q 362 1217 333 1194 q 407 1253 390 1240 q 424 1267 424 1267 q 437 1251 432 1267 q 442 1235 442 1235 q 426 1222 442 1235 q 383 1186 410 1208 q 320 1137 356 1164 q 244 1082 285 1110 z "},"Û":{"ha":672,"x_min":94,"x_max":578,"o":"m 347 -14 q 209 13 260 -14 q 134 85 158 39 q 102 191 110 132 q 94 315 94 250 l 94 958 q 96 968 94 965 q 104 972 97 971 q 128 972 111 972 l 128 315 q 134 205 128 258 q 163 110 140 151 q 228 44 185 68 q 347 19 272 19 q 463 32 407 19 q 544 57 519 44 l 544 960 q 547 969 544 967 q 556 972 549 971 q 578 972 564 972 l 578 32 q 483 0 550 14 q 347 -14 417 -14 m 464 1083 q 445 1103 464 1083 q 402 1149 426 1124 q 359 1195 378 1175 q 340 1215 340 1215 q 321 1196 340 1215 q 276 1150 301 1176 q 228 1104 250 1124 q 204 1085 207 1085 q 184 1094 190 1085 q 178 1103 178 1103 l 331 1246 q 342 1249 333 1249 q 351 1247 346 1249 q 361 1239 356 1244 q 381 1219 361 1239 q 428 1172 401 1199 q 474 1126 454 1146 q 494 1106 494 1106 q 485 1094 494 1106 q 464 1083 476 1083 z "},"Ü":{"ha":672,"x_min":94,"x_max":578,"o":"m 347 -14 q 209 13 260 -14 q 134 85 158 39 q 102 191 110 132 q 94 315 94 250 l 94 958 q 96 968 94 965 q 104 972 97 971 q 128 972 111 972 l 128 315 q 134 205 128 258 q 163 110 140 151 q 228 44 185 68 q 347 19 272 19 q 463 32 407 19 q 544 57 519 44 l 544 960 q 547 969 544 967 q 556 972 549 971 q 578 972 564 972 l 578 32 q 483 0 550 14 q 347 -14 417 -14 m 265 1131 q 246 1142 251 1132 q 242 1169 240 1151 q 249 1199 243 1189 q 268 1208 256 1208 q 288 1197 282 1208 q 293 1167 294 1186 q 286 1140 292 1149 q 265 1131 281 1131 m 404 1131 q 385 1142 390 1132 q 381 1169 379 1151 q 388 1199 382 1189 q 407 1208 394 1208 q 427 1197 421 1208 q 432 1167 433 1186 q 425 1140 431 1149 q 404 1131 419 1131 z "},"Ụ":{"ha":672,"x_min":94,"x_max":578,"o":"m 347 -14 q 209 13 260 -14 q 134 85 158 39 q 102 191 110 132 q 94 315 94 250 l 94 958 q 96 968 94 965 q 104 972 97 971 q 128 972 111 972 l 128 315 q 134 205 128 258 q 163 110 140 151 q 228 44 185 68 q 347 19 272 19 q 463 32 407 19 q 544 57 519 44 l 544 960 q 547 969 544 967 q 556 972 549 971 q 578 972 564 972 l 578 32 q 483 0 550 14 q 347 -14 417 -14 z "},"Ù":{"ha":672,"x_min":94,"x_max":578,"o":"m 347 -14 q 209 13 260 -14 q 134 85 158 39 q 102 191 110 132 q 94 315 94 250 l 94 958 q 96 968 94 965 q 104 972 97 971 q 128 972 111 972 l 128 315 q 134 205 128 258 q 163 110 140 151 q 228 44 185 68 q 347 19 272 19 q 463 32 407 19 q 544 57 519 44 l 544 960 q 547 969 544 967 q 556 972 549 971 q 578 972 564 972 l 578 32 q 483 0 550 14 q 347 -14 417 -14 m 428 1082 q 353 1137 389 1110 q 290 1186 317 1164 q 247 1222 263 1208 q 231 1235 231 1235 q 235 1251 231 1235 q 249 1267 240 1267 q 265 1253 249 1267 q 310 1217 282 1240 q 373 1165 339 1194 q 442 1104 407 1136 q 438 1099 442 1104 q 431 1088 435 1093 q 428 1082 428 1082 z "},"Ủ":{"ha":672,"x_min":94,"x_max":578,"o":"m 347 -14 q 209 13 260 -14 q 134 85 158 39 q 102 191 110 132 q 94 315 94 250 l 94 958 q 96 968 94 965 q 104 972 97 971 q 128 972 111 972 l 128 315 q 134 205 128 258 q 163 110 140 151 q 228 44 185 68 q 347 19 272 19 q 463 32 407 19 q 544 57 519 44 l 544 960 q 547 969 544 967 q 556 972 549 971 q 578 972 564 972 l 578 32 q 483 0 550 14 q 347 -14 417 -14 m 314 1049 q 313 1060 314 1049 q 317 1083 311 1071 q 338 1107 325 1100 q 361 1124 351 1114 q 371 1158 371 1133 q 360 1199 371 1186 q 337 1214 350 1211 q 315 1217 324 1217 q 261 1200 285 1217 q 261 1204 261 1200 q 261 1215 261 1208 q 261 1226 261 1221 q 261 1233 261 1232 q 276 1246 261 1239 q 314 1253 292 1253 q 365 1244 343 1253 q 398 1214 386 1235 q 410 1158 410 1193 q 399 1117 410 1132 q 373 1093 388 1101 q 350 1078 358 1085 q 342 1061 343 1072 q 340 1050 340 1050 q 334 1048 340 1049 q 322 1048 328 1047 q 314 1049 317 1049 z "},"Ư":{"ha":672,"x_min":94,"x_max":681,"o":"m 347 -14 q 209 13 260 -14 q 134 85 158 39 q 102 191 110 132 q 94 315 94 250 l 94 958 q 96 968 94 965 q 104 972 97 971 q 128 972 111 972 l 128 315 q 134 205 128 258 q 163 110 140 151 q 228 44 185 68 q 347 19 272 19 q 463 32 407 19 q 544 57 519 44 l 544 960 q 547 969 544 967 q 556 972 549 971 q 578 972 564 972 l 578 32 q 483 0 550 14 q 347 -14 417 -14 m 550 938 l 551 971 q 627 997 610 971 q 644 1064 644 1022 q 650 1074 644 1071 q 662 1076 656 1076 q 674 1070 668 1075 q 679 1058 679 1065 q 674 1015 681 1036 q 653 976 668 993 q 613 948 639 958 q 550 938 588 938 z "},"Ứ":{"ha":672,"x_min":94,"x_max":681,"o":"m 347 -14 q 209 13 260 -14 q 134 85 158 39 q 102 191 110 132 q 94 315 94 250 l 94 958 q 96 968 94 965 q 104 972 97 971 q 128 972 111 972 l 128 315 q 134 205 128 258 q 163 110 140 151 q 228 44 185 68 q 347 19 272 19 q 463 32 407 19 q 544 57 519 44 l 544 960 q 547 969 544 967 q 556 972 549 971 q 578 972 564 972 l 578 32 q 483 0 550 14 q 347 -14 417 -14 m 550 938 l 551 971 q 627 997 610 971 q 644 1064 644 1022 q 650 1074 644 1071 q 662 1076 656 1076 q 674 1070 668 1075 q 679 1058 679 1065 q 674 1015 681 1036 q 653 976 668 993 q 613 948 639 958 q 550 938 588 938 z "},"Ự":{"ha":672,"x_min":94,"x_max":681,"o":"m 347 -14 q 209 13 260 -14 q 134 85 158 39 q 102 191 110 132 q 94 315 94 250 l 94 958 q 96 968 94 965 q 104 972 97 971 q 128 972 111 972 l 128 315 q 134 205 128 258 q 163 110 140 151 q 228 44 185 68 q 347 19 272 19 q 463 32 407 19 q 544 57 519 44 l 544 960 q 547 969 544 967 q 556 972 549 971 q 578 972 564 972 l 578 32 q 483 0 550 14 q 347 -14 417 -14 m 550 938 l 551 971 q 627 997 610 971 q 644 1064 644 1022 q 650 1074 644 1071 q 662 1076 656 1076 q 674 1070 668 1075 q 679 1058 679 1065 q 674 1015 681 1036 q 653 976 668 993 q 613 948 639 958 q 550 938 588 938 z "},"Ừ":{"ha":672,"x_min":94,"x_max":681,"o":"m 347 -14 q 209 13 260 -14 q 134 85 158 39 q 102 191 110 132 q 94 315 94 250 l 94 958 q 96 968 94 965 q 104 972 97 971 q 128 972 111 972 l 128 315 q 134 205 128 258 q 163 110 140 151 q 228 44 185 68 q 347 19 272 19 q 463 32 407 19 q 544 57 519 44 l 544 960 q 547 969 544 967 q 556 972 549 971 q 578 972 564 972 l 578 32 q 483 0 550 14 q 347 -14 417 -14 m 550 938 l 551 971 q 627 997 610 971 q 644 1064 644 1022 q 650 1074 644 1071 q 662 1076 656 1076 q 674 1070 668 1075 q 679 1058 679 1065 q 674 1015 681 1036 q 653 976 668 993 q 613 948 639 958 q 550 938 588 938 z "},"Ử":{"ha":672,"x_min":94,"x_max":681,"o":"m 347 -14 q 209 13 260 -14 q 134 85 158 39 q 102 191 110 132 q 94 315 94 250 l 94 958 q 96 968 94 965 q 104 972 97 971 q 128 972 111 972 l 128 315 q 134 205 128 258 q 163 110 140 151 q 228 44 185 68 q 347 19 272 19 q 463 32 407 19 q 544 57 519 44 l 544 960 q 547 969 544 967 q 556 972 549 971 q 578 972 564 972 l 578 32 q 483 0 550 14 q 347 -14 417 -14 m 550 938 l 551 971 q 627 997 610 971 q 644 1064 644 1022 q 650 1074 644 1071 q 662 1076 656 1076 q 674 1070 668 1075 q 679 1058 679 1065 q 674 1015 681 1036 q 653 976 668 993 q 613 948 639 958 q 550 938 588 938 m 314 1049 q 313 1060 314 1049 q 317 1083 311 1071 q 338 1107 325 1100 q 361 1124 351 1114 q 371 1158 371 1133 q 360 1199 371 1186 q 337 1214 350 1211 q 315 1217 324 1217 q 261 1200 285 1217 q 261 1204 261 1200 q 261 1215 261 1208 q 261 1226 261 1221 q 261 1233 261 1232 q 276 1246 261 1239 q 314 1253 292 1253 q 365 1244 343 1253 q 398 1214 386 1235 q 410 1158 410 1193 q 399 1117 410 1132 q 373 1093 388 1101 q 350 1078 358 1085 q 342 1061 343 1072 q 340 1050 340 1050 q 334 1048 340 1049 q 322 1048 328 1047 q 314 1049 317 1049 z "},"Ữ":{"ha":672,"x_min":94,"x_max":681,"o":"m 347 -14 q 209 13 260 -14 q 134 85 158 39 q 102 191 110 132 q 94 315 94 250 l 94 958 q 96 968 94 965 q 104 972 97 971 q 128 972 111 972 l 128 315 q 134 205 128 258 q 163 110 140 151 q 228 44 185 68 q 347 19 272 19 q 463 32 407 19 q 544 57 519 44 l 544 960 q 547 969 544 967 q 556 972 549 971 q 578 972 564 972 l 578 32 q 483 0 550 14 q 347 -14 417 -14 m 550 938 l 551 971 q 627 997 610 971 q 644 1064 644 1022 q 650 1074 644 1071 q 662 1076 656 1076 q 674 1070 668 1075 q 679 1058 679 1065 q 674 1015 681 1036 q 653 976 668 993 q 613 948 639 958 q 550 938 588 938 m 403 1103 q 351 1115 371 1103 q 318 1144 332 1128 q 292 1172 304 1160 q 261 1185 279 1185 q 213 1167 232 1185 q 184 1130 194 1149 q 167 1111 174 1111 q 157 1116 163 1111 q 148 1126 151 1121 q 144 1131 144 1131 q 205 1199 176 1183 q 269 1214 233 1214 q 310 1202 294 1214 q 337 1176 325 1190 q 364 1149 349 1161 q 403 1138 379 1138 q 462 1156 442 1138 q 492 1192 482 1174 q 507 1210 501 1210 q 518 1205 514 1210 q 525 1194 522 1200 q 528 1189 528 1189 q 511 1160 521 1175 q 488 1131 501 1144 q 453 1110 474 1118 q 403 1103 432 1103 z "},"Ű":{"ha":672,"x_min":94,"x_max":578,"o":"m 347 -14 q 209 13 260 -14 q 134 85 158 39 q 102 191 110 132 q 94 315 94 250 l 94 958 q 96 968 94 965 q 104 972 97 971 q 128 972 111 972 l 128 315 q 134 205 128 258 q 163 110 140 151 q 228 44 185 68 q 347 19 272 19 q 463 32 407 19 q 544 57 519 44 l 544 960 q 547 969 544 967 q 556 972 549 971 q 578 972 564 972 l 578 32 q 483 0 550 14 q 347 -14 417 -14 m 238 1079 q 233 1084 238 1079 q 224 1093 229 1089 q 219 1097 219 1097 q 267 1165 243 1132 q 312 1223 292 1197 q 344 1263 332 1249 q 357 1278 357 1278 q 373 1266 365 1281 q 381 1251 381 1251 q 369 1237 381 1251 q 339 1197 358 1222 q 293 1142 319 1172 q 238 1079 267 1111 m 376 1079 q 372 1084 376 1079 q 363 1093 368 1089 q 358 1097 358 1097 q 406 1165 382 1132 q 451 1223 431 1197 q 483 1263 471 1249 q 496 1278 496 1278 q 512 1266 504 1281 q 519 1251 519 1251 q 508 1237 519 1251 q 478 1197 497 1222 q 432 1142 458 1172 q 376 1079 406 1111 z "},"Ū":{"ha":672,"x_min":94,"x_max":578,"o":"m 347 -14 q 209 13 260 -14 q 134 85 158 39 q 102 191 110 132 q 94 315 94 250 l 94 958 q 96 968 94 965 q 104 972 97 971 q 128 972 111 972 l 128 315 q 134 205 128 258 q 163 110 140 151 q 228 44 185 68 q 347 19 272 19 q 463 32 407 19 q 544 57 519 44 l 544 960 q 547 969 544 967 q 556 972 549 971 q 578 972 564 972 l 578 32 q 483 0 550 14 q 347 -14 417 -14 m 169 1143 q 168 1153 168 1149 q 168 1161 168 1157 q 173 1174 169 1169 q 183 1178 176 1178 l 503 1178 q 504 1168 504 1172 q 504 1160 504 1164 q 499 1147 503 1151 q 489 1143 496 1143 l 169 1143 z "},"Ų":{"ha":672,"x_min":94,"x_max":578,"o":"m 515 -271 q 444 -243 469 -271 q 418 -164 418 -215 q 443 -76 418 -124 q 499 4 468 -29 q 427 -9 468 -4 q 347 -14 386 -14 q 209 13 260 -14 q 134 85 158 39 q 102 191 110 132 q 94 315 94 250 l 94 958 q 96 968 94 965 q 104 972 97 971 q 128 972 111 972 l 128 315 q 134 205 128 258 q 163 110 140 151 q 228 44 185 68 q 347 19 272 19 q 463 31 407 19 q 544 56 519 43 l 544 960 q 547 969 544 967 q 556 972 549 971 q 578 972 564 972 l 578 32 q 518 -20 547 14 q 470 -92 489 -54 q 451 -164 451 -131 q 517 -239 451 -239 q 543 -235 532 -239 q 564 -225 554 -231 q 569 -235 567 -231 q 572 -247 572 -240 q 556 -265 572 -258 q 515 -271 539 -271 z "},"Ů":{"ha":672,"x_min":94,"x_max":578,"o":"m 347 -14 q 209 13 260 -14 q 134 85 158 39 q 102 191 110 132 q 94 315 94 250 l 94 958 q 96 968 94 965 q 104 972 97 971 q 128 972 111 972 l 128 315 q 134 205 128 258 q 163 110 140 151 q 228 44 185 68 q 347 19 272 19 q 463 32 407 19 q 544 57 519 44 l 544 960 q 547 969 544 967 q 556 972 549 971 q 578 972 564 972 l 578 32 q 483 0 550 14 q 347 -14 417 -14 m 332 1065 q 253 1091 283 1065 q 222 1181 222 1117 q 255 1269 222 1240 q 342 1297 288 1297 q 423 1272 396 1297 q 450 1181 450 1246 q 419 1095 450 1125 q 332 1065 388 1065 m 332 1099 q 394 1119 372 1099 q 417 1182 417 1139 q 398 1247 417 1229 q 343 1264 379 1264 q 278 1245 301 1264 q 256 1176 256 1226 q 275 1119 256 1140 q 332 1099 294 1099 z "},"Ũ":{"ha":672,"x_min":94,"x_max":578,"o":"m 347 -14 q 209 13 260 -14 q 134 85 158 39 q 102 191 110 132 q 94 315 94 250 l 94 958 q 96 968 94 965 q 104 972 97 971 q 128 972 111 972 l 128 315 q 134 205 128 258 q 163 110 140 151 q 228 44 185 68 q 347 19 272 19 q 463 32 407 19 q 544 57 519 44 l 544 960 q 547 969 544 967 q 556 972 549 971 q 578 972 564 972 l 578 32 q 483 0 550 14 q 347 -14 417 -14 m 403 1103 q 351 1115 371 1103 q 318 1144 332 1128 q 292 1172 304 1160 q 261 1185 279 1185 q 213 1167 232 1185 q 184 1130 194 1149 q 167 1111 174 1111 q 157 1116 163 1111 q 148 1126 151 1121 q 144 1131 144 1131 q 205 1199 176 1183 q 269 1214 233 1214 q 310 1202 294 1214 q 337 1176 325 1190 q 364 1149 349 1161 q 403 1138 379 1138 q 462 1156 442 1138 q 492 1192 482 1174 q 507 1210 501 1210 q 518 1205 514 1210 q 525 1194 522 1200 q 528 1189 528 1189 q 511 1160 521 1175 q 488 1131 501 1144 q 453 1110 474 1118 q 403 1103 432 1103 z "},"V":{"ha":585,"x_min":7,"x_max":579,"o":"m 293 -14 q 281 8 288 -14 q 264 67 275 29 q 222 214 247 126 q 169 401 197 301 q 112 599 140 501 q 60 776 83 696 q 24 905 38 857 q 10 953 10 953 q 7 967 7 961 q 15 972 7 972 l 38 972 l 238 279 q 263 191 253 231 q 283 115 274 151 q 300 38 292 79 q 317 115 308 79 q 335 191 325 151 q 358 279 346 231 l 542 953 q 547 967 544 961 q 556 972 549 972 l 579 972 l 311 -12 q 306 -13 311 -12 q 293 -14 301 -14 z "},"W":{"ha":874,"x_min":7,"x_max":869,"o":"m 639 -15 q 631 3 636 -15 q 619 47 626 21 l 475 658 q 471 680 475 658 q 460 733 467 701 q 448 794 454 764 q 438 847 442 825 q 433 868 433 868 l 425 897 q 422 911 422 906 q 431 917 422 917 l 454 917 l 603 278 q 622 194 615 228 q 633 131 628 161 q 646 60 639 101 l 649 60 q 665 160 657 104 q 688 278 674 215 l 832 953 q 837 967 835 961 q 846 972 839 972 l 869 972 l 657 -12 q 655 -13 657 -12 q 649 -15 653 -14 q 639 -15 646 -15 m 235 -14 q 225 8 231 -14 q 211 69 219 31 q 178 218 199 131 q 135 406 158 306 q 90 602 113 506 q 49 778 68 699 q 19 905 31 857 q 8 953 8 953 q 7 965 7 958 q 14 972 7 972 l 38 972 l 197 278 q 215 194 208 228 q 228 129 222 160 q 242 57 235 99 l 244 57 q 261 168 251 118 q 283 278 271 218 l 415 897 q 420 911 418 906 q 429 917 422 917 l 442 917 q 451 910 451 917 q 449 897 451 904 l 439 868 q 435 847 439 868 q 425 796 431 826 q 414 734 419 765 q 404 682 408 703 q 400 661 400 661 l 254 -12 q 249 -13 254 -12 q 235 -14 243 -14 z "},"Ẃ":{"ha":874,"x_min":7,"x_max":869,"o":"m 639 -15 q 631 3 636 -15 q 619 47 626 21 l 475 658 q 471 680 475 658 q 460 733 467 701 q 448 794 454 764 q 438 847 442 825 q 433 868 433 868 l 425 897 q 422 911 422 906 q 431 917 422 917 l 454 917 l 603 278 q 622 194 615 228 q 633 131 628 161 q 646 60 639 101 l 649 60 q 665 160 657 104 q 688 278 674 215 l 832 953 q 837 967 835 961 q 846 972 839 972 l 869 972 l 657 -12 q 655 -13 657 -12 q 649 -15 653 -14 q 639 -15 646 -15 m 235 -14 q 225 8 231 -14 q 211 69 219 31 q 178 218 199 131 q 135 406 158 306 q 90 602 113 506 q 49 778 68 699 q 19 905 31 857 q 8 953 8 953 q 7 965 7 958 q 14 972 7 972 l 38 972 l 197 278 q 215 194 208 228 q 228 129 222 160 q 242 57 235 99 l 244 57 q 261 168 251 118 q 283 278 271 218 l 415 897 q 420 911 418 906 q 429 917 422 917 l 442 917 q 451 910 451 917 q 449 897 451 904 l 439 868 q 435 847 439 868 q 425 796 431 826 q 414 734 419 765 q 404 682 408 703 q 400 661 400 661 l 254 -12 q 249 -13 254 -12 q 235 -14 243 -14 m 346 1082 q 342 1088 346 1082 q 335 1099 339 1093 q 332 1104 332 1104 q 401 1165 367 1136 q 463 1217 435 1194 q 508 1253 492 1240 q 525 1267 525 1267 q 538 1251 533 1267 q 543 1235 543 1235 q 527 1222 543 1235 q 484 1186 511 1208 q 422 1137 457 1164 q 346 1082 386 1110 z "},"Ŵ":{"ha":874,"x_min":7,"x_max":869,"o":"m 639 -15 q 631 3 636 -15 q 619 47 626 21 l 475 658 q 471 680 475 658 q 460 733 467 701 q 448 794 454 764 q 438 847 442 825 q 433 868 433 868 l 425 897 q 422 911 422 906 q 431 917 422 917 l 454 917 l 603 278 q 622 194 615 228 q 633 131 628 161 q 646 60 639 101 l 649 60 q 665 160 657 104 q 688 278 674 215 l 832 953 q 837 967 835 961 q 846 972 839 972 l 869 972 l 657 -12 q 655 -13 657 -12 q 649 -15 653 -14 q 639 -15 646 -15 m 235 -14 q 225 8 231 -14 q 211 69 219 31 q 178 218 199 131 q 135 406 158 306 q 90 602 113 506 q 49 778 68 699 q 19 905 31 857 q 8 953 8 953 q 7 965 7 958 q 14 972 7 972 l 38 972 l 197 278 q 215 194 208 228 q 228 129 222 160 q 242 57 235 99 l 244 57 q 261 168 251 118 q 283 278 271 218 l 415 897 q 420 911 418 906 q 429 917 422 917 l 442 917 q 451 910 451 917 q 449 897 451 904 l 439 868 q 435 847 439 868 q 425 796 431 826 q 414 734 419 765 q 404 682 408 703 q 400 661 400 661 l 254 -12 q 249 -13 254 -12 q 235 -14 243 -14 m 565 1083 q 547 1103 565 1083 q 503 1149 528 1124 q 460 1195 479 1175 q 442 1215 442 1215 q 422 1196 442 1215 q 377 1150 403 1176 q 330 1104 351 1124 q 306 1085 308 1085 q 285 1094 292 1085 q 279 1103 279 1103 l 432 1246 q 443 1249 435 1249 q 452 1247 447 1249 q 463 1239 457 1244 q 483 1219 463 1239 q 529 1172 503 1199 q 576 1126 556 1146 q 596 1106 596 1106 q 587 1094 596 1106 q 565 1083 578 1083 z "},"Ẅ":{"ha":874,"x_min":7,"x_max":869,"o":"m 639 -15 q 631 3 636 -15 q 619 47 626 21 l 475 658 q 471 680 475 658 q 460 733 467 701 q 448 794 454 764 q 438 847 442 825 q 433 868 433 868 l 425 897 q 422 911 422 906 q 431 917 422 917 l 454 917 l 603 278 q 622 194 615 228 q 633 131 628 161 q 646 60 639 101 l 649 60 q 665 160 657 104 q 688 278 674 215 l 832 953 q 837 967 835 961 q 846 972 839 972 l 869 972 l 657 -12 q 655 -13 657 -12 q 649 -15 653 -14 q 639 -15 646 -15 m 235 -14 q 225 8 231 -14 q 211 69 219 31 q 178 218 199 131 q 135 406 158 306 q 90 602 113 506 q 49 778 68 699 q 19 905 31 857 q 8 953 8 953 q 7 965 7 958 q 14 972 7 972 l 38 972 l 197 278 q 215 194 208 228 q 228 129 222 160 q 242 57 235 99 l 244 57 q 261 168 251 118 q 283 278 271 218 l 415 897 q 420 911 418 906 q 429 917 422 917 l 442 917 q 451 910 451 917 q 449 897 451 904 l 439 868 q 435 847 439 868 q 425 796 431 826 q 414 734 419 765 q 404 682 408 703 q 400 661 400 661 l 254 -12 q 249 -13 254 -12 q 235 -14 243 -14 m 367 1131 q 347 1142 353 1132 q 343 1169 342 1151 q 351 1199 344 1189 q 369 1208 357 1208 q 390 1197 383 1208 q 394 1167 396 1186 q 388 1140 393 1149 q 367 1131 382 1131 m 506 1131 q 486 1142 492 1132 q 482 1169 481 1151 q 490 1199 483 1189 q 508 1208 496 1208 q 528 1197 522 1208 q 533 1167 535 1186 q 526 1140 532 1149 q 506 1131 521 1131 z "},"Ẁ":{"ha":874,"x_min":7,"x_max":869,"o":"m 639 -15 q 631 3 636 -15 q 619 47 626 21 l 475 658 q 471 680 475 658 q 460 733 467 701 q 448 794 454 764 q 438 847 442 825 q 433 868 433 868 l 425 897 q 422 911 422 906 q 431 917 422 917 l 454 917 l 603 278 q 622 194 615 228 q 633 131 628 161 q 646 60 639 101 l 649 60 q 665 160 657 104 q 688 278 674 215 l 832 953 q 837 967 835 961 q 846 972 839 972 l 869 972 l 657 -12 q 655 -13 657 -12 q 649 -15 653 -14 q 639 -15 646 -15 m 235 -14 q 225 8 231 -14 q 211 69 219 31 q 178 218 199 131 q 135 406 158 306 q 90 602 113 506 q 49 778 68 699 q 19 905 31 857 q 8 953 8 953 q 7 965 7 958 q 14 972 7 972 l 38 972 l 197 278 q 215 194 208 228 q 228 129 222 160 q 242 57 235 99 l 244 57 q 261 168 251 118 q 283 278 271 218 l 415 897 q 420 911 418 906 q 429 917 422 917 l 442 917 q 451 910 451 917 q 449 897 451 904 l 439 868 q 435 847 439 868 q 425 796 431 826 q 414 734 419 765 q 404 682 408 703 q 400 661 400 661 l 254 -12 q 249 -13 254 -12 q 235 -14 243 -14 m 529 1082 q 454 1137 490 1110 q 391 1186 418 1164 q 348 1222 364 1208 q 332 1235 332 1235 q 337 1251 332 1235 q 350 1267 342 1267 q 367 1253 350 1267 q 412 1217 383 1240 q 474 1165 440 1194 q 543 1104 508 1136 q 540 1099 543 1104 q 533 1088 536 1093 q 529 1082 529 1082 z "},"X":{"ha":596,"x_min":17,"x_max":581,"o":"m 17 0 l 281 515 l 296 524 q 315 565 296 524 q 365 667 335 606 q 425 793 394 729 l 508 965 q 513 971 511 969 q 522 972 514 972 q 551 972 531 972 l 319 496 l 304 490 q 286 453 304 490 q 239 358 268 417 q 176 236 210 300 l 60 6 q 47 0 56 0 l 17 0 m 540 0 l 424 235 q 363 358 392 300 q 315 453 333 417 q 296 490 296 490 l 282 499 l 54 965 q 52 971 53 969 q 60 972 51 972 q 89 972 68 972 l 176 793 q 238 666 208 728 q 285 565 267 604 q 304 525 304 525 l 315 515 l 578 13 q 578 3 581 7 q 571 0 575 0 l 540 0 z "},"Y":{"ha":496,"x_min":7,"x_max":489,"o":"m 256 369 l 244 371 l 8 965 q 8 971 7 969 q 18 972 10 972 q 44 972 26 972 l 126 765 q 167 659 146 717 q 208 550 189 601 q 238 465 226 499 q 250 432 250 432 q 262 465 250 432 q 293 550 274 499 q 334 659 313 601 q 374 765 356 717 l 450 965 q 453 971 451 969 q 464 972 456 972 q 489 972 472 972 l 256 369 m 233 0 l 233 418 l 267 418 l 267 14 q 265 4 267 7 q 257 1 264 1 q 233 0 250 0 z "},"Ý":{"ha":496,"x_min":7,"x_max":489,"o":"m 256 369 l 244 371 l 8 965 q 8 971 7 969 q 18 972 10 972 q 44 972 26 972 l 126 765 q 167 659 146 717 q 208 550 189 601 q 238 465 226 499 q 250 432 250 432 q 262 465 250 432 q 293 550 274 499 q 334 659 313 601 q 374 765 356 717 l 450 965 q 453 971 451 969 q 464 972 456 972 q 489 972 472 972 l 256 369 m 233 0 l 233 418 l 267 418 l 267 14 q 265 4 267 7 q 257 1 264 1 q 233 0 250 0 m 157 1082 q 153 1088 157 1082 q 147 1099 150 1093 q 143 1104 143 1104 q 212 1165 178 1136 q 274 1217 246 1194 q 319 1253 303 1240 q 336 1267 336 1267 q 349 1251 344 1267 q 354 1235 354 1235 q 338 1222 354 1235 q 295 1186 322 1208 q 233 1137 268 1164 q 157 1082 197 1110 z "},"Ŷ":{"ha":496,"x_min":7,"x_max":489,"o":"m 256 369 l 244 371 l 8 965 q 8 971 7 969 q 18 972 10 972 q 44 972 26 972 l 126 765 q 167 659 146 717 q 208 550 189 601 q 238 465 226 499 q 250 432 250 432 q 262 465 250 432 q 293 550 274 499 q 334 659 313 601 q 374 765 356 717 l 450 965 q 453 971 451 969 q 464 972 456 972 q 489 972 472 972 l 256 369 m 233 0 l 233 418 l 267 418 l 267 14 q 265 4 267 7 q 257 1 264 1 q 233 0 250 0 m 376 1083 q 358 1103 376 1083 q 315 1149 339 1124 q 272 1195 290 1175 q 253 1215 253 1215 q 233 1196 253 1215 q 188 1150 214 1176 q 141 1104 163 1124 q 117 1085 119 1085 q 97 1094 103 1085 q 90 1103 90 1103 l 243 1246 q 254 1249 246 1249 q 263 1247 258 1249 q 274 1239 268 1244 q 294 1219 274 1239 q 340 1172 314 1199 q 387 1126 367 1146 q 407 1106 407 1106 q 398 1094 407 1106 q 376 1083 389 1083 z "},"Ÿ":{"ha":496,"x_min":7,"x_max":489,"o":"m 256 369 l 244 371 l 8 965 q 8 971 7 969 q 18 972 10 972 q 44 972 26 972 l 126 765 q 167 659 146 717 q 208 550 189 601 q 238 465 226 499 q 250 432 250 432 q 262 465 250 432 q 293 550 274 499 q 334 659 313 601 q 374 765 356 717 l 450 965 q 453 971 451 969 q 464 972 456 972 q 489 972 472 972 l 256 369 m 233 0 l 233 418 l 267 418 l 267 14 q 265 4 267 7 q 257 1 264 1 q 233 0 250 0 m 178 1131 q 158 1142 164 1132 q 154 1169 153 1151 q 162 1199 156 1189 q 181 1208 168 1208 q 201 1197 194 1208 q 206 1167 207 1186 q 199 1140 204 1149 q 178 1131 193 1131 m 317 1131 q 297 1142 303 1132 q 293 1169 292 1151 q 301 1199 294 1189 q 319 1208 307 1208 q 340 1197 333 1208 q 344 1167 346 1186 q 338 1140 343 1149 q 317 1131 332 1131 z "},"Ỵ":{"ha":496,"x_min":7,"x_max":489,"o":"m 256 369 l 244 371 l 8 965 q 8 971 7 969 q 18 972 10 972 q 44 972 26 972 l 126 765 q 167 659 146 717 q 208 550 189 601 q 238 465 226 499 q 250 432 250 432 q 262 465 250 432 q 293 550 274 499 q 334 659 313 601 q 374 765 356 717 l 450 965 q 453 971 451 969 q 464 972 456 972 q 489 972 472 972 l 256 369 m 233 0 l 233 418 l 267 418 l 267 14 q 265 4 267 7 q 257 1 264 1 q 233 0 250 0 z "},"Ỳ":{"ha":496,"x_min":7,"x_max":489,"o":"m 256 369 l 244 371 l 8 965 q 8 971 7 969 q 18 972 10 972 q 44 972 26 972 l 126 765 q 167 659 146 717 q 208 550 189 601 q 238 465 226 499 q 250 432 250 432 q 262 465 250 432 q 293 550 274 499 q 334 659 313 601 q 374 765 356 717 l 450 965 q 453 971 451 969 q 464 972 456 972 q 489 972 472 972 l 256 369 m 233 0 l 233 418 l 267 418 l 267 14 q 265 4 267 7 q 257 1 264 1 q 233 0 250 0 m 340 1082 q 265 1137 301 1110 q 202 1186 229 1164 q 159 1222 175 1208 q 143 1235 143 1235 q 148 1251 143 1235 q 161 1267 153 1267 q 178 1253 161 1267 q 223 1217 194 1240 q 285 1165 251 1194 q 354 1104 319 1136 q 351 1099 354 1104 q 344 1088 347 1093 q 340 1082 340 1082 z "},"Ỷ":{"ha":496,"x_min":7,"x_max":489,"o":"m 256 369 l 244 371 l 8 965 q 8 971 7 969 q 18 972 10 972 q 44 972 26 972 l 126 765 q 167 659 146 717 q 208 550 189 601 q 238 465 226 499 q 250 432 250 432 q 262 465 250 432 q 293 550 274 499 q 334 659 313 601 q 374 765 356 717 l 450 965 q 453 971 451 969 q 464 972 456 972 q 489 972 472 972 l 256 369 m 233 0 l 233 418 l 267 418 l 267 14 q 265 4 267 7 q 257 1 264 1 q 233 0 250 0 m 226 1049 q 225 1060 226 1049 q 229 1083 224 1071 q 251 1107 238 1100 q 274 1124 264 1114 q 283 1158 283 1133 q 273 1199 283 1186 q 249 1214 263 1211 q 228 1217 236 1217 q 174 1200 197 1217 q 174 1204 174 1200 q 174 1215 174 1208 q 174 1226 174 1221 q 174 1233 174 1232 q 189 1246 174 1239 q 226 1253 204 1253 q 277 1244 256 1253 q 310 1214 299 1235 q 322 1158 322 1193 q 311 1117 322 1132 q 285 1093 300 1101 q 263 1078 271 1085 q 254 1061 256 1072 q 253 1050 253 1050 q 247 1048 253 1049 q 235 1048 240 1047 q 226 1049 229 1049 z "},"Ỹ":{"ha":496,"x_min":7,"x_max":489,"o":"m 256 369 l 244 371 l 8 965 q 8 971 7 969 q 18 972 10 972 q 44 972 26 972 l 126 765 q 167 659 146 717 q 208 550 189 601 q 238 465 226 499 q 250 432 250 432 q 262 465 250 432 q 293 550 274 499 q 334 659 313 601 q 374 765 356 717 l 450 965 q 453 971 451 969 q 464 972 456 972 q 489 972 472 972 l 256 369 m 233 0 l 233 418 l 267 418 l 267 14 q 265 4 267 7 q 257 1 264 1 q 233 0 250 0 m 315 1103 q 264 1115 283 1103 q 231 1144 244 1128 q 204 1172 217 1160 q 174 1185 192 1185 q 126 1167 144 1185 q 97 1130 107 1149 q 79 1111 86 1111 q 69 1116 75 1111 q 60 1126 64 1121 q 57 1131 57 1131 q 117 1199 89 1183 q 182 1214 146 1214 q 222 1202 207 1214 q 249 1176 238 1190 q 276 1149 261 1161 q 315 1138 292 1138 q 374 1156 354 1138 q 404 1192 394 1174 q 419 1210 414 1210 q 431 1205 426 1210 q 438 1194 435 1200 q 440 1189 440 1189 q 424 1160 433 1175 q 400 1131 414 1144 q 365 1110 386 1118 q 315 1103 344 1103 z "},"Z":{"ha":558,"x_min":43,"x_max":511,"o":"m 53 0 q 46 6 49 1 q 43 15 43 10 q 45 27 43 22 q 49 38 47 32 l 468 939 l 132 939 q 93 939 107 939 q 79 939 79 939 l 79 958 q 93 972 79 972 l 506 972 q 510 965 508 969 q 511 957 511 961 q 506 935 511 947 l 83 33 l 449 33 q 485 34 468 33 q 511 38 501 35 l 511 14 q 508 4 511 8 q 497 0 506 0 l 53 0 z "},"Ź":{"ha":558,"x_min":43,"x_max":511,"o":"m 53 0 q 46 6 49 1 q 43 15 43 10 q 45 27 43 22 q 49 38 47 32 l 468 939 l 132 939 q 93 939 107 939 q 79 939 79 939 l 79 958 q 93 972 79 972 l 506 972 q 510 965 508 969 q 511 957 511 961 q 506 935 511 947 l 83 33 l 449 33 q 485 34 468 33 q 511 38 501 35 l 511 14 q 508 4 511 8 q 497 0 506 0 l 53 0 m 188 1082 q 184 1088 188 1082 q 177 1099 181 1093 q 174 1104 174 1104 q 242 1165 208 1136 q 305 1217 276 1194 q 350 1253 333 1240 q 367 1267 367 1267 q 380 1251 375 1267 q 385 1235 385 1235 q 369 1222 385 1235 q 326 1186 353 1208 q 263 1137 299 1164 q 188 1082 228 1110 z "},"Ž":{"ha":558,"x_min":43,"x_max":511,"o":"m 53 0 q 46 6 49 1 q 43 15 43 10 q 45 27 43 22 q 49 38 47 32 l 468 939 l 132 939 q 93 939 107 939 q 79 939 79 939 l 79 958 q 93 972 79 972 l 506 972 q 510 965 508 969 q 511 957 511 961 q 506 935 511 947 l 83 33 l 449 33 q 485 34 468 33 q 511 38 501 35 l 511 14 q 508 4 511 8 q 497 0 506 0 l 53 0 m 290 1092 q 266 1108 285 1092 q 222 1148 247 1124 q 174 1197 197 1172 q 135 1237 150 1221 q 119 1253 119 1253 q 126 1263 119 1253 q 143 1272 133 1272 q 162 1258 146 1272 q 199 1222 178 1243 q 241 1178 221 1200 q 275 1141 261 1156 q 289 1126 289 1126 q 349 1198 318 1163 q 401 1257 381 1233 q 422 1281 422 1281 q 434 1270 429 1275 q 439 1258 439 1265 q 425 1238 439 1256 q 391 1195 411 1219 q 349 1147 371 1171 q 311 1108 328 1124 q 290 1092 294 1092 z "},"Ż":{"ha":558,"x_min":43,"x_max":511,"o":"m 53 0 q 46 6 49 1 q 43 15 43 10 q 45 27 43 22 q 49 38 47 32 l 468 939 l 132 939 q 93 939 107 939 q 79 939 79 939 l 79 958 q 93 972 79 972 l 506 972 q 510 965 508 969 q 511 957 511 961 q 506 935 511 947 l 83 33 l 449 33 q 485 34 468 33 q 511 38 501 35 l 511 14 q 508 4 511 8 q 497 0 506 0 l 53 0 m 278 1131 q 258 1142 264 1132 q 254 1169 253 1151 q 262 1199 256 1189 q 281 1208 268 1208 q 301 1197 294 1208 q 306 1167 307 1186 q 299 1140 304 1149 q 278 1131 293 1131 z "},"a":{"ha":532,"x_min":61,"x_max":454,"o":"m 264 -14 q 191 -10 226 -15 q 126 15 156 -4 q 80 76 97 35 q 63 188 63 117 q 82 307 63 263 q 135 374 101 351 q 210 405 168 397 q 294 413 251 413 q 363 409 331 413 q 421 399 396 406 q 421 424 421 399 q 421 483 421 450 q 421 535 421 515 q 403 624 421 594 q 353 665 385 654 q 283 675 322 675 q 147 663 204 675 q 67 639 90 651 q 63 648 64 644 q 61 657 61 651 q 63 669 61 664 q 68 675 64 674 q 155 698 92 688 q 290 708 218 708 q 411 672 368 708 q 454 540 454 635 l 454 449 q 453 297 454 369 q 450 159 451 224 q 446 39 449 94 q 385 8 429 29 q 264 -14 342 -14 m 274 19 q 360 33 321 19 q 413 60 399 47 q 417 149 415 97 q 420 257 419 200 q 421 367 421 314 q 361 378 394 374 q 301 382 328 382 q 226 376 263 382 q 160 352 189 371 q 113 294 131 333 q 96 189 96 256 q 110 92 96 126 q 151 42 125 57 q 208 23 176 26 q 274 19 240 19 z "},"á":{"ha":532,"x_min":61,"x_max":454,"o":"m 264 -14 q 191 -10 226 -15 q 126 15 156 -4 q 80 76 97 35 q 63 188 63 117 q 82 307 63 263 q 135 374 101 351 q 210 405 168 397 q 294 413 251 413 q 363 409 331 413 q 421 399 396 406 q 421 424 421 399 q 421 483 421 450 q 421 535 421 515 q 403 624 421 594 q 353 665 385 654 q 283 675 322 675 q 147 663 204 675 q 67 639 90 651 q 63 648 64 644 q 61 657 61 651 q 63 669 61 664 q 68 675 64 674 q 155 698 92 688 q 290 708 218 708 q 411 672 368 708 q 454 540 454 635 l 454 449 q 453 297 454 369 q 450 159 451 224 q 446 39 449 94 q 385 8 429 29 q 264 -14 342 -14 m 274 19 q 360 33 321 19 q 413 60 399 47 q 417 149 415 97 q 420 257 419 200 q 421 367 421 314 q 361 378 394 374 q 301 382 328 382 q 226 376 263 382 q 160 352 189 371 q 113 294 131 333 q 96 189 96 256 q 110 92 96 126 q 151 42 125 57 q 208 23 176 26 q 274 19 240 19 m 165 804 q 162 810 165 804 q 155 821 158 815 q 151 826 151 826 q 220 888 186 858 q 283 940 254 917 q 328 976 311 963 q 344 989 344 989 q 358 973 353 989 q 363 957 363 957 q 347 944 363 957 q 303 908 331 931 q 241 859 276 886 q 165 804 206 832 z "},"ă":{"ha":532,"x_min":61,"x_max":454,"o":"m 264 -14 q 191 -10 226 -15 q 126 15 156 -4 q 80 76 97 35 q 63 188 63 117 q 82 307 63 263 q 135 374 101 351 q 210 405 168 397 q 294 413 251 413 q 363 409 331 413 q 421 399 396 406 q 421 424 421 399 q 421 483 421 450 q 421 535 421 515 q 403 624 421 594 q 353 665 385 654 q 283 675 322 675 q 147 663 204 675 q 67 639 90 651 q 63 648 64 644 q 61 657 61 651 q 63 669 61 664 q 68 675 64 674 q 155 698 92 688 q 290 708 218 708 q 411 672 368 708 q 454 540 454 635 l 454 449 q 453 297 454 369 q 450 159 451 224 q 446 39 449 94 q 385 8 429 29 q 264 -14 342 -14 m 274 19 q 360 33 321 19 q 413 60 399 47 q 417 149 415 97 q 420 257 419 200 q 421 367 421 314 q 361 378 394 374 q 301 382 328 382 q 226 376 263 382 q 160 352 189 371 q 113 294 131 333 q 96 189 96 256 q 110 92 96 126 q 151 42 125 57 q 208 23 176 26 q 274 19 240 19 m 257 813 q 187 832 217 813 q 138 878 157 851 q 108 930 118 906 q 99 964 99 954 q 107 978 99 975 q 125 982 115 981 q 149 925 133 957 q 191 869 164 893 q 258 846 218 846 q 321 865 297 846 q 358 913 344 885 q 382 968 372 942 q 394 979 386 978 q 408 976 401 981 q 417 963 415 971 q 390 899 408 935 q 340 838 372 864 q 257 813 308 813 z "},"ắ":{"ha":532,"x_min":61,"x_max":454,"o":"m 264 -14 q 191 -10 226 -15 q 126 15 156 -4 q 80 76 97 35 q 63 188 63 117 q 82 307 63 263 q 135 374 101 351 q 210 405 168 397 q 294 413 251 413 q 363 409 331 413 q 421 399 396 406 q 421 424 421 399 q 421 483 421 450 q 421 535 421 515 q 403 624 421 594 q 353 665 385 654 q 283 675 322 675 q 147 663 204 675 q 67 639 90 651 q 63 648 64 644 q 61 657 61 651 q 63 669 61 664 q 68 675 64 674 q 155 698 92 688 q 290 708 218 708 q 411 672 368 708 q 454 540 454 635 l 454 449 q 453 297 454 369 q 450 159 451 224 q 446 39 449 94 q 385 8 429 29 q 264 -14 342 -14 m 274 19 q 360 33 321 19 q 413 60 399 47 q 417 149 415 97 q 420 257 419 200 q 421 367 421 314 q 361 378 394 374 q 301 382 328 382 q 226 376 263 382 q 160 352 189 371 q 113 294 131 333 q 96 189 96 256 q 110 92 96 126 q 151 42 125 57 q 208 23 176 26 q 274 19 240 19 m 256 813 q 185 832 215 813 q 136 878 156 851 q 107 930 117 906 q 97 964 97 954 q 106 978 97 975 q 124 982 114 981 q 147 925 132 957 q 190 869 163 893 q 257 846 217 846 q 319 865 296 846 q 357 913 343 885 q 381 968 371 942 q 392 979 385 978 q 407 976 400 981 q 415 963 414 971 q 389 899 407 935 q 339 838 371 864 q 256 813 307 813 m 254 1014 q 251 1019 254 1014 q 244 1031 247 1025 q 240 1036 240 1036 q 309 1097 275 1068 q 372 1149 343 1126 q 417 1185 400 1172 q 433 1199 433 1199 q 447 1183 442 1199 q 451 1167 451 1167 q 435 1153 451 1167 q 392 1118 419 1140 q 330 1069 365 1096 q 254 1014 294 1042 z "},"ặ":{"ha":532,"x_min":61,"x_max":454,"o":"m 264 -14 q 191 -10 226 -15 q 126 15 156 -4 q 80 76 97 35 q 63 188 63 117 q 82 307 63 263 q 135 374 101 351 q 210 405 168 397 q 294 413 251 413 q 363 409 331 413 q 421 399 396 406 q 421 424 421 399 q 421 483 421 450 q 421 535 421 515 q 403 624 421 594 q 353 665 385 654 q 283 675 322 675 q 147 663 204 675 q 67 639 90 651 q 63 648 64 644 q 61 657 61 651 q 63 669 61 664 q 68 675 64 674 q 155 698 92 688 q 290 708 218 708 q 411 672 368 708 q 454 540 454 635 l 454 449 q 453 297 454 369 q 450 159 451 224 q 446 39 449 94 q 385 8 429 29 q 264 -14 342 -14 m 274 19 q 360 33 321 19 q 413 60 399 47 q 417 149 415 97 q 420 257 419 200 q 421 367 421 314 q 361 378 394 374 q 301 382 328 382 q 226 376 263 382 q 160 352 189 371 q 113 294 131 333 q 96 189 96 256 q 110 92 96 126 q 151 42 125 57 q 208 23 176 26 q 274 19 240 19 m 257 813 q 187 832 217 813 q 138 878 157 851 q 108 930 118 906 q 99 964 99 954 q 107 978 99 975 q 125 982 115 981 q 149 925 133 957 q 191 869 164 893 q 258 846 218 846 q 321 865 297 846 q 358 913 344 885 q 382 968 372 942 q 394 979 386 978 q 408 976 401 981 q 417 963 415 971 q 390 899 408 935 q 340 838 372 864 q 257 813 308 813 z "},"ằ":{"ha":532,"x_min":61,"x_max":454,"o":"m 264 -14 q 191 -10 226 -15 q 126 15 156 -4 q 80 76 97 35 q 63 188 63 117 q 82 307 63 263 q 135 374 101 351 q 210 405 168 397 q 294 413 251 413 q 363 409 331 413 q 421 399 396 406 q 421 424 421 399 q 421 483 421 450 q 421 535 421 515 q 403 624 421 594 q 353 665 385 654 q 283 675 322 675 q 147 663 204 675 q 67 639 90 651 q 63 648 64 644 q 61 657 61 651 q 63 669 61 664 q 68 675 64 674 q 155 698 92 688 q 290 708 218 708 q 411 672 368 708 q 454 540 454 635 l 454 449 q 453 297 454 369 q 450 159 451 224 q 446 39 449 94 q 385 8 429 29 q 264 -14 342 -14 m 274 19 q 360 33 321 19 q 413 60 399 47 q 417 149 415 97 q 420 257 419 200 q 421 367 421 314 q 361 378 394 374 q 301 382 328 382 q 226 376 263 382 q 160 352 189 371 q 113 294 131 333 q 96 189 96 256 q 110 92 96 126 q 151 42 125 57 q 208 23 176 26 q 274 19 240 19 m 256 813 q 185 832 215 813 q 136 878 156 851 q 107 930 117 906 q 97 964 97 954 q 106 978 97 975 q 124 982 114 981 q 147 925 132 957 q 190 869 163 893 q 257 846 217 846 q 319 865 296 846 q 357 913 343 885 q 381 968 371 942 q 392 979 385 978 q 407 976 400 981 q 415 963 414 971 q 389 899 407 935 q 339 838 371 864 q 256 813 307 813 m 274 1003 q 199 1058 235 1031 q 135 1107 163 1085 q 92 1142 108 1129 q 76 1156 76 1156 q 81 1172 76 1156 q 94 1188 86 1188 q 111 1174 94 1188 q 156 1138 128 1161 q 219 1086 185 1115 q 288 1025 253 1057 q 284 1019 288 1025 q 277 1008 281 1014 q 274 1003 274 1003 z "},"ẳ":{"ha":532,"x_min":61,"x_max":454,"o":"m 264 -14 q 191 -10 226 -15 q 126 15 156 -4 q 80 76 97 35 q 63 188 63 117 q 82 307 63 263 q 135 374 101 351 q 210 405 168 397 q 294 413 251 413 q 363 409 331 413 q 421 399 396 406 q 421 424 421 399 q 421 483 421 450 q 421 535 421 515 q 403 624 421 594 q 353 665 385 654 q 283 675 322 675 q 147 663 204 675 q 67 639 90 651 q 63 648 64 644 q 61 657 61 651 q 63 669 61 664 q 68 675 64 674 q 155 698 92 688 q 290 708 218 708 q 411 672 368 708 q 454 540 454 635 l 454 449 q 453 297 454 369 q 450 159 451 224 q 446 39 449 94 q 385 8 429 29 q 264 -14 342 -14 m 274 19 q 360 33 321 19 q 413 60 399 47 q 417 149 415 97 q 420 257 419 200 q 421 367 421 314 q 361 378 394 374 q 301 382 328 382 q 226 376 263 382 q 160 352 189 371 q 113 294 131 333 q 96 189 96 256 q 110 92 96 126 q 151 42 125 57 q 208 23 176 26 q 274 19 240 19 m 256 813 q 185 832 215 813 q 136 878 156 851 q 107 930 117 906 q 97 964 97 954 q 106 978 97 975 q 124 982 114 981 q 147 925 132 957 q 190 869 163 893 q 257 846 217 846 q 319 865 296 846 q 357 913 343 885 q 381 968 371 942 q 392 979 385 978 q 407 976 400 981 q 415 963 414 971 q 389 899 407 935 q 339 838 371 864 q 256 813 307 813 m 235 990 q 233 1001 235 990 q 238 1025 232 1013 q 258 1049 246 1042 q 281 1065 271 1056 q 292 1100 292 1075 q 281 1140 292 1128 q 258 1156 271 1153 q 236 1158 244 1158 q 182 1142 206 1158 q 182 1149 182 1142 q 182 1164 182 1156 q 182 1175 182 1172 q 197 1188 182 1181 q 235 1194 213 1194 q 285 1185 264 1194 q 319 1156 307 1176 q 331 1100 331 1135 q 319 1058 331 1074 q 294 1035 308 1043 q 271 1019 279 1026 q 263 1003 264 1014 q 261 992 261 992 q 255 990 261 990 q 243 990 249 989 q 235 990 238 990 z "},"ẵ":{"ha":532,"x_min":61,"x_max":454,"o":"m 264 -14 q 191 -10 226 -15 q 126 15 156 -4 q 80 76 97 35 q 63 188 63 117 q 82 307 63 263 q 135 374 101 351 q 210 405 168 397 q 294 413 251 413 q 363 409 331 413 q 421 399 396 406 q 421 424 421 399 q 421 483 421 450 q 421 535 421 515 q 403 624 421 594 q 353 665 385 654 q 283 675 322 675 q 147 663 204 675 q 67 639 90 651 q 63 648 64 644 q 61 657 61 651 q 63 669 61 664 q 68 675 64 674 q 155 698 92 688 q 290 708 218 708 q 411 672 368 708 q 454 540 454 635 l 454 449 q 453 297 454 369 q 450 159 451 224 q 446 39 449 94 q 385 8 429 29 q 264 -14 342 -14 m 274 19 q 360 33 321 19 q 413 60 399 47 q 417 149 415 97 q 420 257 419 200 q 421 367 421 314 q 361 378 394 374 q 301 382 328 382 q 226 376 263 382 q 160 352 189 371 q 113 294 131 333 q 96 189 96 256 q 110 92 96 126 q 151 42 125 57 q 208 23 176 26 q 274 19 240 19 m 256 813 q 185 832 215 813 q 136 878 156 851 q 107 930 117 906 q 97 964 97 954 q 106 978 97 975 q 124 982 114 981 q 147 925 132 957 q 190 869 163 893 q 257 846 217 846 q 319 865 296 846 q 357 913 343 885 q 381 968 371 942 q 392 979 385 978 q 407 976 400 981 q 415 963 414 971 q 389 899 407 935 q 339 838 371 864 q 256 813 307 813 m 324 1029 q 272 1042 292 1029 q 239 1070 253 1054 q 213 1099 225 1086 q 182 1111 200 1111 q 134 1093 153 1111 q 105 1056 115 1075 q 88 1038 94 1038 q 78 1042 83 1038 q 69 1052 72 1047 q 65 1057 65 1057 q 126 1125 97 1110 q 190 1140 154 1140 q 231 1128 215 1140 q 258 1102 246 1117 q 285 1076 269 1088 q 324 1064 300 1064 q 383 1082 363 1064 q 413 1118 403 1100 q 428 1136 422 1136 q 439 1131 435 1136 q 446 1121 443 1126 q 449 1115 449 1115 q 432 1086 442 1101 q 408 1058 422 1071 q 374 1037 394 1044 q 324 1029 353 1029 z "},"â":{"ha":532,"x_min":61,"x_max":454,"o":"m 264 -14 q 191 -10 226 -15 q 126 15 156 -4 q 80 76 97 35 q 63 188 63 117 q 82 307 63 263 q 135 374 101 351 q 210 405 168 397 q 294 413 251 413 q 363 409 331 413 q 421 399 396 406 q 421 424 421 399 q 421 483 421 450 q 421 535 421 515 q 403 624 421 594 q 353 665 385 654 q 283 675 322 675 q 147 663 204 675 q 67 639 90 651 q 63 648 64 644 q 61 657 61 651 q 63 669 61 664 q 68 675 64 674 q 155 698 92 688 q 290 708 218 708 q 411 672 368 708 q 454 540 454 635 l 454 449 q 453 297 454 369 q 450 159 451 224 q 446 39 449 94 q 385 8 429 29 q 264 -14 342 -14 m 274 19 q 360 33 321 19 q 413 60 399 47 q 417 149 415 97 q 420 257 419 200 q 421 367 421 314 q 361 378 394 374 q 301 382 328 382 q 226 376 263 382 q 160 352 189 371 q 113 294 131 333 q 96 189 96 256 q 110 92 96 126 q 151 42 125 57 q 208 23 176 26 q 274 19 240 19 m 385 806 q 366 826 385 806 q 323 872 347 846 q 280 917 299 897 q 261 938 261 938 q 242 918 261 938 q 197 872 222 899 q 149 826 171 846 q 125 807 128 807 q 105 816 111 807 q 99 825 99 825 l 251 968 q 263 971 254 971 q 272 969 267 971 q 282 961 276 967 q 302 941 282 961 q 349 894 322 921 q 395 848 375 868 q 415 828 415 828 q 406 817 415 828 q 385 806 397 806 z "},"ấ":{"ha":532,"x_min":61,"x_max":619,"o":"m 264 -14 q 191 -10 226 -15 q 126 15 156 -4 q 80 76 97 35 q 63 188 63 117 q 82 307 63 263 q 135 374 101 351 q 210 405 168 397 q 294 413 251 413 q 363 409 331 413 q 421 399 396 406 q 421 424 421 399 q 421 483 421 450 q 421 535 421 515 q 403 624 421 594 q 353 665 385 654 q 283 675 322 675 q 147 663 204 675 q 67 639 90 651 q 63 648 64 644 q 61 657 61 651 q 63 669 61 664 q 68 675 64 674 q 155 698 92 688 q 290 708 218 708 q 411 672 368 708 q 454 540 454 635 l 454 449 q 453 297 454 369 q 450 159 451 224 q 446 39 449 94 q 385 8 429 29 q 264 -14 342 -14 m 274 19 q 360 33 321 19 q 413 60 399 47 q 417 149 415 97 q 420 257 419 200 q 421 367 421 314 q 361 378 394 374 q 301 382 328 382 q 226 376 263 382 q 160 352 189 371 q 113 294 131 333 q 96 189 96 256 q 110 92 96 126 q 151 42 125 57 q 208 23 176 26 q 274 19 240 19 m 385 806 q 366 826 385 806 q 323 872 347 846 q 280 917 299 897 q 261 938 261 938 q 242 918 261 938 q 197 872 222 899 q 149 826 171 846 q 125 807 128 807 q 105 816 111 807 q 99 825 99 825 l 251 968 q 263 971 254 971 q 282 961 272 971 q 302 941 282 961 q 349 894 322 921 q 395 848 375 868 q 415 828 415 828 q 406 817 415 828 q 385 806 397 806 m 422 922 q 419 928 422 922 q 412 939 415 933 q 408 944 408 944 q 477 1006 443 976 q 540 1058 511 1035 q 585 1094 568 1081 q 601 1107 601 1107 q 615 1091 610 1107 q 619 1075 619 1075 q 603 1062 619 1075 q 560 1026 588 1049 q 498 977 533 1004 q 422 922 463 950 z "},"ậ":{"ha":532,"x_min":61,"x_max":454,"o":"m 264 -14 q 191 -10 226 -15 q 126 15 156 -4 q 80 76 97 35 q 63 188 63 117 q 82 307 63 263 q 135 374 101 351 q 210 405 168 397 q 294 413 251 413 q 363 409 331 413 q 421 399 396 406 q 421 424 421 399 q 421 483 421 450 q 421 535 421 515 q 403 624 421 594 q 353 665 385 654 q 283 675 322 675 q 147 663 204 675 q 67 639 90 651 q 63 648 64 644 q 61 657 61 651 q 63 669 61 664 q 68 675 64 674 q 155 698 92 688 q 290 708 218 708 q 411 672 368 708 q 454 540 454 635 l 454 449 q 453 297 454 369 q 450 159 451 224 q 446 39 449 94 q 385 8 429 29 q 264 -14 342 -14 m 274 19 q 360 33 321 19 q 413 60 399 47 q 417 149 415 97 q 420 257 419 200 q 421 367 421 314 q 361 378 394 374 q 301 382 328 382 q 226 376 263 382 q 160 352 189 371 q 113 294 131 333 q 96 189 96 256 q 110 92 96 126 q 151 42 125 57 q 208 23 176 26 q 274 19 240 19 m 385 806 q 366 826 385 806 q 323 872 347 846 q 280 917 299 897 q 261 938 261 938 q 242 918 261 938 q 197 872 222 899 q 149 826 171 846 q 125 807 128 807 q 105 816 111 807 q 99 825 99 825 l 251 968 q 263 971 254 971 q 272 969 267 971 q 282 961 276 967 q 302 941 282 961 q 349 894 322 921 q 395 848 375 868 q 415 828 415 828 q 406 817 415 828 q 385 806 397 806 z "},"ầ":{"ha":532,"x_min":61,"x_max":454,"o":"m 264 -14 q 191 -10 226 -15 q 126 15 156 -4 q 80 76 97 35 q 63 188 63 117 q 82 307 63 263 q 135 374 101 351 q 210 405 168 397 q 294 413 251 413 q 363 409 331 413 q 421 399 396 406 q 421 424 421 399 q 421 483 421 450 q 421 535 421 515 q 403 624 421 594 q 353 665 385 654 q 283 675 322 675 q 147 663 204 675 q 67 639 90 651 q 63 648 64 644 q 61 657 61 651 q 63 669 61 664 q 68 675 64 674 q 155 698 92 688 q 290 708 218 708 q 411 672 368 708 q 454 540 454 635 l 454 449 q 453 297 454 369 q 450 159 451 224 q 446 39 449 94 q 385 8 429 29 q 264 -14 342 -14 m 274 19 q 360 33 321 19 q 413 60 399 47 q 417 149 415 97 q 420 257 419 200 q 421 367 421 314 q 361 378 394 374 q 301 382 328 382 q 226 376 263 382 q 160 352 189 371 q 113 294 131 333 q 96 189 96 256 q 110 92 96 126 q 151 42 125 57 q 208 23 176 26 q 274 19 240 19 m 385 806 q 366 826 385 806 q 323 872 347 846 q 280 917 299 897 q 261 938 261 938 q 242 918 261 938 q 197 872 222 899 q 149 826 171 846 q 125 807 128 807 q 105 816 111 807 q 99 825 99 825 l 251 968 q 263 971 254 971 q 282 961 272 971 q 302 941 282 961 q 349 894 322 921 q 395 848 375 868 q 415 828 415 828 q 406 817 415 828 q 385 806 397 806 m 383 974 q 308 1028 344 1001 q 245 1078 272 1056 q 202 1113 218 1100 q 186 1126 186 1126 q 191 1142 186 1126 q 204 1158 196 1158 q 221 1145 204 1158 q 266 1109 238 1132 q 328 1057 294 1086 q 397 996 363 1028 q 394 990 397 996 q 387 979 390 985 q 383 974 383 974 z "},"ẩ":{"ha":532,"x_min":61,"x_max":499,"o":"m 264 -14 q 191 -10 226 -15 q 126 15 156 -4 q 80 76 97 35 q 63 188 63 117 q 82 307 63 263 q 135 374 101 351 q 210 405 168 397 q 294 413 251 413 q 363 409 331 413 q 421 399 396 406 q 421 424 421 399 q 421 483 421 450 q 421 535 421 515 q 403 624 421 594 q 353 665 385 654 q 283 675 322 675 q 147 663 204 675 q 67 639 90 651 q 63 648 64 644 q 61 657 61 651 q 63 669 61 664 q 68 675 64 674 q 155 698 92 688 q 290 708 218 708 q 411 672 368 708 q 454 540 454 635 l 454 449 q 453 297 454 369 q 450 159 451 224 q 446 39 449 94 q 385 8 429 29 q 264 -14 342 -14 m 274 19 q 360 33 321 19 q 413 60 399 47 q 417 149 415 97 q 420 257 419 200 q 421 367 421 314 q 361 378 394 374 q 301 382 328 382 q 226 376 263 382 q 160 352 189 371 q 113 294 131 333 q 96 189 96 256 q 110 92 96 126 q 151 42 125 57 q 208 23 176 26 q 274 19 240 19 m 385 806 q 366 826 385 806 q 323 872 347 846 q 280 917 299 897 q 261 938 261 938 q 242 918 261 938 q 197 872 222 899 q 149 826 171 846 q 125 807 128 807 q 105 816 111 807 q 99 825 99 825 l 251 968 q 263 971 254 971 q 282 961 272 971 q 302 941 282 961 q 349 894 322 921 q 395 848 375 868 q 415 828 415 828 q 406 817 415 828 q 385 806 397 806 m 403 936 q 401 947 403 936 q 406 971 400 958 q 427 994 414 988 q 450 1011 440 1001 q 460 1046 460 1021 q 449 1086 460 1074 q 426 1101 439 1099 q 404 1104 413 1104 q 350 1088 374 1104 q 350 1094 350 1088 q 350 1110 350 1101 q 350 1121 350 1118 q 365 1133 350 1126 q 403 1140 381 1140 q 453 1131 432 1140 q 487 1101 475 1122 q 499 1046 499 1081 q 488 1004 499 1019 q 462 981 476 989 q 439 965 447 972 q 431 949 432 960 q 429 938 429 938 q 423 935 429 936 q 411 935 417 935 q 403 936 406 936 z "},"ẫ":{"ha":532,"x_min":61,"x_max":469,"o":"m 264 -14 q 191 -10 226 -15 q 126 15 156 -4 q 80 76 97 35 q 63 188 63 117 q 82 307 63 263 q 135 374 101 351 q 210 405 168 397 q 294 413 251 413 q 363 409 331 413 q 421 399 396 406 q 421 424 421 399 q 421 483 421 450 q 421 535 421 515 q 403 624 421 594 q 353 665 385 654 q 283 675 322 675 q 147 663 204 675 q 67 639 90 651 q 63 648 64 644 q 61 657 61 651 q 63 669 61 664 q 68 675 64 674 q 155 698 92 688 q 290 708 218 708 q 411 672 368 708 q 454 540 454 635 l 454 449 q 453 297 454 369 q 450 159 451 224 q 446 39 449 94 q 385 8 429 29 q 264 -14 342 -14 m 274 19 q 360 33 321 19 q 413 60 399 47 q 417 149 415 97 q 420 257 419 200 q 421 367 421 314 q 361 378 394 374 q 301 382 328 382 q 226 376 263 382 q 160 352 189 371 q 113 294 131 333 q 96 189 96 256 q 110 92 96 126 q 151 42 125 57 q 208 23 176 26 q 274 19 240 19 m 385 806 q 366 826 385 806 q 323 872 347 846 q 280 917 299 897 q 261 938 261 938 q 242 918 261 938 q 197 872 222 899 q 149 826 171 846 q 125 807 128 807 q 105 816 111 807 q 99 825 99 825 l 251 968 q 263 971 254 971 q 282 961 272 971 q 302 941 282 961 q 349 894 322 921 q 395 848 375 868 q 415 828 415 828 q 406 817 415 828 q 385 806 397 806 m 344 1006 q 293 1018 313 1006 q 260 1047 274 1031 q 233 1075 246 1063 q 203 1088 221 1088 q 155 1069 174 1088 q 126 1033 136 1051 q 108 1014 115 1014 q 99 1019 104 1014 q 90 1028 93 1024 q 86 1033 86 1033 q 147 1101 118 1086 q 211 1117 175 1117 q 251 1105 236 1117 q 278 1078 267 1093 q 306 1052 290 1064 q 344 1040 321 1040 q 403 1058 383 1040 q 433 1094 424 1076 q 449 1113 443 1113 q 460 1108 456 1113 q 467 1097 464 1103 q 469 1092 469 1092 q 453 1063 463 1078 q 429 1034 443 1047 q 394 1013 415 1021 q 344 1006 374 1006 z "},"ä":{"ha":532,"x_min":61,"x_max":454,"o":"m 264 -14 q 191 -10 226 -15 q 126 15 156 -4 q 80 76 97 35 q 63 188 63 117 q 82 307 63 263 q 135 374 101 351 q 210 405 168 397 q 294 413 251 413 q 363 409 331 413 q 421 399 396 406 q 421 424 421 399 q 421 483 421 450 q 421 535 421 515 q 403 624 421 594 q 353 665 385 654 q 283 675 322 675 q 147 663 204 675 q 67 639 90 651 q 63 648 64 644 q 61 657 61 651 q 63 669 61 664 q 68 675 64 674 q 155 698 92 688 q 290 708 218 708 q 411 672 368 708 q 454 540 454 635 l 454 449 q 453 297 454 369 q 450 159 451 224 q 446 39 449 94 q 385 8 429 29 q 264 -14 342 -14 m 274 19 q 360 33 321 19 q 413 60 399 47 q 417 149 415 97 q 420 257 419 200 q 421 367 421 314 q 361 378 394 374 q 301 382 328 382 q 226 376 263 382 q 160 352 189 371 q 113 294 131 333 q 96 189 96 256 q 110 92 96 126 q 151 42 125 57 q 208 23 176 26 q 274 19 240 19 m 186 853 q 167 864 172 854 q 163 892 161 874 q 170 921 164 911 q 189 931 176 931 q 209 919 203 931 q 214 889 215 908 q 207 862 213 871 q 186 853 201 853 m 325 853 q 306 864 311 854 q 301 892 300 874 q 309 921 303 911 q 328 931 315 931 q 348 919 342 931 q 353 889 354 908 q 346 862 351 871 q 325 853 340 853 z "},"ạ":{"ha":532,"x_min":61,"x_max":454,"o":"m 264 -14 q 191 -10 226 -15 q 126 15 156 -4 q 80 76 97 35 q 63 188 63 117 q 82 307 63 263 q 135 374 101 351 q 210 405 168 397 q 294 413 251 413 q 363 409 331 413 q 421 399 396 406 q 421 424 421 399 q 421 483 421 450 q 421 535 421 515 q 403 624 421 594 q 353 665 385 654 q 283 675 322 675 q 147 663 204 675 q 67 639 90 651 q 63 648 64 644 q 61 657 61 651 q 63 669 61 664 q 68 675 64 674 q 155 698 92 688 q 290 708 218 708 q 411 672 368 708 q 454 540 454 635 l 454 449 q 453 297 454 369 q 450 159 451 224 q 446 39 449 94 q 385 8 429 29 q 264 -14 342 -14 m 274 19 q 360 33 321 19 q 413 60 399 47 q 417 149 415 97 q 420 257 419 200 q 421 367 421 314 q 361 378 394 374 q 301 382 328 382 q 226 376 263 382 q 160 352 189 371 q 113 294 131 333 q 96 189 96 256 q 110 92 96 126 q 151 42 125 57 q 208 23 176 26 q 274 19 240 19 z "},"à":{"ha":532,"x_min":61,"x_max":454,"o":"m 264 -14 q 191 -10 226 -15 q 126 15 156 -4 q 80 76 97 35 q 63 188 63 117 q 82 307 63 263 q 135 374 101 351 q 210 405 168 397 q 294 413 251 413 q 363 409 331 413 q 421 399 396 406 q 421 424 421 399 q 421 483 421 450 q 421 535 421 515 q 403 624 421 594 q 353 665 385 654 q 283 675 322 675 q 147 663 204 675 q 67 639 90 651 q 63 648 64 644 q 61 657 61 651 q 63 669 61 664 q 68 675 64 674 q 155 698 92 688 q 290 708 218 708 q 411 672 368 708 q 454 540 454 635 l 454 449 q 453 297 454 369 q 450 159 451 224 q 446 39 449 94 q 385 8 429 29 q 264 -14 342 -14 m 274 19 q 360 33 321 19 q 413 60 399 47 q 417 149 415 97 q 420 257 419 200 q 421 367 421 314 q 361 378 394 374 q 301 382 328 382 q 226 376 263 382 q 160 352 189 371 q 113 294 131 333 q 96 189 96 256 q 110 92 96 126 q 151 42 125 57 q 208 23 176 26 q 274 19 240 19 m 349 804 q 274 859 310 832 q 210 908 238 886 q 167 944 183 931 q 151 957 151 957 q 156 973 151 957 q 169 989 161 989 q 186 976 169 989 q 231 940 203 963 q 294 888 260 917 q 363 826 328 858 q 359 821 363 826 q 352 810 356 815 q 349 804 349 804 z "},"ả":{"ha":532,"x_min":61,"x_max":454,"o":"m 264 -14 q 191 -10 226 -15 q 126 15 156 -4 q 80 76 97 35 q 63 188 63 117 q 82 307 63 263 q 135 374 101 351 q 210 405 168 397 q 294 413 251 413 q 363 409 331 413 q 421 399 396 406 q 421 424 421 399 q 421 483 421 450 q 421 535 421 515 q 403 624 421 594 q 353 665 385 654 q 283 675 322 675 q 147 663 204 675 q 67 639 90 651 q 63 648 64 644 q 61 657 61 651 q 63 669 61 664 q 68 675 64 674 q 155 698 92 688 q 290 708 218 708 q 411 672 368 708 q 454 540 454 635 l 454 449 q 453 297 454 369 q 450 159 451 224 q 446 39 449 94 q 385 8 429 29 q 264 -14 342 -14 m 274 19 q 360 33 321 19 q 413 60 399 47 q 417 149 415 97 q 420 257 419 200 q 421 367 421 314 q 361 378 394 374 q 301 382 328 382 q 226 376 263 382 q 160 352 189 371 q 113 294 131 333 q 96 189 96 256 q 110 92 96 126 q 151 42 125 57 q 208 23 176 26 q 274 19 240 19 m 235 771 q 233 782 235 771 q 238 806 232 793 q 259 829 246 822 q 282 846 272 836 q 292 881 292 856 q 281 921 292 908 q 258 936 271 933 q 236 939 244 939 q 182 922 206 939 q 182 926 182 922 q 182 937 182 931 q 182 949 182 943 q 182 956 182 954 q 197 968 182 961 q 235 975 213 975 q 285 966 264 975 q 319 936 307 957 q 331 881 331 915 q 319 839 331 854 q 294 815 308 824 q 271 800 279 807 q 263 783 264 794 q 261 772 261 772 q 255 770 261 771 q 243 770 249 769 q 235 771 238 771 z "},"ā":{"ha":532,"x_min":61,"x_max":454,"o":"m 264 -14 q 191 -10 226 -15 q 126 15 156 -4 q 80 76 97 35 q 63 188 63 117 q 82 307 63 263 q 135 374 101 351 q 210 405 168 397 q 294 413 251 413 q 363 409 331 413 q 421 399 396 406 q 421 424 421 399 q 421 483 421 450 q 421 535 421 515 q 403 624 421 594 q 353 665 385 654 q 283 675 322 675 q 147 663 204 675 q 67 639 90 651 q 63 648 64 644 q 61 657 61 651 q 63 669 61 664 q 68 675 64 674 q 155 698 92 688 q 290 708 218 708 q 411 672 368 708 q 454 540 454 635 l 454 449 q 453 297 454 369 q 450 159 451 224 q 446 39 449 94 q 385 8 429 29 q 264 -14 342 -14 m 274 19 q 360 33 321 19 q 413 60 399 47 q 417 149 415 97 q 420 257 419 200 q 421 367 421 314 q 361 378 394 374 q 301 382 328 382 q 226 376 263 382 q 160 352 189 371 q 113 294 131 333 q 96 189 96 256 q 110 92 96 126 q 151 42 125 57 q 208 23 176 26 q 274 19 240 19 m 90 865 q 89 875 89 871 q 89 883 89 879 q 94 896 90 892 q 104 900 97 900 l 424 900 q 425 890 425 894 q 425 882 425 886 q 420 869 424 874 q 410 865 417 865 l 90 865 z "},"ą":{"ha":532,"x_min":61,"x_max":454,"o":"m 392 -271 q 319 -240 344 -271 q 294 -150 294 -208 q 311 -71 294 -108 q 350 -4 328 -33 q 310 -11 332 -8 q 264 -14 289 -14 q 191 -10 226 -15 q 126 15 156 -4 q 80 76 97 35 q 63 188 63 117 q 82 307 63 263 q 135 374 101 351 q 210 405 168 397 q 294 413 251 413 q 363 409 331 413 q 421 399 396 406 l 421 535 q 403 624 421 594 q 353 665 385 654 q 283 675 322 675 q 147 663 204 675 q 67 639 90 651 q 63 648 64 644 q 61 657 61 651 q 63 669 61 664 q 68 675 64 674 q 155 698 92 688 q 290 708 218 708 q 411 672 368 708 q 454 540 454 635 l 454 449 q 453 297 454 369 q 450 159 451 224 q 446 39 449 94 q 357 -51 386 -1 q 328 -150 328 -100 q 343 -215 328 -193 q 393 -237 358 -237 q 418 -234 408 -237 q 440 -225 428 -231 q 444 -229 443 -226 q 446 -235 444 -232 q 449 -246 449 -243 q 432 -265 449 -260 q 392 -271 415 -271 m 274 19 q 360 33 321 19 q 413 60 399 47 q 417 149 415 97 q 420 257 419 200 q 421 367 421 314 q 361 378 394 374 q 301 382 328 382 q 226 376 263 382 q 160 352 189 371 q 113 294 131 333 q 96 189 96 256 q 110 92 96 126 q 151 42 125 57 q 208 23 176 26 q 274 19 240 19 z "},"å":{"ha":532,"x_min":61,"x_max":454,"o":"m 264 -14 q 191 -10 226 -15 q 126 15 156 -4 q 80 76 97 35 q 63 188 63 117 q 82 307 63 263 q 135 374 101 351 q 210 405 168 397 q 294 413 251 413 q 363 409 331 413 q 421 399 396 406 q 421 424 421 399 q 421 483 421 450 q 421 535 421 515 q 403 624 421 594 q 353 665 385 654 q 283 675 322 675 q 147 663 204 675 q 67 639 90 651 q 63 648 64 644 q 61 657 61 651 q 63 669 61 664 q 68 675 64 674 q 155 698 92 688 q 290 708 218 708 q 411 672 368 708 q 454 540 454 635 l 454 449 q 453 297 454 369 q 450 159 451 224 q 446 39 449 94 q 385 8 429 29 q 264 -14 342 -14 m 274 19 q 360 33 321 19 q 413 60 399 47 q 417 149 415 97 q 420 257 419 200 q 421 367 421 314 q 361 378 394 374 q 301 382 328 382 q 226 376 263 382 q 160 352 189 371 q 113 294 131 333 q 96 189 96 256 q 110 92 96 126 q 151 42 125 57 q 208 23 176 26 q 274 19 240 19 m 253 788 q 174 813 204 788 q 143 903 143 839 q 176 991 143 963 q 263 1019 208 1019 q 344 994 317 1019 q 371 903 371 968 q 340 817 371 847 q 253 788 308 788 m 253 821 q 315 841 293 821 q 338 904 338 861 q 319 969 338 951 q 264 986 300 986 q 199 967 222 986 q 176 899 176 949 q 196 842 176 863 q 253 821 215 821 z "},"ã":{"ha":532,"x_min":61,"x_max":454,"o":"m 264 -14 q 191 -10 226 -15 q 126 15 156 -4 q 80 76 97 35 q 63 188 63 117 q 82 307 63 263 q 135 374 101 351 q 210 405 168 397 q 294 413 251 413 q 363 409 331 413 q 421 399 396 406 q 421 424 421 399 q 421 483 421 450 q 421 535 421 515 q 403 624 421 594 q 353 665 385 654 q 283 675 322 675 q 147 663 204 675 q 67 639 90 651 q 63 648 64 644 q 61 657 61 651 q 63 669 61 664 q 68 675 64 674 q 155 698 92 688 q 290 708 218 708 q 411 672 368 708 q 454 540 454 635 l 454 449 q 453 297 454 369 q 450 159 451 224 q 446 39 449 94 q 385 8 429 29 q 264 -14 342 -14 m 274 19 q 360 33 321 19 q 413 60 399 47 q 417 149 415 97 q 420 257 419 200 q 421 367 421 314 q 361 378 394 374 q 301 382 328 382 q 226 376 263 382 q 160 352 189 371 q 113 294 131 333 q 96 189 96 256 q 110 92 96 126 q 151 42 125 57 q 208 23 176 26 q 274 19 240 19 m 324 825 q 272 838 292 825 q 239 866 253 850 q 213 894 225 882 q 182 907 200 907 q 134 889 153 907 q 105 852 115 871 q 88 833 94 833 q 78 838 83 833 q 69 848 72 843 q 65 853 65 853 q 126 921 97 906 q 190 936 154 936 q 231 924 215 936 q 258 898 246 913 q 285 872 269 883 q 324 860 300 860 q 383 878 363 860 q 413 914 403 896 q 428 932 422 932 q 439 927 435 932 q 446 917 443 922 q 449 911 449 911 q 432 882 442 897 q 408 853 422 867 q 374 833 394 840 q 324 825 353 825 z "},"æ":{"ha":925,"x_min":63,"x_max":847,"o":"m 658 -11 q 565 -1 608 -11 q 490 40 522 8 q 441 136 458 72 q 424 307 424 200 q 447 528 424 447 q 507 648 469 610 q 588 697 544 686 q 674 708 632 708 q 808 651 768 708 q 847 499 847 593 q 845 416 847 458 q 838 342 843 374 q 707 331 775 329 q 581 339 639 332 q 486 353 522 346 q 450 360 450 360 l 450 393 q 487 386 450 393 q 580 372 524 379 q 697 363 636 364 q 808 371 758 361 q 813 430 811 403 q 814 482 814 457 q 785 624 813 574 q 675 675 757 675 q 604 667 642 675 q 533 624 567 658 q 478 513 499 589 q 457 301 457 438 q 472 148 457 204 q 515 65 488 92 q 579 30 543 38 q 657 22 615 22 q 756 35 708 22 q 835 74 804 49 q 840 56 839 65 q 842 40 842 46 q 816 21 842 33 q 749 -1 790 8 q 658 -11 707 -11 m 274 19 q 364 31 321 19 q 421 57 407 43 l 421 367 q 361 378 394 374 q 301 382 328 382 q 226 376 263 382 q 160 351 189 371 q 113 292 131 332 q 96 182 96 251 q 122 71 96 106 q 188 28 147 36 q 274 19 229 19 m 264 -11 q 191 -8 226 -12 q 126 17 156 -3 q 80 76 97 36 q 63 188 63 117 q 82 307 63 263 q 135 374 101 351 q 210 405 168 397 q 294 413 251 413 q 363 409 331 413 q 421 399 396 406 q 421 424 421 399 q 421 483 421 450 q 421 535 421 515 q 402 624 421 594 q 351 665 383 654 q 275 675 318 675 q 156 663 208 675 q 72 633 103 651 q 69 643 71 639 q 68 653 68 647 q 72 665 68 660 q 79 672 75 671 q 154 697 103 685 q 286 708 206 708 q 410 672 367 708 q 454 540 454 635 l 454 31 q 390 5 438 21 q 264 -11 342 -11 z "},"b":{"ha":586,"x_min":97,"x_max":528,"o":"m 257 -14 q 164 -3 203 -14 q 97 28 125 7 l 97 1000 q 101 1015 97 1011 q 112 1020 104 1019 q 131 1021 119 1021 l 131 643 q 217 691 169 674 q 333 708 264 708 q 434 684 390 708 q 503 603 478 660 q 528 450 528 547 q 510 242 528 326 q 464 108 493 158 q 399 31 435 57 q 327 -5 364 4 q 257 -14 290 -14 m 258 19 q 333 33 292 19 q 410 87 374 46 q 471 210 447 128 q 494 432 494 293 q 476 579 494 526 q 419 653 457 632 q 321 675 381 675 q 219 658 267 675 q 131 601 171 640 l 131 51 q 176 30 146 40 q 258 19 207 19 z "},"c":{"ha":489,"x_min":69,"x_max":442,"o":"m 279 -14 q 199 -2 236 -14 q 132 45 161 10 q 86 149 103 81 q 69 332 69 218 q 92 532 69 457 q 153 645 115 607 q 236 696 192 683 q 322 708 281 708 q 403 693 367 708 q 439 661 439 678 q 437 649 439 657 q 431 636 435 642 q 384 663 414 650 q 313 675 354 675 q 242 664 279 675 q 174 618 206 653 q 122 513 142 583 q 103 325 103 443 q 117 166 103 226 q 155 74 131 106 q 213 30 179 42 q 285 18 246 18 q 377 36 339 18 q 433 74 415 54 q 440 62 438 68 q 442 49 442 56 q 397 9 442 32 q 279 -14 351 -14 z "},"ć":{"ha":489,"x_min":69,"x_max":442,"o":"m 279 -14 q 199 -2 236 -14 q 132 45 161 10 q 86 149 103 81 q 69 332 69 218 q 92 532 69 457 q 153 645 115 607 q 236 696 192 683 q 322 708 281 708 q 403 693 367 708 q 439 661 439 678 q 437 649 439 657 q 431 636 435 642 q 384 663 414 650 q 313 675 354 675 q 242 664 279 675 q 174 618 206 653 q 122 513 142 583 q 103 325 103 443 q 117 166 103 226 q 155 74 131 106 q 213 30 179 42 q 285 18 246 18 q 377 36 339 18 q 433 74 415 54 q 440 62 438 68 q 442 49 442 56 q 397 9 442 32 q 279 -14 351 -14 m 190 804 q 187 810 190 804 q 180 821 183 815 q 176 826 176 826 q 245 888 211 858 q 308 940 279 917 q 353 976 336 963 q 369 989 369 989 q 383 973 378 989 q 388 957 388 957 q 372 944 388 957 q 328 908 356 931 q 266 859 301 886 q 190 804 231 832 z "},"č":{"ha":489,"x_min":69,"x_max":442,"o":"m 279 -14 q 199 -2 236 -14 q 132 45 161 10 q 86 149 103 81 q 69 332 69 218 q 92 532 69 457 q 153 645 115 607 q 236 696 192 683 q 322 708 281 708 q 403 693 367 708 q 439 661 439 678 q 437 649 439 657 q 431 636 435 642 q 384 663 414 650 q 313 675 354 675 q 242 664 279 675 q 174 618 206 653 q 122 513 142 583 q 103 325 103 443 q 117 166 103 226 q 155 74 131 106 q 213 30 179 42 q 285 18 246 18 q 377 36 339 18 q 433 74 415 54 q 440 62 438 68 q 442 49 442 56 q 397 9 442 32 q 279 -14 351 -14 m 293 814 q 269 830 288 814 q 225 870 250 846 q 176 919 200 894 q 138 959 153 943 q 122 975 122 975 q 129 985 122 975 q 146 994 136 994 q 165 980 149 994 q 202 944 181 965 q 244 900 224 922 q 278 863 264 878 q 292 849 292 849 q 352 920 321 885 q 404 979 383 956 q 425 1003 425 1003 q 437 992 432 997 q 442 981 442 988 q 428 960 442 978 q 394 917 414 942 q 352 869 374 893 q 314 830 331 846 q 293 814 297 814 z "},"ç":{"ha":489,"x_min":69,"x_max":442,"o":"m 279 -14 q 199 -2 236 -14 q 132 45 161 10 q 86 149 103 81 q 69 332 69 218 q 92 532 69 457 q 153 645 115 607 q 236 696 192 683 q 322 708 281 708 q 403 693 367 708 q 439 661 439 678 q 437 649 439 657 q 431 636 435 642 q 384 663 414 650 q 313 675 354 675 q 242 664 279 675 q 174 618 206 653 q 122 513 142 583 q 103 325 103 443 q 117 166 103 226 q 155 74 131 106 q 213 30 179 42 q 285 18 246 18 q 377 36 339 18 q 433 74 415 54 q 440 62 438 68 q 442 49 442 56 q 397 9 442 32 q 279 -14 351 -14 m 297 -246 q 250 -242 271 -246 q 229 -237 229 -237 q 230 -231 229 -237 q 233 -217 231 -225 q 239 -206 235 -210 q 262 -206 246 -199 q 297 -214 278 -214 q 333 -203 317 -214 q 350 -161 350 -192 q 334 -119 350 -128 q 299 -111 318 -111 q 266 -115 282 -111 q 250 -118 250 -118 l 276 4 l 311 4 l 292 -85 q 299 -83 292 -85 q 318 -82 306 -82 q 363 -98 342 -82 q 383 -153 383 -114 q 369 -212 383 -192 q 335 -239 356 -232 q 297 -246 315 -246 z "},"d":{"ha":586,"x_min":69,"x_max":489,"o":"m 296 -14 q 208 -3 249 -14 q 135 43 167 8 q 87 147 104 78 q 69 335 69 217 q 104 547 69 464 q 197 669 139 629 q 324 708 256 708 q 396 701 364 708 q 454 675 428 694 l 454 1000 q 458 1015 454 1011 q 469 1020 461 1019 q 489 1021 478 1021 l 489 28 q 405 -2 456 10 q 296 -14 354 -14 m 306 19 q 386 28 347 19 q 456 54 425 36 l 454 636 q 401 667 428 658 q 328 675 375 675 q 240 653 281 675 q 168 589 199 632 q 120 483 138 546 q 103 335 103 419 q 118 163 103 226 q 160 69 133 100 q 224 29 188 39 q 306 19 261 19 z "},"ð":{"ha":625,"x_min":65,"x_max":565,"o":"m 318 -14 q 180 25 236 -14 q 94 145 124 64 q 65 356 65 226 q 131 617 65 529 q 321 706 197 706 q 463 666 401 706 q 550 540 524 626 l 550 488 q 457 626 515 581 q 322 672 399 672 q 203 638 253 672 q 126 534 153 604 q 99 356 99 464 q 158 97 99 175 q 318 19 217 19 q 433 53 390 19 q 497 145 475 88 q 525 274 518 203 q 532 417 532 344 q 516 595 532 511 q 465 753 500 679 q 372 892 429 828 q 232 1013 314 957 q 240 1027 235 1022 q 251 1032 246 1032 q 261 1030 256 1032 q 269 1025 267 1028 q 495 767 425 917 q 565 401 565 618 q 556 247 565 321 q 522 113 547 172 q 447 20 496 54 q 318 -14 397 -14 m 232 849 q 223 876 224 869 q 232 886 222 882 l 486 989 q 495 961 494 967 q 486 951 496 956 l 232 849 z "},"ď":{"ha":610,"x_min":69,"x_max":622,"o":"m 296 -14 q 208 -3 249 -14 q 135 43 167 8 q 87 147 104 78 q 69 335 69 217 q 104 547 69 464 q 197 669 139 629 q 324 708 256 708 q 396 701 364 708 q 454 675 428 694 l 454 1000 q 458 1015 454 1011 q 469 1020 461 1019 q 489 1021 478 1021 l 489 28 q 405 -2 456 10 q 296 -14 354 -14 m 306 19 q 386 28 347 19 q 456 54 425 36 l 454 636 q 401 667 428 658 q 328 675 375 675 q 240 653 281 675 q 168 589 199 632 q 120 483 138 546 q 103 335 103 419 q 118 163 103 226 q 160 69 133 100 q 224 29 188 39 q 306 19 261 19 m 561 744 q 550 750 556 744 q 543 761 544 756 q 570 863 569 824 q 563 930 571 901 q 556 988 556 958 q 563 1017 556 1006 q 588 1028 571 1028 q 613 1017 603 1028 q 622 979 622 1006 q 615 912 622 951 q 599 834 608 872 q 578 770 589 796 q 561 744 568 744 z "},"đ":{"ha":553,"x_min":69,"x_max":564,"o":"m 296 -14 q 208 -3 249 -14 q 135 43 167 8 q 87 147 104 78 q 69 335 69 217 q 104 547 69 464 q 197 669 139 629 q 324 708 256 708 q 396 701 364 708 q 454 675 428 694 l 454 1000 q 458 1015 454 1011 q 469 1020 461 1019 q 489 1021 478 1021 l 489 28 q 405 -2 456 10 q 296 -14 354 -14 m 306 19 q 386 28 347 19 q 456 54 425 36 l 454 636 q 401 667 428 658 q 328 675 375 675 q 240 653 281 675 q 168 589 199 632 q 120 483 138 546 q 103 335 103 419 q 118 163 103 226 q 160 69 133 100 q 224 29 188 39 q 306 19 261 19 m 229 851 q 228 861 228 857 q 228 869 228 865 q 233 882 229 878 q 243 886 236 886 l 563 886 q 564 876 564 881 q 564 868 564 872 q 559 856 563 860 q 549 851 556 851 l 229 851 z "},"e":{"ha":542,"x_min":65,"x_max":489,"o":"m 300 -14 q 207 -3 250 -14 q 132 39 164 7 q 83 135 100 71 q 65 307 65 200 q 89 526 65 444 q 150 646 113 607 q 231 697 188 685 q 315 708 275 708 q 449 647 410 708 q 489 492 489 586 q 487 413 489 451 q 479 342 485 374 q 349 324 417 329 q 222 317 281 318 q 128 316 164 315 q 92 317 92 317 l 92 350 q 128 349 92 350 q 222 350 165 349 q 339 356 278 351 q 450 371 400 361 q 454 426 453 403 q 456 475 456 450 q 426 621 454 567 q 317 675 399 675 q 246 667 283 675 q 174 624 208 658 q 119 513 140 589 q 99 301 99 436 q 114 148 99 204 q 157 64 129 92 q 221 28 185 36 q 299 19 257 19 q 398 33 350 19 q 476 71 446 46 q 482 56 481 63 q 483 44 483 49 q 458 21 483 35 q 390 -3 432 7 q 300 -14 349 -14 z "},"é":{"ha":542,"x_min":65,"x_max":489,"o":"m 300 -14 q 207 -3 250 -14 q 132 39 164 7 q 83 135 100 71 q 65 307 65 200 q 89 526 65 444 q 150 646 113 607 q 231 697 188 685 q 315 708 275 708 q 449 647 410 708 q 489 492 489 586 q 487 413 489 451 q 479 342 485 374 q 349 324 417 329 q 222 317 281 318 q 128 316 164 315 q 92 317 92 317 l 92 350 q 128 349 92 350 q 222 350 165 349 q 339 356 278 351 q 450 371 400 361 q 454 426 453 403 q 456 475 456 450 q 426 621 454 567 q 317 675 399 675 q 246 667 283 675 q 174 624 208 658 q 119 513 140 589 q 99 301 99 436 q 114 148 99 204 q 157 64 129 92 q 221 28 185 36 q 299 19 257 19 q 398 33 350 19 q 476 71 446 46 q 482 56 481 63 q 483 44 483 49 q 458 21 483 35 q 390 -3 432 7 q 300 -14 349 -14 m 214 804 q 210 810 214 804 q 203 821 207 815 q 200 826 200 826 q 269 888 235 858 q 331 940 303 917 q 376 976 360 963 q 393 989 393 989 q 406 973 401 989 q 411 957 411 957 q 395 944 411 957 q 352 908 379 931 q 290 859 325 886 q 214 804 254 832 z "},"ě":{"ha":542,"x_min":65,"x_max":489,"o":"m 300 -14 q 207 -3 250 -14 q 132 39 164 7 q 83 135 100 71 q 65 307 65 200 q 89 526 65 444 q 150 646 113 607 q 231 697 188 685 q 315 708 275 708 q 449 647 410 708 q 489 492 489 586 q 487 413 489 451 q 479 342 485 374 q 349 324 417 329 q 222 317 281 318 q 128 316 164 315 q 92 317 92 317 l 92 350 q 128 349 92 350 q 222 350 165 349 q 339 356 278 351 q 450 371 400 361 q 454 426 453 403 q 456 475 456 450 q 426 621 454 567 q 317 675 399 675 q 246 667 283 675 q 174 624 208 658 q 119 513 140 589 q 99 301 99 436 q 114 148 99 204 q 157 64 129 92 q 221 28 185 36 q 299 19 257 19 q 398 33 350 19 q 476 71 446 46 q 482 56 481 63 q 483 44 483 49 q 458 21 483 35 q 390 -3 432 7 q 300 -14 349 -14 m 317 814 q 292 830 311 814 q 249 870 274 846 q 200 919 224 894 q 161 959 176 943 q 146 975 146 975 q 153 985 146 975 q 169 994 160 994 q 188 980 172 994 q 226 944 204 965 q 267 900 247 922 q 301 863 288 878 q 315 849 315 849 q 376 920 344 885 q 428 979 407 956 q 449 1003 449 1003 q 460 992 456 997 q 465 981 465 988 q 451 960 465 978 q 417 917 438 942 q 376 869 397 893 q 338 830 354 846 q 317 814 321 814 z "},"ê":{"ha":542,"x_min":65,"x_max":489,"o":"m 300 -14 q 207 -3 250 -14 q 132 39 164 7 q 83 135 100 71 q 65 307 65 200 q 89 526 65 444 q 150 646 113 607 q 231 697 188 685 q 315 708 275 708 q 449 647 410 708 q 489 492 489 586 q 487 413 489 451 q 479 342 485 374 q 349 324 417 329 q 222 317 281 318 q 128 316 164 315 q 92 317 92 317 l 92 350 q 128 349 92 350 q 222 350 165 349 q 339 356 278 351 q 450 371 400 361 q 454 426 453 403 q 456 475 456 450 q 426 621 454 567 q 317 675 399 675 q 246 667 283 675 q 174 624 208 658 q 119 513 140 589 q 99 301 99 436 q 114 148 99 204 q 157 64 129 92 q 221 28 185 36 q 299 19 257 19 q 398 33 350 19 q 476 71 446 46 q 482 56 481 63 q 483 44 483 49 q 458 21 483 35 q 390 -3 432 7 q 300 -14 349 -14 m 433 806 q 415 826 433 806 q 372 872 396 846 q 328 917 347 897 q 310 938 310 938 q 290 918 310 938 q 245 872 271 899 q 198 826 219 846 q 174 807 176 807 q 153 816 160 807 q 147 825 147 825 l 300 968 q 311 971 303 971 q 320 969 315 971 q 331 961 325 967 q 351 941 331 961 q 397 894 371 921 q 444 848 424 868 q 464 828 464 828 q 455 817 464 828 q 433 806 446 806 z "},"ế":{"ha":542,"x_min":65,"x_max":668,"o":"m 300 -14 q 207 -3 250 -14 q 132 39 164 7 q 83 135 100 71 q 65 307 65 200 q 89 526 65 444 q 150 646 113 607 q 231 697 188 685 q 315 708 275 708 q 449 647 410 708 q 489 492 489 586 q 487 413 489 451 q 479 342 485 374 q 349 324 417 329 q 222 317 281 318 q 128 316 164 315 q 92 317 92 317 l 92 350 q 128 349 92 350 q 222 350 165 349 q 339 356 278 351 q 450 371 400 361 q 454 426 453 403 q 456 475 456 450 q 426 621 454 567 q 317 675 399 675 q 246 667 283 675 q 174 624 208 658 q 119 513 140 589 q 99 301 99 436 q 114 148 99 204 q 157 64 129 92 q 221 28 185 36 q 299 19 257 19 q 398 33 350 19 q 476 71 446 46 q 482 56 481 63 q 483 44 483 49 q 458 21 483 35 q 390 -3 432 7 q 300 -14 349 -14 m 433 806 q 415 826 433 806 q 372 872 396 846 q 328 917 347 897 q 310 938 310 938 q 290 918 310 938 q 245 872 271 899 q 198 826 219 846 q 174 807 176 807 q 153 816 160 807 q 147 825 147 825 l 300 968 q 311 971 303 971 q 331 961 321 971 q 351 941 331 961 q 397 894 371 921 q 444 848 424 868 q 464 828 464 828 q 455 817 464 828 q 433 806 446 806 m 471 922 q 467 928 471 922 q 460 939 464 933 q 457 944 457 944 q 526 1006 492 976 q 588 1058 560 1035 q 633 1094 617 1081 q 650 1107 650 1107 q 663 1091 658 1107 q 668 1075 668 1075 q 652 1062 668 1075 q 609 1026 636 1049 q 547 977 582 1004 q 471 922 511 950 z "},"ệ":{"ha":542,"x_min":65,"x_max":489,"o":"m 300 -14 q 207 -3 250 -14 q 132 39 164 7 q 83 135 100 71 q 65 307 65 200 q 89 526 65 444 q 150 646 113 607 q 231 697 188 685 q 315 708 275 708 q 449 647 410 708 q 489 492 489 586 q 487 413 489 451 q 479 342 485 374 q 349 324 417 329 q 222 317 281 318 q 128 316 164 315 q 92 317 92 317 l 92 350 q 128 349 92 350 q 222 350 165 349 q 339 356 278 351 q 450 371 400 361 q 454 426 453 403 q 456 475 456 450 q 426 621 454 567 q 317 675 399 675 q 246 667 283 675 q 174 624 208 658 q 119 513 140 589 q 99 301 99 436 q 114 148 99 204 q 157 64 129 92 q 221 28 185 36 q 299 19 257 19 q 398 33 350 19 q 476 71 446 46 q 482 56 481 63 q 483 44 483 49 q 458 21 483 35 q 390 -3 432 7 q 300 -14 349 -14 m 433 806 q 415 826 433 806 q 372 872 396 846 q 328 917 347 897 q 310 938 310 938 q 290 918 310 938 q 245 872 271 899 q 198 826 219 846 q 174 807 176 807 q 153 816 160 807 q 147 825 147 825 l 300 968 q 311 971 303 971 q 320 969 315 971 q 331 961 325 967 q 351 941 331 961 q 397 894 371 921 q 444 848 424 868 q 464 828 464 828 q 455 817 464 828 q 433 806 446 806 z "},"ề":{"ha":542,"x_min":65,"x_max":489,"o":"m 300 -14 q 207 -3 250 -14 q 132 39 164 7 q 83 135 100 71 q 65 307 65 200 q 89 526 65 444 q 150 646 113 607 q 231 697 188 685 q 315 708 275 708 q 449 647 410 708 q 489 492 489 586 q 487 413 489 451 q 479 342 485 374 q 349 324 417 329 q 222 317 281 318 q 128 316 164 315 q 92 317 92 317 l 92 350 q 128 349 92 350 q 222 350 165 349 q 339 356 278 351 q 450 371 400 361 q 454 426 453 403 q 456 475 456 450 q 426 621 454 567 q 317 675 399 675 q 246 667 283 675 q 174 624 208 658 q 119 513 140 589 q 99 301 99 436 q 114 148 99 204 q 157 64 129 92 q 221 28 185 36 q 299 19 257 19 q 398 33 350 19 q 476 71 446 46 q 482 56 481 63 q 483 44 483 49 q 458 21 483 35 q 390 -3 432 7 q 300 -14 349 -14 m 433 806 q 415 826 433 806 q 372 872 396 846 q 328 917 347 897 q 310 938 310 938 q 290 918 310 938 q 245 872 271 899 q 198 826 219 846 q 174 807 176 807 q 153 816 160 807 q 147 825 147 825 l 300 968 q 311 971 303 971 q 331 961 321 971 q 351 941 331 961 q 397 894 371 921 q 444 848 424 868 q 464 828 464 828 q 455 817 464 828 q 433 806 446 806 m 432 974 q 357 1028 393 1001 q 294 1078 321 1056 q 251 1113 267 1100 q 235 1126 235 1126 q 240 1142 235 1126 q 253 1158 244 1158 q 269 1145 253 1158 q 315 1109 286 1132 q 377 1057 343 1086 q 446 996 411 1028 q 442 990 446 996 q 435 979 439 985 q 432 974 432 974 z "},"ể":{"ha":542,"x_min":65,"x_max":547,"o":"m 300 -14 q 207 -3 250 -14 q 132 39 164 7 q 83 135 100 71 q 65 307 65 200 q 89 526 65 444 q 150 646 113 607 q 231 697 188 685 q 315 708 275 708 q 449 647 410 708 q 489 492 489 586 q 487 413 489 451 q 479 342 485 374 q 349 324 417 329 q 222 317 281 318 q 128 316 164 315 q 92 317 92 317 l 92 350 q 128 349 92 350 q 222 350 165 349 q 339 356 278 351 q 450 371 400 361 q 454 426 453 403 q 456 475 456 450 q 426 621 454 567 q 317 675 399 675 q 246 667 283 675 q 174 624 208 658 q 119 513 140 589 q 99 301 99 436 q 114 148 99 204 q 157 64 129 92 q 221 28 185 36 q 299 19 257 19 q 398 33 350 19 q 476 71 446 46 q 482 56 481 63 q 483 44 483 49 q 458 21 483 35 q 390 -3 432 7 q 300 -14 349 -14 m 433 806 q 415 826 433 806 q 372 872 396 846 q 328 917 347 897 q 310 938 310 938 q 290 918 310 938 q 245 872 271 899 q 198 826 219 846 q 174 807 176 807 q 153 816 160 807 q 147 825 147 825 l 300 968 q 311 971 303 971 q 331 961 321 971 q 351 941 331 961 q 397 894 371 921 q 444 848 424 868 q 464 828 464 828 q 455 817 464 828 q 433 806 446 806 m 451 936 q 450 947 451 936 q 454 971 449 958 q 476 994 463 988 q 499 1011 489 1001 q 508 1046 508 1021 q 498 1086 508 1074 q 474 1101 488 1099 q 453 1104 461 1104 q 399 1088 422 1104 q 399 1094 399 1088 q 399 1110 399 1101 q 399 1121 399 1118 q 414 1133 399 1126 q 451 1140 429 1140 q 502 1131 481 1140 q 535 1101 524 1122 q 547 1046 547 1081 q 536 1004 547 1019 q 510 981 525 989 q 488 965 496 972 q 479 949 481 960 q 478 938 478 938 q 472 935 478 936 q 460 935 465 935 q 451 936 454 936 z "},"ễ":{"ha":542,"x_min":65,"x_max":518,"o":"m 300 -14 q 207 -3 250 -14 q 132 39 164 7 q 83 135 100 71 q 65 307 65 200 q 89 526 65 444 q 150 646 113 607 q 231 697 188 685 q 315 708 275 708 q 449 647 410 708 q 489 492 489 586 q 487 413 489 451 q 479 342 485 374 q 349 324 417 329 q 222 317 281 318 q 128 316 164 315 q 92 317 92 317 l 92 350 q 128 349 92 350 q 222 350 165 349 q 339 356 278 351 q 450 371 400 361 q 454 426 453 403 q 456 475 456 450 q 426 621 454 567 q 317 675 399 675 q 246 667 283 675 q 174 624 208 658 q 119 513 140 589 q 99 301 99 436 q 114 148 99 204 q 157 64 129 92 q 221 28 185 36 q 299 19 257 19 q 398 33 350 19 q 476 71 446 46 q 482 56 481 63 q 483 44 483 49 q 458 21 483 35 q 390 -3 432 7 q 300 -14 349 -14 m 433 806 q 415 826 433 806 q 372 872 396 846 q 328 917 347 897 q 310 938 310 938 q 290 918 310 938 q 245 872 271 899 q 198 826 219 846 q 174 807 176 807 q 153 816 160 807 q 147 825 147 825 l 300 968 q 311 971 303 971 q 331 961 321 971 q 351 941 331 961 q 397 894 371 921 q 444 848 424 868 q 464 828 464 828 q 455 817 464 828 q 433 806 446 806 m 393 1006 q 342 1018 361 1006 q 308 1047 322 1031 q 282 1075 294 1063 q 251 1088 269 1088 q 203 1069 222 1088 q 174 1033 185 1051 q 157 1014 164 1014 q 147 1019 153 1014 q 138 1028 142 1024 q 135 1033 135 1033 q 195 1101 167 1086 q 260 1117 224 1117 q 300 1105 285 1117 q 327 1078 315 1093 q 354 1052 339 1064 q 393 1040 369 1040 q 452 1058 432 1040 q 482 1094 472 1076 q 497 1113 492 1113 q 508 1108 504 1113 q 515 1097 513 1103 q 518 1092 518 1092 q 501 1063 511 1078 q 478 1034 492 1047 q 443 1013 464 1021 q 393 1006 422 1006 z "},"ë":{"ha":542,"x_min":65,"x_max":489,"o":"m 300 -14 q 207 -3 250 -14 q 132 39 164 7 q 83 135 100 71 q 65 307 65 200 q 89 526 65 444 q 150 646 113 607 q 231 697 188 685 q 315 708 275 708 q 449 647 410 708 q 489 492 489 586 q 487 413 489 451 q 479 342 485 374 q 349 324 417 329 q 222 317 281 318 q 128 316 164 315 q 92 317 92 317 l 92 350 q 128 349 92 350 q 222 350 165 349 q 339 356 278 351 q 450 371 400 361 q 454 426 453 403 q 456 475 456 450 q 426 621 454 567 q 317 675 399 675 q 246 667 283 675 q 174 624 208 658 q 119 513 140 589 q 99 301 99 436 q 114 148 99 204 q 157 64 129 92 q 221 28 185 36 q 299 19 257 19 q 398 33 350 19 q 476 71 446 46 q 482 56 481 63 q 483 44 483 49 q 458 21 483 35 q 390 -3 432 7 q 300 -14 349 -14 m 235 853 q 215 864 221 854 q 211 892 210 874 q 219 921 213 911 q 238 931 225 931 q 258 919 251 931 q 263 889 264 908 q 256 862 261 871 q 235 853 250 853 m 374 853 q 354 864 360 854 q 350 892 349 874 q 358 921 351 911 q 376 931 364 931 q 397 919 390 931 q 401 889 403 908 q 394 862 400 871 q 374 853 389 853 z "},"ė":{"ha":542,"x_min":65,"x_max":489,"o":"m 300 -14 q 207 -3 250 -14 q 132 39 164 7 q 83 135 100 71 q 65 307 65 200 q 89 526 65 444 q 150 646 113 607 q 231 697 188 685 q 315 708 275 708 q 449 647 410 708 q 489 492 489 586 q 487 413 489 451 q 479 342 485 374 q 349 324 417 329 q 222 317 281 318 q 128 316 164 315 q 92 317 92 317 l 92 350 q 128 349 92 350 q 222 350 165 349 q 339 356 278 351 q 450 371 400 361 q 454 426 453 403 q 456 475 456 450 q 426 621 454 567 q 317 675 399 675 q 246 667 283 675 q 174 624 208 658 q 119 513 140 589 q 99 301 99 436 q 114 148 99 204 q 157 64 129 92 q 221 28 185 36 q 299 19 257 19 q 398 33 350 19 q 476 71 446 46 q 482 56 481 63 q 483 44 483 49 q 458 21 483 35 q 390 -3 432 7 q 300 -14 349 -14 m 304 853 q 285 864 290 854 q 281 892 279 874 q 288 921 282 911 q 307 931 294 931 q 327 919 321 931 q 332 889 333 908 q 325 862 331 871 q 304 853 319 853 z "},"ẹ":{"ha":542,"x_min":65,"x_max":489,"o":"m 300 -14 q 207 -3 250 -14 q 132 39 164 7 q 83 135 100 71 q 65 307 65 200 q 89 526 65 444 q 150 646 113 607 q 231 697 188 685 q 315 708 275 708 q 449 647 410 708 q 489 492 489 586 q 487 413 489 451 q 479 342 485 374 q 349 324 417 329 q 222 317 281 318 q 128 316 164 315 q 92 317 92 317 l 92 350 q 128 349 92 350 q 222 350 165 349 q 339 356 278 351 q 450 371 400 361 q 454 426 453 403 q 456 475 456 450 q 426 621 454 567 q 317 675 399 675 q 246 667 283 675 q 174 624 208 658 q 119 513 140 589 q 99 301 99 436 q 114 148 99 204 q 157 64 129 92 q 221 28 185 36 q 299 19 257 19 q 398 33 350 19 q 476 71 446 46 q 482 56 481 63 q 483 44 483 49 q 458 21 483 35 q 390 -3 432 7 q 300 -14 349 -14 z "},"è":{"ha":542,"x_min":65,"x_max":489,"o":"m 300 -14 q 207 -3 250 -14 q 132 39 164 7 q 83 135 100 71 q 65 307 65 200 q 89 526 65 444 q 150 646 113 607 q 231 697 188 685 q 315 708 275 708 q 449 647 410 708 q 489 492 489 586 q 487 413 489 451 q 479 342 485 374 q 349 324 417 329 q 222 317 281 318 q 128 316 164 315 q 92 317 92 317 l 92 350 q 128 349 92 350 q 222 350 165 349 q 339 356 278 351 q 450 371 400 361 q 454 426 453 403 q 456 475 456 450 q 426 621 454 567 q 317 675 399 675 q 246 667 283 675 q 174 624 208 658 q 119 513 140 589 q 99 301 99 436 q 114 148 99 204 q 157 64 129 92 q 221 28 185 36 q 299 19 257 19 q 398 33 350 19 q 476 71 446 46 q 482 56 481 63 q 483 44 483 49 q 458 21 483 35 q 390 -3 432 7 q 300 -14 349 -14 m 397 804 q 322 859 358 832 q 259 908 286 886 q 216 944 232 931 q 200 957 200 957 q 205 973 200 957 q 218 989 210 989 q 235 976 218 989 q 280 940 251 963 q 342 888 308 917 q 411 826 376 858 q 408 821 411 826 q 401 810 404 815 q 397 804 397 804 z "},"ẻ":{"ha":542,"x_min":65,"x_max":489,"o":"m 300 -14 q 207 -3 250 -14 q 132 39 164 7 q 83 135 100 71 q 65 307 65 200 q 89 526 65 444 q 150 646 113 607 q 231 697 188 685 q 315 708 275 708 q 449 647 410 708 q 489 492 489 586 q 487 413 489 451 q 479 342 485 374 q 349 324 417 329 q 222 317 281 318 q 128 316 164 315 q 92 317 92 317 l 92 350 q 128 349 92 350 q 222 350 165 349 q 339 356 278 351 q 450 371 400 361 q 454 426 453 403 q 456 475 456 450 q 426 621 454 567 q 317 675 399 675 q 246 667 283 675 q 174 624 208 658 q 119 513 140 589 q 99 301 99 436 q 114 148 99 204 q 157 64 129 92 q 221 28 185 36 q 299 19 257 19 q 398 33 350 19 q 476 71 446 46 q 482 56 481 63 q 483 44 483 49 q 458 21 483 35 q 390 -3 432 7 q 300 -14 349 -14 m 283 771 q 282 782 283 771 q 286 806 281 793 q 308 829 294 822 q 331 846 321 836 q 340 881 340 856 q 330 921 340 908 q 306 936 319 933 q 285 939 293 939 q 231 922 254 939 q 231 926 231 922 q 231 937 231 931 q 231 949 231 943 q 231 956 231 954 q 246 968 231 961 q 283 975 261 975 q 334 966 313 975 q 367 936 356 957 q 379 881 379 915 q 368 839 379 854 q 342 815 357 824 q 319 800 328 807 q 311 783 313 794 q 310 772 310 772 q 303 770 310 771 q 292 770 297 769 q 283 771 286 771 z "},"ē":{"ha":542,"x_min":65,"x_max":489,"o":"m 300 -14 q 207 -3 250 -14 q 132 39 164 7 q 83 135 100 71 q 65 307 65 200 q 89 526 65 444 q 150 646 113 607 q 231 697 188 685 q 315 708 275 708 q 449 647 410 708 q 489 492 489 586 q 487 413 489 451 q 479 342 485 374 q 349 324 417 329 q 222 317 281 318 q 128 316 164 315 q 92 317 92 317 l 92 350 q 128 349 92 350 q 222 350 165 349 q 339 356 278 351 q 450 371 400 361 q 454 426 453 403 q 456 475 456 450 q 426 621 454 567 q 317 675 399 675 q 246 667 283 675 q 174 624 208 658 q 119 513 140 589 q 99 301 99 436 q 114 148 99 204 q 157 64 129 92 q 221 28 185 36 q 299 19 257 19 q 398 33 350 19 q 476 71 446 46 q 482 56 481 63 q 483 44 483 49 q 458 21 483 35 q 390 -3 432 7 q 300 -14 349 -14 m 139 865 q 138 875 138 871 q 138 883 138 879 q 142 896 139 892 q 153 900 146 900 l 472 900 q 474 890 474 894 q 474 882 474 886 q 469 869 472 874 q 458 865 465 865 l 139 865 z "},"ę":{"ha":542,"x_min":65,"x_max":489,"o":"m 431 -271 q 358 -243 383 -271 q 333 -164 333 -215 q 353 -75 333 -118 q 397 -1 374 -32 q 351 -10 376 -7 q 300 -14 326 -14 q 207 -3 250 -14 q 132 39 164 7 q 83 135 100 71 q 65 307 65 200 q 89 526 65 444 q 150 646 113 607 q 231 697 188 685 q 315 708 275 708 q 449 647 410 708 q 489 492 489 586 q 487 413 489 451 q 479 342 485 374 q 362 325 422 331 q 247 318 301 319 q 153 317 193 317 q 99 317 114 317 q 115 152 99 213 q 158 63 131 92 q 222 27 186 35 q 299 19 258 19 q 398 33 350 19 q 476 71 446 46 q 482 56 481 63 q 483 44 483 49 q 476 33 483 39 q 463 22 468 26 q 397 -56 426 -3 q 367 -164 367 -110 q 382 -219 367 -200 q 432 -237 397 -237 q 457 -234 447 -237 q 479 -225 467 -231 q 483 -229 482 -226 q 485 -235 483 -232 q 488 -246 488 -243 q 471 -265 488 -260 q 431 -271 454 -271 m 100 350 q 155 349 115 350 q 247 351 194 349 q 352 357 299 353 q 450 371 406 361 q 454 426 453 403 q 456 475 456 450 q 426 621 454 567 q 317 675 399 675 q 249 667 285 675 q 181 630 213 660 q 126 533 149 600 q 100 350 104 467 z "},"ẽ":{"ha":542,"x_min":65,"x_max":497,"o":"m 300 -14 q 207 -3 250 -14 q 132 39 164 7 q 83 135 100 71 q 65 307 65 200 q 89 526 65 444 q 150 646 113 607 q 231 697 188 685 q 315 708 275 708 q 449 647 410 708 q 489 492 489 586 q 487 413 489 451 q 479 342 485 374 q 349 324 417 329 q 222 317 281 318 q 128 316 164 315 q 92 317 92 317 l 92 350 q 128 349 92 350 q 222 350 165 349 q 339 356 278 351 q 450 371 400 361 q 454 426 453 403 q 456 475 456 450 q 426 621 454 567 q 317 675 399 675 q 246 667 283 675 q 174 624 208 658 q 119 513 140 589 q 99 301 99 436 q 114 148 99 204 q 157 64 129 92 q 221 28 185 36 q 299 19 257 19 q 398 33 350 19 q 476 71 446 46 q 482 56 481 63 q 483 44 483 49 q 458 21 483 35 q 390 -3 432 7 q 300 -14 349 -14 m 372 825 q 321 838 340 825 q 288 866 301 850 q 261 894 274 882 q 231 907 249 907 q 183 889 201 907 q 153 852 164 871 q 136 833 143 833 q 126 838 132 833 q 117 848 121 843 q 114 853 114 853 q 174 921 146 906 q 239 936 203 936 q 279 924 264 936 q 306 898 294 913 q 333 872 318 883 q 372 860 349 860 q 431 878 411 860 q 461 914 451 896 q 476 932 471 932 q 488 927 483 932 q 494 917 492 922 q 497 911 497 911 q 481 882 490 897 q 457 853 471 867 q 422 833 443 840 q 372 825 401 825 z "},"f":{"ha":335,"x_min":24,"x_max":469,"o":"m 142 0 l 142 661 l 24 661 q 24 683 24 676 q 28 692 25 690 q 38 694 31 694 l 142 694 l 142 788 q 163 916 142 868 q 216 988 183 964 q 287 1020 249 1013 q 360 1028 325 1028 q 445 1017 421 1028 q 469 1000 469 1007 q 468 990 469 994 q 464 979 467 985 q 415 990 439 986 q 357 994 390 994 q 296 989 328 994 q 236 963 264 983 q 192 899 208 942 q 175 782 175 857 l 175 694 l 344 694 q 344 672 344 679 q 340 663 343 665 q 331 661 338 661 l 175 661 l 175 14 q 172 3 175 7 q 161 0 168 0 l 142 0 z "},"g":{"ha":575,"x_min":63,"x_max":551,"o":"m 281 -275 q 143 -254 190 -275 q 79 -201 96 -233 q 63 -131 63 -168 q 89 -48 63 -89 q 152 26 115 -7 q 219 74 189 60 l 249 58 q 181 13 217 44 q 120 -58 144 -19 q 96 -131 96 -96 q 109 -186 96 -161 q 163 -226 122 -211 q 281 -242 203 -242 q 458 -194 397 -242 q 518 -89 518 -147 q 495 -20 518 -43 q 436 12 472 3 q 363 25 400 21 q 224 46 288 33 q 124 77 161 58 q 86 124 86 96 q 104 170 86 144 q 148 219 122 196 q 196 256 174 243 l 226 242 q 178 208 203 229 q 136 165 153 186 q 119 126 119 143 q 190 85 119 104 q 365 56 260 67 q 455 38 413 50 q 524 -3 497 25 q 551 -87 551 -32 q 522 -176 551 -132 q 432 -247 492 -219 q 281 -275 372 -275 m 301 214 q 164 249 211 214 q 101 342 117 285 q 85 461 85 399 q 116 597 85 542 q 199 680 147 651 q 310 708 250 708 q 350 705 324 708 q 396 694 376 701 l 407 678 q 494 615 463 664 q 526 486 526 565 q 503 354 526 417 q 431 253 481 292 q 301 214 382 214 m 306 247 q 413 283 371 247 q 474 375 454 319 q 493 486 493 431 q 444 628 493 582 q 310 675 394 675 q 215 651 258 675 q 144 580 171 628 q 118 458 118 532 q 131 360 118 408 q 183 279 143 311 q 306 247 224 247 m 526 671 q 482 672 506 671 q 436 673 458 672 q 400 674 414 674 q 386 675 386 675 l 338 701 l 546 701 q 547 699 546 701 q 549 689 549 696 q 544 676 549 681 q 526 671 539 671 z "},"ğ":{"ha":575,"x_min":63,"x_max":551,"o":"m 281 -275 q 143 -254 190 -275 q 79 -201 96 -233 q 63 -131 63 -168 q 89 -48 63 -89 q 152 26 115 -7 q 219 74 189 60 l 249 58 q 181 13 217 44 q 120 -58 144 -19 q 96 -131 96 -96 q 109 -186 96 -161 q 163 -226 122 -211 q 281 -242 203 -242 q 458 -194 397 -242 q 518 -89 518 -147 q 495 -20 518 -43 q 436 12 472 3 q 363 25 400 21 q 224 46 288 33 q 124 77 161 58 q 86 124 86 96 q 104 170 86 144 q 148 219 122 196 q 196 256 174 243 l 226 242 q 178 208 203 229 q 136 165 153 186 q 119 126 119 143 q 190 85 119 104 q 365 56 260 67 q 455 38 413 50 q 524 -3 497 25 q 551 -87 551 -32 q 522 -176 551 -132 q 432 -247 492 -219 q 281 -275 372 -275 m 301 214 q 164 249 211 214 q 101 342 117 285 q 85 461 85 399 q 116 597 85 542 q 199 680 147 651 q 310 708 250 708 q 350 705 324 708 q 396 694 376 701 l 407 678 q 494 615 463 664 q 526 486 526 565 q 503 354 526 417 q 431 253 481 292 q 301 214 382 214 m 306 247 q 413 283 371 247 q 474 375 454 319 q 493 486 493 431 q 444 628 493 582 q 310 675 394 675 q 215 651 258 675 q 144 580 171 628 q 118 458 118 532 q 131 360 118 408 q 183 279 143 311 q 306 247 224 247 m 526 671 q 482 672 506 671 q 436 673 458 672 q 400 674 414 674 q 386 675 386 675 l 338 701 l 546 701 q 547 699 546 701 q 549 689 549 696 q 544 676 549 681 q 526 671 539 671 m 301 813 q 231 832 261 813 q 182 878 201 851 q 153 930 163 906 q 143 964 143 954 q 151 978 143 975 q 169 982 160 981 q 193 925 178 957 q 235 869 208 893 q 303 846 263 846 q 365 865 342 846 q 403 913 389 885 q 426 968 417 942 q 438 979 431 978 q 453 976 446 981 q 461 963 460 971 q 435 899 453 935 q 385 838 417 864 q 301 813 353 813 z "},"ģ":{"ha":575,"x_min":63,"x_max":551,"o":"m 281 -275 q 143 -254 190 -275 q 79 -201 96 -233 q 63 -131 63 -168 q 89 -48 63 -89 q 152 26 115 -7 q 219 74 189 60 l 249 58 q 181 13 217 44 q 120 -58 144 -19 q 96 -131 96 -96 q 109 -186 96 -161 q 163 -226 122 -211 q 281 -242 203 -242 q 458 -194 397 -242 q 518 -89 518 -147 q 495 -20 518 -43 q 436 12 472 3 q 363 25 400 21 q 224 46 288 33 q 124 77 161 58 q 86 124 86 96 q 104 170 86 144 q 148 219 122 196 q 196 256 174 243 l 226 242 q 178 208 203 229 q 136 165 153 186 q 119 126 119 143 q 190 85 119 104 q 365 56 260 67 q 455 38 413 50 q 524 -3 497 25 q 551 -87 551 -32 q 522 -176 551 -132 q 432 -247 492 -219 q 281 -275 372 -275 m 301 214 q 164 249 211 214 q 101 342 117 285 q 85 461 85 399 q 116 597 85 542 q 199 680 147 651 q 310 708 250 708 q 350 705 324 708 q 396 694 376 701 l 407 678 q 494 615 463 664 q 526 486 526 565 q 503 354 526 417 q 431 253 481 292 q 301 214 382 214 m 306 247 q 413 283 371 247 q 474 375 454 319 q 493 486 493 431 q 444 628 493 582 q 310 675 394 675 q 215 651 258 675 q 144 580 171 628 q 118 458 118 532 q 131 360 118 408 q 183 279 143 311 q 306 247 224 247 m 526 671 q 482 672 506 671 q 436 673 458 672 q 400 674 414 674 q 386 675 386 675 l 338 701 l 546 701 q 547 699 546 701 q 549 689 549 696 q 544 676 549 681 q 526 671 539 671 z "},"h":{"ha":576,"x_min":92,"x_max":501,"o":"m 92 0 l 92 1000 q 94 1015 92 1011 q 105 1020 97 1019 q 125 1021 113 1021 l 125 643 q 226 694 174 679 q 325 708 278 708 q 435 685 397 708 q 488 619 474 661 q 501 518 501 576 l 501 14 q 500 4 501 7 q 492 1 499 1 q 468 0 485 0 l 468 518 q 440 633 468 590 q 322 675 411 675 q 224 658 279 675 q 125 597 169 642 l 125 14 q 124 4 125 7 q 115 1 122 1 q 92 0 108 0 z "},"i":{"ha":231,"x_min":89,"x_max":143,"o":"m 99 0 l 99 674 q 101 689 99 685 q 112 694 104 693 q 132 694 119 694 l 132 14 q 131 4 132 7 q 122 1 129 1 q 99 0 115 0 m 114 853 q 94 864 100 854 q 90 892 89 874 q 98 921 92 911 q 117 931 104 931 q 137 919 131 931 q 142 889 143 908 q 135 862 140 871 q 114 853 129 853 z "},"ı":{"ha":231,"x_min":99,"x_max":132,"o":"m 99 0 l 99 674 q 101 689 99 685 q 112 694 104 693 q 132 694 119 694 l 132 14 q 131 4 132 7 q 122 1 129 1 q 99 0 115 0 z "},"í":{"ha":231,"x_min":10,"x_max":221,"o":"m 99 0 l 99 674 q 101 689 99 685 q 112 694 104 693 q 132 694 119 694 l 132 14 q 131 4 132 7 q 122 1 129 1 q 99 0 115 0 m 24 804 q 20 810 24 804 q 13 821 17 815 q 10 826 10 826 q 78 888 44 858 q 141 940 113 917 q 186 976 169 963 q 203 989 203 989 q 216 973 211 989 q 221 957 221 957 q 205 944 221 957 q 162 908 189 931 q 99 859 135 886 q 24 804 64 832 z "},"î":{"ha":231,"x_min":-43,"x_max":274,"o":"m 99 0 l 99 674 q 101 689 99 685 q 112 694 104 693 q 132 694 119 694 l 132 14 q 131 4 132 7 q 122 1 129 1 q 99 0 115 0 m 243 806 q 224 826 243 806 q 181 872 206 846 q 138 917 157 897 q 119 938 119 938 q 100 918 119 938 q 55 872 81 899 q 8 826 29 846 q -17 807 -14 807 q -37 816 -31 807 q -43 825 -43 825 l 110 968 q 121 971 113 971 q 130 969 125 971 q 140 961 135 967 q 160 941 140 961 q 207 894 181 921 q 253 848 233 868 q 274 828 274 828 q 265 817 274 828 q 243 806 256 806 z "},"ï":{"ha":231,"x_min":19,"x_max":213,"o":"m 99 0 l 99 674 q 101 689 99 685 q 112 694 104 693 q 132 694 119 694 l 132 14 q 131 4 132 7 q 122 1 129 1 q 99 0 115 0 m 44 853 q 25 864 31 854 q 21 892 19 874 q 28 921 22 911 q 47 931 35 931 q 67 919 61 931 q 72 889 74 908 q 65 862 71 871 q 44 853 60 853 m 183 853 q 164 864 169 854 q 160 892 158 874 q 167 921 161 911 q 186 931 174 931 q 206 919 200 931 q 211 889 213 908 q 204 862 210 871 q 183 853 199 853 z "},"ị":{"ha":231,"x_min":89,"x_max":143,"o":"m 99 0 l 99 674 q 101 689 99 685 q 112 694 104 693 q 132 694 119 694 l 132 14 q 131 4 132 7 q 122 1 129 1 q 99 0 115 0 m 114 853 q 94 864 100 854 q 90 892 89 874 q 98 921 92 911 q 117 931 104 931 q 137 919 131 931 q 142 889 143 908 q 135 862 140 871 q 114 853 129 853 z "},"ì":{"ha":231,"x_min":10,"x_max":221,"o":"m 99 0 l 99 674 q 101 689 99 685 q 112 694 104 693 q 132 694 119 694 l 132 14 q 131 4 132 7 q 122 1 129 1 q 99 0 115 0 m 207 804 q 132 859 168 832 q 69 908 96 886 q 26 944 42 931 q 10 957 10 957 q 15 973 10 957 q 28 989 19 989 q 44 976 28 989 q 90 940 61 963 q 152 888 118 917 q 221 826 186 858 q 217 821 221 826 q 210 810 214 815 q 207 804 207 804 z "},"ỉ":{"ha":231,"x_min":40,"x_max":189,"o":"m 99 0 l 99 674 q 101 689 99 685 q 112 694 104 693 q 132 694 119 694 l 132 14 q 131 4 132 7 q 122 1 129 1 q 99 0 115 0 m 93 771 q 92 782 93 771 q 96 806 90 793 q 117 829 104 822 q 140 846 131 836 q 150 881 150 856 q 140 921 150 908 q 116 936 129 933 q 94 939 103 939 q 40 922 64 939 q 40 926 40 922 q 40 937 40 931 q 40 949 40 943 q 40 956 40 954 q 56 968 40 961 q 93 975 71 975 q 144 966 122 975 q 177 936 165 957 q 189 881 189 915 q 178 839 189 854 q 152 815 167 824 q 129 800 138 807 q 121 783 122 794 q 119 772 119 772 q 113 770 119 771 q 101 770 107 769 q 93 771 96 771 z "},"ĳ":{"ha":479,"x_min":57,"x_max":383,"o":"m 99 0 l 99 674 q 101 689 99 685 q 112 694 104 693 q 132 694 119 694 l 132 14 q 131 4 132 7 q 122 1 129 1 q 99 0 115 0 m 114 853 q 94 864 100 854 q 90 892 89 874 q 98 921 92 911 q 117 931 104 931 q 137 919 131 931 q 142 889 143 908 q 135 862 140 871 q 114 853 129 853 z "},"ī":{"ha":231,"x_min":3,"x_max":228,"o":"m 99 0 l 99 674 q 101 689 99 685 q 112 694 104 693 q 132 694 119 694 l 132 14 q 131 4 132 7 q 122 1 129 1 q 99 0 115 0 m 4 865 q 3 875 3 871 q 3 883 3 879 q 7 896 3 892 q 18 900 11 900 l 226 900 q 228 890 228 894 q 228 882 228 886 q 224 869 228 874 q 213 865 219 865 l 4 865 z "},"į":{"ha":231,"x_min":-4,"x_max":151,"o":"m 94 -271 q 21 -243 46 -271 q -4 -168 -4 -215 q 26 -63 -4 -108 q 97 17 57 -18 l 97 672 q 99 688 97 683 q 109 694 101 693 q 133 694 117 694 l 133 14 q 128 1 133 6 q 115 -8 122 -3 q 57 -76 85 -33 q 29 -169 29 -119 q 94 -237 29 -237 q 119 -234 110 -237 q 142 -225 129 -231 q 147 -235 144 -228 q 150 -246 150 -242 q 135 -264 151 -257 q 94 -271 119 -271 m 114 853 q 94 864 100 854 q 90 892 89 874 q 98 921 92 911 q 117 931 104 931 q 137 919 131 931 q 142 889 143 908 q 135 862 140 871 q 114 853 129 853 z "},"ĩ":{"ha":231,"x_min":-76,"x_max":307,"o":"m 99 0 l 99 674 q 101 689 99 685 q 112 694 104 693 q 132 694 119 694 l 132 14 q 131 4 132 7 q 122 1 129 1 q 99 0 115 0 m 182 825 q 131 838 150 825 q 97 866 111 850 q 71 894 83 882 q 40 907 58 907 q -8 889 11 907 q -37 852 -26 871 q -54 833 -47 833 q -64 838 -58 833 q -73 848 -69 843 q -76 853 -76 853 q -16 921 -44 906 q 49 936 13 936 q 89 924 74 936 q 116 898 104 913 q 143 872 128 883 q 182 860 158 860 q 241 878 221 860 q 271 914 261 896 q 286 932 281 932 q 297 927 293 932 q 304 917 301 922 q 307 911 307 911 q 290 882 300 897 q 267 853 281 867 q 232 833 253 840 q 182 825 211 825 z "},"j":{"ha":249,"x_min":-174,"x_max":153,"o":"m -19 -269 q -133 -250 -92 -269 q -174 -215 -174 -231 q -172 -203 -174 -208 q -165 -190 -171 -197 q -106 -222 -142 -208 q -15 -236 -71 -236 q 66 -212 40 -236 q 99 -145 92 -189 q 107 -39 107 -101 l 107 674 q 110 689 107 685 q 120 694 113 693 q 140 694 128 694 l 140 -51 q 128 -166 140 -117 q 82 -242 117 -215 q -19 -269 47 -269 m 124 853 q 104 864 110 854 q 100 892 99 874 q 108 921 101 911 q 126 931 114 931 q 147 919 140 931 q 151 889 153 908 q 144 862 150 871 q 124 853 139 853 z "},"ȷ":{"ha":249,"x_min":-174,"x_max":140,"o":"m -19 -269 q -133 -250 -92 -269 q -174 -215 -174 -231 q -172 -203 -174 -208 q -165 -190 -171 -197 q -106 -222 -142 -208 q -15 -236 -71 -236 q 66 -212 40 -236 q 99 -145 92 -189 q 107 -39 107 -101 l 107 674 q 110 689 107 685 q 120 694 113 693 q 140 694 128 694 l 140 -51 q 128 -166 140 -117 q 82 -242 117 -215 q -19 -269 47 -269 z "},"k":{"ha":561,"x_min":97,"x_max":513,"o":"m 97 0 l 97 1000 q 100 1015 97 1011 q 110 1020 103 1019 q 131 1021 118 1021 l 131 599 q 244 681 179 654 q 353 708 308 708 q 424 694 397 708 q 465 653 451 681 q 478 585 478 626 q 456 494 478 533 q 402 428 433 456 q 342 383 371 400 q 297 361 313 367 q 368 354 325 368 q 450 299 411 340 q 504 178 489 257 q 512 106 511 146 q 506 18 513 65 q 503 5 504 8 q 494 1 501 1 q 469 0 488 0 q 475 133 481 78 q 454 226 469 189 q 406 294 436 271 q 344 326 376 318 q 283 333 313 335 q 236 326 254 332 q 197 313 222 322 q 151 297 171 304 q 131 289 131 289 l 131 14 q 130 4 131 7 q 122 1 129 1 q 97 0 115 0 m 131 325 q 287 388 215 351 q 401 473 358 424 q 444 585 444 522 q 350 675 444 675 q 244 649 301 675 q 131 558 186 622 l 131 325 z "},"ķ":{"ha":561,"x_min":97,"x_max":513,"o":"m 97 0 l 97 1000 q 100 1015 97 1011 q 110 1020 103 1019 q 131 1021 118 1021 l 131 599 q 244 681 179 654 q 353 708 308 708 q 424 694 397 708 q 465 653 451 681 q 478 585 478 626 q 456 494 478 533 q 402 428 433 456 q 342 383 371 400 q 297 361 313 367 q 368 354 325 368 q 450 299 411 340 q 504 178 489 257 q 512 106 511 146 q 506 18 513 65 q 503 5 504 8 q 494 1 501 1 q 469 0 488 0 q 475 133 481 78 q 454 226 469 189 q 406 294 436 271 q 344 326 376 318 q 283 333 313 335 q 236 326 254 332 q 197 313 222 322 q 151 297 171 304 q 131 289 131 289 l 131 14 q 130 4 131 7 q 122 1 129 1 q 97 0 115 0 m 131 325 q 287 388 215 351 q 401 473 358 424 q 444 585 444 522 q 350 675 444 675 q 244 649 301 675 q 131 558 186 622 l 131 325 z "},"l":{"ha":229,"x_min":97,"x_max":131,"o":"m 97 0 l 97 1000 q 100 1015 97 1011 q 110 1020 103 1019 q 131 1021 118 1021 l 131 14 q 129 4 131 7 q 121 1 128 1 q 97 0 114 0 z "},"ĺ":{"ha":229,"x_min":10,"x_max":221,"o":"m 97 0 l 97 1000 q 100 1015 97 1011 q 110 1020 103 1019 q 131 1021 118 1021 l 131 14 q 129 4 131 7 q 121 1 128 1 q 97 0 114 0 m 24 1131 q 20 1136 24 1131 q 13 1147 17 1142 q 10 1153 10 1153 q 78 1214 44 1185 q 141 1266 113 1243 q 186 1302 169 1289 q 203 1315 203 1315 q 216 1299 211 1315 q 221 1283 221 1283 q 205 1270 221 1283 q 162 1235 189 1257 q 99 1185 135 1213 q 24 1131 64 1158 z "},"ľ":{"ha":253,"x_min":97,"x_max":251,"o":"m 97 0 l 97 1000 q 100 1015 97 1011 q 110 1020 103 1019 q 131 1021 118 1021 l 131 14 q 129 4 131 7 q 121 1 128 1 q 97 0 114 0 m 190 744 q 179 750 185 744 q 172 761 174 756 q 199 863 199 824 q 192 930 200 901 q 185 988 185 958 q 192 1017 185 1006 q 217 1028 200 1028 q 242 1017 232 1028 q 251 979 251 1006 q 244 912 251 951 q 228 834 238 872 q 208 770 218 796 q 190 744 197 744 z "},"ļ":{"ha":229,"x_min":68,"x_max":161,"o":"m 97 0 l 97 1000 q 100 1015 97 1011 q 110 1020 103 1019 q 131 1021 118 1021 l 131 14 q 129 4 131 7 q 121 1 128 1 q 97 0 114 0 z "},"ŀ":{"ha":228,"x_min":97,"x_max":263,"o":"m 97 0 l 97 1000 q 100 1015 97 1011 q 110 1020 103 1019 q 131 1021 118 1021 l 131 14 q 129 4 131 7 q 121 1 128 1 q 97 0 114 0 m 222 332 q 194 344 204 332 q 185 375 185 357 q 194 404 185 392 q 222 417 204 417 q 251 404 240 417 q 263 375 263 392 q 251 344 263 357 q 222 332 240 332 z "},"ł":{"ha":229,"x_min":3,"x_max":225,"o":"m 97 0 l 97 1000 q 100 1015 97 1011 q 110 1020 103 1019 q 131 1021 118 1021 l 131 14 q 130 4 131 7 q 122 1 129 1 q 97 0 115 0 m 13 576 q 3 603 4 597 q 13 614 3 610 l 215 696 q 224 668 224 674 q 215 658 225 663 l 13 576 z "},"m":{"ha":868,"x_min":97,"x_max":779,"o":"m 97 0 l 97 663 q 203 697 154 686 q 299 708 253 708 q 411 684 378 708 q 451 616 444 660 q 457 511 457 572 l 457 14 q 456 4 457 7 q 447 1 454 1 q 424 0 440 0 l 424 510 q 419 601 424 564 q 388 656 414 638 q 300 675 363 675 q 220 667 261 675 q 131 638 179 660 l 131 14 q 128 4 131 7 q 119 1 126 1 q 97 0 113 0 m 424 0 l 424 644 q 492 681 457 667 q 560 701 526 694 q 625 708 594 708 q 726 685 693 708 q 769 615 758 661 q 779 500 779 568 l 779 14 q 778 4 779 7 q 769 1 776 1 q 746 0 763 0 l 746 510 q 724 635 746 596 q 626 675 703 675 q 544 665 588 675 q 457 624 501 654 l 457 14 q 455 4 457 7 q 446 1 453 1 q 424 0 439 0 z "},"n":{"ha":586,"x_min":93,"x_max":508,"o":"m 93 0 l 93 658 q 167 685 131 674 q 243 702 204 696 q 322 708 282 708 q 440 685 400 708 q 494 619 481 663 q 508 511 508 575 l 508 14 q 507 4 508 7 q 499 1 506 1 q 475 0 492 0 l 475 506 q 447 633 475 592 q 324 675 418 675 q 227 665 285 675 q 126 635 169 656 l 126 14 q 125 4 126 7 q 117 1 124 1 q 93 0 110 0 z "},"ń":{"ha":586,"x_min":93,"x_max":508,"o":"m 93 0 l 93 658 q 167 685 131 674 q 243 702 204 696 q 322 708 282 708 q 440 685 400 708 q 494 619 481 663 q 508 511 508 575 l 508 14 q 507 4 508 7 q 499 1 506 1 q 475 0 492 0 l 475 506 q 447 633 475 592 q 324 675 418 675 q 227 665 285 675 q 126 635 169 656 l 126 14 q 125 4 126 7 q 117 1 124 1 q 93 0 110 0 m 201 804 q 198 810 201 804 q 191 821 194 815 q 188 826 188 826 q 256 888 222 858 q 319 940 290 917 q 364 976 347 963 q 381 989 381 989 q 394 973 389 989 q 399 957 399 957 q 383 944 399 957 q 340 908 367 931 q 277 859 313 886 q 201 804 242 832 z "},"ŉ":{"ha":586,"x_min":93,"x_max":508,"o":"m 93 0 l 93 658 q 167 685 131 674 q 243 702 204 696 q 322 708 282 708 q 440 685 400 708 q 494 619 481 663 q 508 511 508 575 l 508 14 q 507 4 508 7 q 499 1 506 1 q 475 0 492 0 l 475 506 q 447 633 475 592 q 324 675 418 675 q 227 665 285 675 q 126 635 169 656 l 126 14 q 125 4 126 7 q 117 1 124 1 q 93 0 110 0 m 122 799 q 111 804 117 799 q 104 815 106 810 q 122 876 115 842 q 132 945 129 911 q 133 1001 135 979 q 119 1017 125 1007 q 113 1042 113 1028 q 122 1070 113 1060 q 149 1081 132 1081 q 174 1072 164 1081 q 183 1033 183 1064 q 176 966 183 1006 q 160 888 169 926 q 140 824 150 850 q 122 799 129 799 z "},"ň":{"ha":586,"x_min":93,"x_max":508,"o":"m 93 0 l 93 658 q 167 685 131 674 q 243 702 204 696 q 322 708 282 708 q 440 685 400 708 q 494 619 481 663 q 508 511 508 575 l 508 14 q 507 4 508 7 q 499 1 506 1 q 475 0 492 0 l 475 506 q 447 633 475 592 q 324 675 418 675 q 227 665 285 675 q 126 635 169 656 l 126 14 q 125 4 126 7 q 117 1 124 1 q 93 0 110 0 m 304 814 q 280 830 299 814 q 236 870 261 846 q 188 919 211 894 q 149 959 164 943 q 133 975 133 975 q 140 985 133 975 q 157 994 147 994 q 176 980 160 994 q 213 944 192 965 q 255 900 235 922 q 289 863 275 878 q 303 849 303 849 q 363 920 332 885 q 415 979 394 956 q 436 1003 436 1003 q 448 992 443 997 q 453 981 453 988 q 439 960 453 978 q 405 917 425 942 q 363 869 385 893 q 325 830 342 846 q 304 814 308 814 z "},"ņ":{"ha":586,"x_min":93,"x_max":508,"o":"m 93 0 l 93 658 q 167 685 131 674 q 243 702 204 696 q 322 708 282 708 q 440 685 400 708 q 494 619 481 663 q 508 511 508 575 l 508 14 q 507 4 508 7 q 499 1 506 1 q 475 0 492 0 l 475 506 q 447 633 475 592 q 324 675 418 675 q 227 665 285 675 q 126 635 169 656 l 126 14 q 125 4 126 7 q 117 1 124 1 q 93 0 110 0 z "},"ñ":{"ha":586,"x_min":93,"x_max":508,"o":"m 93 0 l 93 658 q 167 685 131 674 q 243 702 204 696 q 322 708 282 708 q 440 685 400 708 q 494 619 481 663 q 508 511 508 575 l 508 14 q 507 4 508 7 q 499 1 506 1 q 475 0 492 0 l 475 506 q 447 633 475 592 q 324 675 418 675 q 227 665 285 675 q 126 635 169 656 l 126 14 q 125 4 126 7 q 117 1 124 1 q 93 0 110 0 m 360 825 q 308 838 328 825 q 275 866 289 850 q 249 894 261 882 q 218 907 236 907 q 170 889 189 907 q 141 852 151 871 q 124 833 131 833 q 114 838 119 833 q 105 848 108 843 q 101 853 101 853 q 162 921 133 906 q 226 936 190 936 q 267 924 251 936 q 294 898 282 913 q 321 872 306 883 q 360 860 336 860 q 419 878 399 860 q 449 914 439 896 q 464 932 458 932 q 475 927 471 932 q 482 917 479 922 q 485 911 485 911 q 468 882 478 897 q 444 853 458 867 q 410 833 431 840 q 360 825 389 825 z "},"o":{"ha":557,"x_min":56,"x_max":501,"o":"m 271 -14 q 184 -1 224 -14 q 115 47 144 11 q 71 155 86 83 q 56 344 56 226 q 119 624 56 539 q 288 708 182 708 q 406 677 358 708 q 477 567 453 646 q 501 344 501 488 q 442 75 501 164 q 271 -14 382 -14 m 272 19 q 377 56 333 19 q 444 167 421 93 q 468 350 468 240 q 446 551 468 481 q 383 648 424 621 q 286 675 343 675 q 182 642 226 675 q 113 535 138 610 q 89 335 89 461 q 101 178 89 240 q 137 82 114 117 q 194 33 160 47 q 272 19 229 19 z "}}}
